M48
; DRILL file {KiCad (6.0.10)} date Thu Nov 30 08:58:03 2023
; FORMAT={-:-/ absolute / inch / decimal}
; #@! TF.CreationDate,2023-11-30T08:58:03-03:00
; #@! TF.GenerationSoftware,Kicad,Pcbnew,(6.0.10)
; #@! TF.FileFunction,Plated,1,2,PTH
FMAT,2
INCH
; #@! TA.AperFunction,Plated,PTH,ViaDrill
T1C0.0157
; #@! TA.AperFunction,Plated,PTH,ViaDrill
T2C0.0276
; #@! TA.AperFunction,Plated,PTH,ComponentDrill
T3C0.0315
; #@! TA.AperFunction,Plated,PTH,ComponentDrill
T4C0.0354
; #@! TA.AperFunction,Plated,PTH,ComponentDrill
T5C0.0374
; #@! TA.AperFunction,Plated,PTH,ComponentDrill
T6C0.0394
%
G90
G05
T1
X7.3938Y-7.3886
X7.5733Y-7.3902
T2
X7.4119Y-5.2081
X7.6034Y-6.3512
X7.6034Y-6.5493
X7.6414Y-5.1071
X7.9604Y-5.1071
X7.9604Y-5.2071
X7.9914Y-6.75
X7.9946Y-6.9331
X8.1833Y-8.02
X8.1833Y-8.2828
X9.0741Y-4.9205
X9.0773Y-7.8937
X9.2131Y-8.0169
X9.2253Y-7.8882
X9.311Y-4.9241
X9.347Y-8.0118
X9.8072Y-6.1264
X9.8442Y-7.8228
X9.8454Y-8.1264
X9.908Y-6.0469
X10.2029Y-6.05
X10.2832Y-6.113
X10.6111Y-5.3898
X10.6139Y-5.1469
T3
X6.7131Y-6.01
X6.7133Y-5.69
X6.7133Y-5.82
X6.7133Y-6.14
X6.8914Y-7.7026
X6.8914Y-8.1026
X7.0154Y-7.7026
X7.0154Y-8.1026
X7.1131Y-6.01
X7.1133Y-5.69
X7.1133Y-5.82
X7.1133Y-6.14
X7.5298Y-6.45
X7.5298Y-6.6469
X7.6679Y-5.77
X7.6679Y-5.89
X8.0679Y-5.77
X8.0679Y-5.89
X8.8128Y-4.9898
X8.8128Y-5.3898
X10.9114Y-6.11
X10.9114Y-6.51
X11.0249Y-7.7011
X11.0249Y-8.1011
X11.0414Y-6.11
X11.0414Y-6.51
X11.1549Y-7.7011
X11.1549Y-8.1011
T4
X8.0683Y-4.7071
X8.0683Y-4.8071
X8.0683Y-4.9071
X8.0683Y-5.0071
X8.0683Y-5.1071
X8.0683Y-5.2071
X8.8128Y-4.6898
X8.8128Y-4.7898
T5
X7.2733Y-6.2608
X7.2733Y-6.3592
X7.2733Y-6.4576
X7.2733Y-7.8465
X7.2733Y-7.9449
X7.2733Y-8.0433
X10.6615Y-6.2606
X10.6615Y-6.359
X10.6615Y-6.4574
X10.6615Y-7.8465
X10.6615Y-7.9449
X10.6615Y-8.0433
T6
X7.2615Y-7.0802
X7.2615Y-7.1802
X7.2615Y-7.3904
X7.2615Y-7.4904
X7.2733Y-6.7408
X7.2733Y-6.8392
X7.7442Y-6.25
X7.7442Y-6.35
X7.7442Y-6.45
X7.7442Y-6.55
X7.7442Y-6.65
X7.7442Y-6.75
X7.7442Y-6.85
X7.7442Y-6.95
X7.7442Y-7.05
X7.7442Y-7.15
X7.7442Y-7.25
X7.7442Y-7.35
X7.7442Y-7.45
X7.7442Y-7.55
X7.7442Y-7.65
X7.7442Y-7.75
X7.7442Y-7.85
X7.7442Y-7.95
X7.7442Y-8.05
X7.8442Y-6.25
X7.8442Y-6.35
X7.8442Y-6.45
X7.8442Y-6.55
X7.8442Y-6.65
X7.8442Y-6.75
X7.8442Y-6.85
X7.8442Y-6.95
X7.8442Y-7.05
X7.8442Y-7.15
X7.8442Y-7.25
X7.8442Y-7.35
X7.8442Y-7.45
X7.8442Y-7.55
X7.8442Y-7.65
X7.8442Y-7.75
X7.8442Y-7.85
X7.8442Y-7.95
X7.8442Y-8.05
X8.3529Y-4.7071
X8.4513Y-4.7071
X8.7208Y-7.9621
X8.7463Y-8.3968
X8.7915Y-7.8914
X8.7915Y-8.0328
X8.8463Y-8.3968
X8.8622Y-7.8207
X8.8622Y-7.9621
X8.9329Y-7.75
X8.9329Y-7.8914
X8.9463Y-8.3968
X9.0036Y-7.6793
X9.0036Y-7.8207
X9.0463Y-8.3968
X9.0743Y-7.6086
X9.0743Y-7.75
X9.145Y-7.5379
X9.145Y-7.6793
X9.1463Y-8.3968
X9.1878Y-4.6898
X9.1878Y-5.3898
X9.2157Y-7.4672
X9.2157Y-7.6086
X9.2463Y-8.3968
X9.2864Y-7.5379
X10.1442Y-6.25
X10.1442Y-6.35
X10.1442Y-6.45
X10.1442Y-6.55
X10.1442Y-6.65
X10.1442Y-6.75
X10.1442Y-6.85
X10.1442Y-6.95
X10.1442Y-7.05
X10.1442Y-7.15
X10.1442Y-7.25
X10.1442Y-7.35
X10.1442Y-7.45
X10.1442Y-7.55
X10.1442Y-7.65
X10.1442Y-7.75
X10.1442Y-7.85
X10.1442Y-7.95
X10.1442Y-8.05
X10.2442Y-6.25
X10.2442Y-6.35
X10.2442Y-6.45
X10.2442Y-6.55
X10.2442Y-6.65
X10.2442Y-6.75
X10.2442Y-6.85
X10.2442Y-6.95
X10.2442Y-7.05
X10.2442Y-7.15
X10.2442Y-7.25
X10.2442Y-7.35
X10.2442Y-7.45
X10.2442Y-7.55
X10.2442Y-7.65
X10.2442Y-7.75
X10.2442Y-7.85
X10.2442Y-7.95
X10.2442Y-8.05
X10.481Y-5.789
X10.581Y-5.789
X10.6597Y-6.7406
X10.6597Y-6.839
X10.6715Y-7.0796
X10.6715Y-7.1796
X10.6733Y-7.3898
X10.6733Y-7.4898
X10.681Y-5.789
X10.781Y-5.789
X10.7878Y-4.6898
X10.7878Y-5.3898
T0
M30
