%TF.GenerationSoftware,KiCad,Pcbnew,6.0.2+dfsg-1*%
%TF.CreationDate,2023-11-29T12:07:55-03:00*%
%TF.ProjectId,ProyectoFinal,50726f79-6563-4746-9f46-696e616c2e6b,rev?*%
%TF.SameCoordinates,Original*%
%TF.FileFunction,Copper,L2,Bot*%
%TF.FilePolarity,Positive*%
%FSLAX46Y46*%
G04 Gerber Fmt 4.6, Leading zero omitted, Abs format (unit mm)*
G04 Created by KiCad (PCBNEW 6.0.2+dfsg-1) date 2023-11-29 12:07:55*
%MOMM*%
%LPD*%
G01*
G04 APERTURE LIST*
G04 Aperture macros list*
%AMRotRect*
0 Rectangle, with rotation*
0 The origin of the aperture is its center*
0 $1 length*
0 $2 width*
0 $3 Rotation angle, in degrees counterclockwise*
0 Add horizontal line*
21,1,$1,$2,0,0,$3*%
G04 Aperture macros list end*
%TA.AperFunction,ComponentPad*%
%ADD10R,1.800000X1.800000*%
%TD*%
%TA.AperFunction,ComponentPad*%
%ADD11R,1.700000X1.700000*%
%TD*%
%TA.AperFunction,ComponentPad*%
%ADD12RotRect,1.800000X1.800000X315.000000*%
%TD*%
%TA.AperFunction,ComponentPad*%
%ADD13R,2.540000X2.540000*%
%TD*%
%TA.AperFunction,ComponentPad*%
%ADD14C,1.600000*%
%TD*%
%TA.AperFunction,ViaPad*%
%ADD15C,1.400000*%
%TD*%
%TA.AperFunction,Conductor*%
%ADD16C,1.000000*%
%TD*%
%TA.AperFunction,Conductor*%
%ADD17C,0.500000*%
%TD*%
G04 APERTURE END LIST*
D10*
%TO.P,J12,1,Pin_1*%
%TO.N,Net-(J12-Pad1)*%
X218422526Y-119560000D03*
%TO.P,J12,2,Pin_2*%
%TO.N,GND*%
X220922526Y-119560000D03*
%TD*%
%TO.P,D1,1,K*%
%TO.N,GND*%
X230104526Y-119120000D03*
%TO.P,D1,2,A*%
%TO.N,Net-(D1-Pad2)*%
X230104526Y-121660000D03*
%TD*%
%TO.P,R9,2*%
%TO.N,Net-(D1-Pad2)*%
X230104526Y-126740000D03*
%TO.P,R9,1*%
%TO.N,+12V*%
X230104526Y-136900000D03*
%TD*%
%TO.P,R6,1*%
%TO.N,+5V*%
X284678716Y-205807000D03*
%TO.P,R6,2*%
%TO.N,MOTOR4_ENCODER*%
X284678716Y-195647000D03*
%TD*%
%TO.P,R8,1*%
%TO.N,+5V*%
X287980716Y-205807000D03*
%TO.P,R8,2*%
%TO.N,Net-(J6-Pad3)*%
X287980716Y-195647000D03*
%TD*%
D11*
%TO.P,J10,1,Pin_1*%
%TO.N,MOTOR4_PWMN*%
X276296716Y-187706000D03*
%TO.P,J10,2,Pin_2*%
%TO.N,MOTOR4_PWM*%
X276296716Y-190246000D03*
%TD*%
%TO.P,J7,1,Pin_1*%
%TO.N,MOTOR1_PWMN*%
X276250716Y-179827000D03*
%TO.P,J7,2,Pin_2*%
%TO.N,MOTOR1_PWM*%
X276250716Y-182367000D03*
%TD*%
D10*
%TO.P,J1,1,Pin_1*%
%TO.N,GND*%
X275996716Y-171216000D03*
%TO.P,J1,2,Pin_2*%
%TO.N,+12V*%
X275996716Y-173716000D03*
%TD*%
%TO.P,R1,1*%
%TO.N,+5V*%
X286710716Y-155194000D03*
%TO.P,R1,2*%
%TO.N,MOTOR1_ENCODER*%
X286710716Y-165354000D03*
%TD*%
D11*
%TO.P,J16,1,Pin_1*%
%TO.N,+3V3*%
X280096716Y-147041000D03*
%TO.P,J16,2,Pin_2*%
%TO.N,SWCLK*%
X277556716Y-147041000D03*
%TO.P,J16,3,Pin_3*%
%TO.N,GND*%
X275016716Y-147041000D03*
%TO.P,J16,4,Pin_4*%
%TO.N,SWDIO*%
X272476716Y-147041000D03*
%TD*%
D10*
%TO.P,R11,1*%
%TO.N,Vbat*%
X201025516Y-149606000D03*
%TO.P,R11,2*%
%TO.N,GND*%
X211185516Y-149606000D03*
%TD*%
%TO.P,R10,1*%
%TO.N,Net-(R10-Pad1)*%
X211185516Y-146558000D03*
%TO.P,R10,2*%
%TO.N,Vbat*%
X201025516Y-146558000D03*
%TD*%
%TO.P,R13,1*%
%TO.N,+5V*%
X181300716Y-146558000D03*
%TO.P,R13,2*%
%TO.N,I2C_SDA*%
X191460716Y-146558000D03*
%TD*%
%TO.P,R12,1*%
%TO.N,+5V*%
X181300716Y-149860000D03*
%TO.P,R12,2*%
%TO.N,I2C_SCL*%
X191460716Y-149860000D03*
%TD*%
%TO.P,R7,1*%
%TO.N,+5V*%
X181300716Y-155194000D03*
%TO.P,R7,2*%
%TO.N,Net-(J5-Pad3)*%
X181300716Y-165354000D03*
%TD*%
%TO.P,R5,1*%
%TO.N,+5V*%
X184450316Y-155194000D03*
%TO.P,R5,2*%
%TO.N,MOTOR2_ENCODER*%
X184450316Y-165354000D03*
%TD*%
%TO.P,J5,1,Pin_1*%
%TO.N,MOTOR2_ENCODER*%
X192649716Y-164024000D03*
%TO.P,J5,2,Pin_2*%
%TO.N,GND*%
X192649716Y-161524000D03*
%TO.P,J5,3,Pin_3*%
%TO.N,Net-(J5-Pad3)*%
X192649716Y-159024000D03*
%TD*%
%TO.P,J4,1,Pin_1*%
%TO.N,+12V*%
X192649716Y-173716000D03*
%TO.P,J4,2,Pin_2*%
%TO.N,GND*%
X192649716Y-171216000D03*
%TD*%
D11*
%TO.P,J8,1,Pin_1*%
%TO.N,MOTOR2_PWMN*%
X192349716Y-182377000D03*
%TO.P,J8,2,Pin_2*%
%TO.N,MOTOR2_PWM*%
X192349716Y-179837000D03*
%TD*%
%TO.P,J9,2,Pin_2*%
%TO.N,MOTOR3_PWM*%
X192322526Y-187716000D03*
%TO.P,J9,1,Pin_1*%
%TO.N,MOTOR3_PWMN*%
X192322526Y-190256000D03*
%TD*%
D10*
%TO.P,R2,1*%
%TO.N,+5V*%
X181300716Y-205807000D03*
%TO.P,R2,2*%
%TO.N,MOTOR3_ENCODER*%
X181300716Y-195647000D03*
%TD*%
%TO.P,R4,1*%
%TO.N,+5V*%
X184450316Y-205807000D03*
%TO.P,R4,2*%
%TO.N,Net-(J3-Pad3)*%
X184450316Y-195647000D03*
%TD*%
%TO.P,J3,3,Pin_3*%
%TO.N,Net-(J3-Pad3)*%
X192622526Y-199300000D03*
%TO.P,J3,2,Pin_2*%
%TO.N,GND*%
X192622526Y-201800000D03*
%TO.P,J3,1,Pin_1*%
%TO.N,MOTOR3_ENCODER*%
X192622526Y-204300000D03*
%TD*%
%TO.P,J15,1,Pin_1*%
%TO.N,GND*%
X241115621Y-213278000D03*
%TO.P,J15,2,Pin_2*%
%TO.N,unconnected-(J15-Pad2)*%
X238575621Y-213278000D03*
%TO.P,J15,3,Pin_3*%
%TO.N,unconnected-(J15-Pad3)*%
X236035621Y-213278000D03*
%TO.P,J15,4,Pin_4*%
%TO.N,UART_TX*%
X233495621Y-213278000D03*
%TO.P,J15,5,Pin_5*%
%TO.N,UART_RX*%
X230955621Y-213278000D03*
%TO.P,J15,6,Pin_6*%
%TO.N,unconnected-(J15-Pad6)*%
X228415621Y-213278000D03*
%TD*%
%TO.P,J6,1,Pin_1*%
%TO.N,MOTOR4_ENCODER*%
X275950716Y-199343000D03*
%TO.P,J6,2,Pin_2*%
%TO.N,GND*%
X275950716Y-201843000D03*
%TO.P,J6,3,Pin_3*%
%TO.N,Net-(J6-Pad3)*%
X275950716Y-204343000D03*
%TD*%
D12*
%TO.P,J14,1,Pin_1*%
%TO.N,unconnected-(J14-Pad1)*%
X240339438Y-189665795D03*
%TO.P,J14,2,Pin_2*%
%TO.N,unconnected-(J14-Pad2)*%
X242135489Y-191461847D03*
%TO.P,J14,3,Pin_3*%
%TO.N,SPI_SCLK*%
X238543386Y-191461847D03*
%TO.P,J14,4,Pin_4*%
%TO.N,SPI_MISO*%
X240339438Y-193257898D03*
%TO.P,J14,5,Pin_5*%
%TO.N,SPI_MOSI*%
X236747335Y-193257898D03*
%TO.P,J14,6,Pin_6*%
%TO.N,GND*%
X238543386Y-195053949D03*
%TO.P,J14,7,Pin_7*%
%TO.N,unconnected-(J14-Pad7)*%
X234951284Y-195053949D03*
%TO.P,J14,8,Pin_8*%
%TO.N,unconnected-(J14-Pad8)*%
X236747335Y-196850000D03*
%TO.P,J14,9,Pin_9*%
%TO.N,unconnected-(J14-Pad9)*%
X233155233Y-196850000D03*
%TO.P,J14,10,Pin_10*%
%TO.N,+5V*%
X234951284Y-198646051D03*
%TO.P,J14,11,Pin_11*%
X231359182Y-198646051D03*
%TO.P,J14,12,Pin_12*%
%TO.N,GND*%
X233155233Y-200442103D03*
%TO.P,J14,13,Pin_13*%
X229563130Y-200442103D03*
%TO.P,J14,14,Pin_14*%
%TO.N,unconnected-(J14-Pad14)*%
X231359182Y-202238154D03*
%TO.P,J14,15,Pin_15*%
%TO.N,unconnected-(J14-Pad15)*%
X227767079Y-202238154D03*
%TO.P,J14,16,Pin_16*%
%TO.N,unconnected-(J14-Pad16)*%
X229563130Y-204034205D03*
%TD*%
D10*
%TO.P,U1,1,Vcc*%
%TO.N,+5V*%
X211185516Y-122174000D03*
%TO.P,U1,2,GND*%
%TO.N,GND*%
X211185516Y-124714000D03*
%TO.P,U1,3,SCL*%
%TO.N,I2C_SCL*%
X211185516Y-127254000D03*
%TO.P,U1,4,SDA*%
%TO.N,I2C_SDA*%
X211185516Y-129794000D03*
%TO.P,U1,5,Vin-*%
%TO.N,+12V*%
X211185516Y-132334000D03*
%TO.P,U1,6,Vin+*%
%TO.N,Net-(R10-Pad1)*%
X211185516Y-134874000D03*
%TD*%
D13*
%TO.P,U2,1,IN+*%
%TO.N,+12V*%
X239629526Y-136900000D03*
%TO.P,U2,2,IN-*%
%TO.N,GND*%
X239629526Y-119120000D03*
%TO.P,U2,3,OUT+*%
%TO.N,+5V*%
X280269526Y-136900000D03*
%TO.P,U2,4,OUT-*%
%TO.N,GND*%
X280269526Y-119120000D03*
%TD*%
D10*
%TO.P,R3,1*%
%TO.N,+5V*%
X283408716Y-155194000D03*
%TO.P,R3,2*%
%TO.N,Net-(J2-Pad3)*%
X283408716Y-165354000D03*
%TD*%
%TO.P,J2,1,Pin_1*%
%TO.N,MOTOR1_ENCODER*%
X275996716Y-159024000D03*
%TO.P,J2,2,Pin_2*%
%TO.N,GND*%
X275996716Y-161524000D03*
%TO.P,J2,3,Pin_3*%
%TO.N,Net-(J2-Pad3)*%
X275996716Y-164024000D03*
%TD*%
%TO.P,U3,1,PC10*%
%TO.N,MOTOR1_PWMN*%
X266462716Y-158750000D03*
%TO.P,U3,2,PC11*%
%TO.N,MOTOR1_ENCODER*%
X263922716Y-158750000D03*
%TO.P,U3,3,PC12*%
%TO.N,unconnected-(U3-Pad3)*%
X266462716Y-161290000D03*
%TO.P,U3,4,PD2*%
%TO.N,unconnected-(U3-Pad4)*%
X263922716Y-161290000D03*
%TO.P,U3,5,VDD*%
%TO.N,unconnected-(U3-Pad5)*%
X266462716Y-163830000D03*
%TO.P,U3,6,E5V*%
%TO.N,+5V*%
X263922716Y-163830000D03*
%TO.P,U3,7,BOOT0*%
%TO.N,unconnected-(U3-Pad7)*%
X266462716Y-166370000D03*
%TO.P,U3,8,GND*%
%TO.N,unconnected-(U3-Pad8)*%
X263922716Y-166370000D03*
%TO.P,U3,9,NC*%
%TO.N,unconnected-(U3-Pad9)*%
X266462716Y-168910000D03*
%TO.P,U3,10,NC*%
%TO.N,unconnected-(U3-Pad10)*%
X263922716Y-168910000D03*
%TO.P,U3,11,NC*%
%TO.N,unconnected-(U3-Pad11)*%
X266462716Y-171450000D03*
%TO.P,U3,12,IOREF*%
%TO.N,unconnected-(U3-Pad12)*%
X263922716Y-171450000D03*
%TO.P,U3,13,PA13*%
%TO.N,SWDIO*%
X266462716Y-173990000D03*
%TO.P,U3,14,RESET*%
%TO.N,unconnected-(U3-Pad14)*%
X263922716Y-173990000D03*
%TO.P,U3,15,PA14*%
%TO.N,SWCLK*%
X266462716Y-176530000D03*
%TO.P,U3,16,+3V3*%
%TO.N,+3V3*%
X263922716Y-176530000D03*
%TO.P,U3,17,PA15*%
%TO.N,MOTOR1_PWM*%
X266462716Y-179070000D03*
%TO.P,U3,18,+5V*%
%TO.N,+5V*%
X263922716Y-179070000D03*
%TO.P,U3,19,GND*%
%TO.N,GND*%
X266462716Y-181610000D03*
%TO.P,U3,20,GND*%
X263922716Y-181610000D03*
%TO.P,U3,21,PB7*%
%TO.N,unconnected-(U3-Pad21)*%
X266462716Y-184150000D03*
%TO.P,U3,22,GND*%
%TO.N,GND*%
X263922716Y-184150000D03*
%TO.P,U3,23,PC13*%
%TO.N,unconnected-(U3-Pad23)*%
X266462716Y-186690000D03*
%TO.P,U3,24,VIN*%
%TO.N,unconnected-(U3-Pad24)*%
X263922716Y-186690000D03*
%TO.P,U3,25,PC14*%
%TO.N,unconnected-(U3-Pad25)*%
X266462716Y-189230000D03*
%TO.P,U3,26,NC*%
%TO.N,unconnected-(U3-Pad26)*%
X263922716Y-189230000D03*
%TO.P,U3,27,PC15*%
%TO.N,MOTOR4_ENCODER*%
X266462716Y-191770000D03*
%TO.P,U3,28,PA0*%
%TO.N,unconnected-(U3-Pad28)*%
X263922716Y-191770000D03*
%TO.P,U3,29,PF0*%
%TO.N,unconnected-(U3-Pad29)*%
X266462716Y-194310000D03*
%TO.P,U3,30,PA1*%
%TO.N,MOTOR3_PWMN*%
X263922716Y-194310000D03*
%TO.P,U3,31,PF1*%
%TO.N,unconnected-(U3-Pad31)*%
X266462716Y-196850000D03*
%TO.P,U3,32,PA4*%
%TO.N,unconnected-(U3-Pad32)*%
X263922716Y-196850000D03*
%TO.P,U3,33,VBAT*%
%TO.N,unconnected-(U3-Pad33)*%
X266462716Y-199390000D03*
%TO.P,U3,34,PB0*%
%TO.N,unconnected-(U3-Pad34)*%
X263922716Y-199390000D03*
%TO.P,U3,35,PC2*%
%TO.N,unconnected-(U3-Pad35)*%
X266462716Y-201930000D03*
%TO.P,U3,36,PC1*%
%TO.N,unconnected-(U3-Pad36)*%
X263922716Y-201930000D03*
%TO.P,U3,37,PC3*%
%TO.N,unconnected-(U3-Pad37)*%
X266462716Y-204470000D03*
%TO.P,U3,38,PC0*%
%TO.N,MOTOR4_PWM*%
X263922716Y-204470000D03*
%TO.P,U3,39,PC9*%
%TO.N,unconnected-(U3-Pad39)*%
X205502716Y-158750000D03*
%TO.P,U3,40,PC8*%
%TO.N,MOTOR2_ENCODER*%
X202962716Y-158750000D03*
%TO.P,U3,41,PB8*%
%TO.N,I2C_SCL*%
X205502716Y-161290000D03*
%TO.P,U3,42,PC6*%
%TO.N,MOTOR3_ENCODER*%
X202962716Y-161290000D03*
%TO.P,U3,43,PB9*%
%TO.N,I2C_SDA*%
X205502716Y-163830000D03*
%TO.P,U3,44,PC5*%
%TO.N,Vbat*%
X202962716Y-163830000D03*
%TO.P,U3,45,AVDD*%
%TO.N,unconnected-(U3-Pad45)*%
X205502716Y-166370000D03*
%TO.P,U3,46,U5V*%
%TO.N,unconnected-(U3-Pad46)*%
X202962716Y-166370000D03*
%TO.P,U3,47,GND*%
%TO.N,GND*%
X205502716Y-168910000D03*
%TO.P,U3,48,NC*%
%TO.N,unconnected-(U3-Pad48)*%
X202962716Y-168910000D03*
%TO.P,U3,49,PA5*%
%TO.N,SPI_SCLK*%
X205502716Y-171450000D03*
%TO.P,U3,50,PA12*%
%TO.N,MOTOR2_PWM*%
X202962716Y-171450000D03*
%TO.P,U3,51,PA6*%
%TO.N,SPI_MISO*%
X205502716Y-173990000D03*
%TO.P,U3,52,PA11*%
%TO.N,unconnected-(U3-Pad52)*%
X202962716Y-173990000D03*
%TO.P,U3,53,PA7*%
%TO.N,SPI_MOSI*%
X205502716Y-176530000D03*
%TO.P,U3,54,PB12*%
%TO.N,unconnected-(U3-Pad54)*%
X202962716Y-176530000D03*
%TO.P,U3,55,PB6*%
%TO.N,MOTOR2_PWMN*%
X205502716Y-179070000D03*
%TO.P,U3,56,PB11*%
%TO.N,unconnected-(U3-Pad56)*%
X202962716Y-179070000D03*
%TO.P,U3,57,PC7*%
%TO.N,unconnected-(U3-Pad57)*%
X205502716Y-181610000D03*
%TO.P,U3,58,GND*%
%TO.N,unconnected-(U3-Pad58)*%
X202962716Y-181610000D03*
%TO.P,U3,59,PA9*%
%TO.N,unconnected-(U3-Pad59)*%
X205502716Y-184150000D03*
%TO.P,U3,60,PB2*%
%TO.N,unconnected-(U3-Pad60)*%
X202962716Y-184150000D03*
%TO.P,U3,61,PA8*%
%TO.N,unconnected-(U3-Pad61)*%
X205502716Y-186690000D03*
%TO.P,U3,62,PB1*%
%TO.N,unconnected-(U3-Pad62)*%
X202962716Y-186690000D03*
%TO.P,U3,63,PB10*%
%TO.N,unconnected-(U3-Pad63)*%
X205502716Y-189230000D03*
%TO.P,U3,64,PB15*%
%TO.N,unconnected-(U3-Pad64)*%
X202962716Y-189230000D03*
%TO.P,U3,65,PB4*%
%TO.N,unconnected-(U3-Pad65)*%
X205502716Y-191770000D03*
%TO.P,U3,66,PB14*%
%TO.N,MOTOR3_PWM*%
X202962716Y-191770000D03*
%TO.P,U3,67,PB5*%
%TO.N,unconnected-(U3-Pad67)*%
X205502716Y-194310000D03*
%TO.P,U3,68,PB13*%
%TO.N,MOTOR4_PWMN*%
X202962716Y-194310000D03*
%TO.P,U3,69,PB3*%
%TO.N,unconnected-(U3-Pad69)*%
X205502716Y-196850000D03*
%TO.P,U3,70,AGND*%
%TO.N,unconnected-(U3-Pad70)*%
X202962716Y-196850000D03*
%TO.P,U3,71,PA10*%
%TO.N,UART_RX*%
X205502716Y-199390000D03*
%TO.P,U3,72,PC4*%
%TO.N,UART_TX*%
X202962716Y-199390000D03*
%TO.P,U3,73,PA2*%
%TO.N,unconnected-(U3-Pad73)*%
X205502716Y-201930000D03*
%TO.P,U3,74,NC*%
%TO.N,unconnected-(U3-Pad74)*%
X202962716Y-201930000D03*
%TO.P,U3,75,PA3*%
%TO.N,unconnected-(U3-Pad75)*%
X205502716Y-204470000D03*
%TO.P,U3,76,NC*%
%TO.N,unconnected-(U3-Pad76)*%
X202962716Y-204470000D03*
%TD*%
D14*
%TO.P,C1,1*%
%TO.N,Vbat*%
X197516716Y-163830000D03*
%TO.P,C1,2*%
%TO.N,GND*%
X197516716Y-168830000D03*
%TD*%
D15*
%TO.N,+5V*%
X236822526Y-200500000D03*
X239422526Y-203200000D03*
%TO.N,GND*%
X239822526Y-200000000D03*
X242922526Y-202800000D03*
X259622526Y-155400000D03*
X267622526Y-155400000D03*
%TO.N,+12V*%
X207222526Y-132334000D03*
X200350716Y-132334000D03*
%TO.N,MOTOR2_PWMN*%
X212222526Y-196400000D03*
X212288716Y-206700000D03*
%TO.N,MOTOR3_PWMN*%
X258185526Y-201549000D03*
X258312526Y-205740000D03*
%TO.N,+5V*%
X275838526Y-135232800D03*
X237422526Y-125100000D03*
X275822526Y-131700000D03*
X241922526Y-125100000D03*
%TO.N,SPI_SCLK*%
X209322526Y-176100000D03*
X209240716Y-171196000D03*
%TO.N,Net-(R10-Pad1)*%
X194522526Y-134900000D03*
X207322526Y-134900000D03*
%TO.N,+3V3*%
X257822526Y-153800000D03*
X265822526Y-153670000D03*
%TD*%
D16*
%TO.N,+5V*%
X239422526Y-203200000D02*
X239422526Y-203100000D01*
X239422526Y-203100000D02*
X236822526Y-200500000D01*
D17*
%TO.N,GND*%
X240222526Y-200000000D02*
X242922526Y-202700000D01*
X239822526Y-200000000D02*
X240222526Y-200000000D01*
X242922526Y-202700000D02*
X242922526Y-202800000D01*
%TO.N,MOTOR2_PWMN*%
X212288716Y-196466190D02*
X212222526Y-196400000D01*
X212288716Y-206700000D02*
X212288716Y-196466190D01*
%TO.N,SPI_SCLK*%
X209322526Y-176100000D02*
X209240716Y-176018190D01*
X209240716Y-176018190D02*
X209240716Y-171196000D01*
D16*
%TO.N,+12V*%
X200350716Y-132334000D02*
X207222526Y-132334000D01*
%TO.N,Net-(R10-Pad1)*%
X207322526Y-134900000D02*
X207296526Y-134874000D01*
X207296526Y-134874000D02*
X194548526Y-134874000D01*
X194548526Y-134874000D02*
X194522526Y-134900000D01*
%TO.N,+5V*%
X237449726Y-125072800D02*
X237422526Y-125100000D01*
X241922526Y-125100000D02*
X241895326Y-125072800D01*
X241895326Y-125072800D02*
X237449726Y-125072800D01*
D17*
%TO.N,+3V3*%
X257822526Y-153800000D02*
X257952526Y-153670000D01*
X257952526Y-153670000D02*
X265822526Y-153670000D01*
D16*
%TO.N,GND*%
X259622526Y-155400000D02*
X267622526Y-155400000D01*
D17*
%TO.N,MOTOR3_PWMN*%
X258185526Y-201549000D02*
X258312526Y-201676000D01*
X258312526Y-201676000D02*
X258312526Y-205740000D01*
D16*
%TO.N,+5V*%
X275838526Y-135232800D02*
X275838526Y-131676800D01*
%TD*%
M02*
