M48
; DRILL file {KiCad (6.0.10)} date Fri Dec  1 11:32:12 2023
; FORMAT={-:-/ absolute / inch / decimal}
; #@! TF.CreationDate,2023-12-01T11:32:12-03:00
; #@! TF.GenerationSoftware,Kicad,Pcbnew,(6.0.10)
; #@! TF.FileFunction,MixedPlating,1,2
FMAT,2
INCH
; #@! TA.AperFunction,Plated,PTH,ViaDrill
T1C0.0197
; #@! TA.AperFunction,Plated,PTH,ComponentDrill
T2C0.0315
; #@! TA.AperFunction,Plated,PTH,ComponentDrill
T3C0.0354
; #@! TA.AperFunction,Plated,PTH,ComponentDrill
T4C0.0374
; #@! TA.AperFunction,Plated,PTH,ComponentDrill
T5C0.0394
; #@! TA.AperFunction,Plated,PTH,ViaDrill
T6C0.1181
%
G90
G05
T1
X0.091Y3.3884
X0.5226Y3.388
X0.7524Y3.8617
X0.7559Y4.1378
X1.0796Y2.6861
X1.1599Y2.7491
X1.1753Y3.6476
X1.1753Y3.3463
X1.5174Y0.6727
X1.5186Y0.9762
X1.5702Y2.7491
X1.6328Y2.6727
X2.0158Y0.7872
X2.0471Y4.3273
X2.1375Y0.9109
X2.1497Y0.7821
X2.284Y4.331
X2.2855Y0.9054
X3.1753Y3.4093
X3.1795Y0.7791
X3.1804Y0.4597
X3.2123Y2.7443
X3.3682Y1.866
X3.3714Y2.0491
X3.3977Y4.1444
X3.3977Y4.0444
X3.4981Y2.7412
X3.5769Y3.4093
X3.7168Y4.1444
X3.7777Y1.4016
X3.9462Y4.0434
X3.969Y1.4006
T2
X0.2079Y1.098
X0.2079Y0.698
X0.3214Y2.6891
X0.3214Y2.2891
X0.3379Y1.098
X0.3379Y0.698
X0.4514Y2.6891
X0.4514Y2.2891
X1.3406Y2.5491
X1.3816Y1.9483
X1.3816Y1.5483
X1.7406Y2.5491
X2.0109Y3.4485
X2.0109Y3.1485
X2.1109Y3.4485
X2.1109Y3.1485
X2.2109Y3.4485
X2.2109Y3.1485
X2.3109Y3.4485
X2.3109Y3.1485
X2.4109Y3.4485
X2.4109Y3.1485
X2.5109Y3.4485
X2.5109Y3.1485
X2.5454Y4.2617
X2.5454Y3.8617
X2.6109Y3.4485
X2.6109Y3.1485
X3.1729Y3.0707
X3.1729Y2.9016
X3.2898Y3.3288
X3.2898Y3.2048
X3.5729Y3.0707
X3.5729Y2.9016
X3.6898Y3.3288
X3.6898Y3.2048
X4.2495Y3.1091
X4.2495Y2.9791
X4.2495Y2.6591
X4.2497Y2.7891
X4.3474Y1.0964
X4.3474Y0.6964
X4.4714Y1.0964
X4.4714Y0.6964
X4.6495Y3.1091
X4.6495Y2.9791
X4.6495Y2.6591
X4.6497Y2.7891
T3
X3.2898Y4.5444
X3.2898Y4.4444
X3.2898Y4.3444
X3.2898Y4.2444
X3.2898Y4.1444
X3.2898Y4.0444
T4
X0.7013Y2.5385
X0.7013Y2.44
X0.7013Y2.3416
X0.7013Y0.9526
X0.7013Y0.8542
X0.7013Y0.7557
X4.0895Y2.5383
X4.0895Y2.4398
X4.0895Y2.3414
X4.0895Y0.9526
X4.0895Y0.8542
X4.0895Y0.7557
T5
X0.5704Y4.5617
X0.5704Y3.8617
X0.5818Y3.01
X0.6818Y3.01
X0.6895Y1.4093
X0.6895Y1.3093
X0.6913Y1.7194
X0.6913Y1.6194
X0.7031Y2.0585
X0.7031Y1.96
X0.7818Y3.01
X0.8818Y3.01
X1.1186Y2.5491
X1.1186Y2.4491
X1.1186Y2.3491
X1.1186Y2.2491
X1.1186Y2.1491
X1.1186Y2.0491
X1.1186Y1.9491
X1.1186Y1.8491
X1.1186Y1.7491
X1.1186Y1.6491
X1.1186Y1.5491
X1.1186Y1.4491
X1.1186Y1.3491
X1.1186Y1.2491
X1.1186Y1.1491
X1.1186Y1.0491
X1.1186Y0.9491
X1.1186Y0.8491
X1.1186Y0.7491
X1.2186Y2.5491
X1.2186Y2.4491
X1.2186Y2.3491
X1.2186Y2.2491
X1.2186Y2.1491
X1.2186Y2.0491
X1.2186Y1.9491
X1.2186Y1.8491
X1.2186Y1.7491
X1.2186Y1.6491
X1.2186Y1.5491
X1.2186Y1.4491
X1.2186Y1.3491
X1.2186Y1.2491
X1.2186Y1.1491
X1.2186Y1.0491
X1.2186Y0.9491
X1.2186Y0.8491
X1.2186Y0.7491
X1.4194Y3.2124
X1.4194Y3.1124
X1.4194Y3.0124
X2.0811Y1.2648
X2.1165Y0.4023
X2.1518Y1.3355
X2.1518Y1.1941
X2.1704Y4.5617
X2.1704Y3.8617
X2.2165Y0.4023
X2.2225Y1.2648
X2.2225Y1.1234
X2.2932Y1.1941
X2.2932Y1.0527
X2.3165Y0.4023
X2.3639Y1.1234
X2.3639Y0.982
X2.4165Y0.4023
X2.4346Y1.0527
X2.4346Y0.9113
X2.5053Y0.982
X2.5053Y0.8405
X2.5165Y0.4023
X2.5454Y4.5617
X2.5454Y4.4617
X2.5761Y0.9113
X2.5761Y0.7698
X2.6165Y0.4023
X2.6468Y0.8405
X2.9069Y4.5444
X3.0053Y4.5444
X3.5186Y2.5491
X3.5186Y2.4491
X3.5186Y2.3491
X3.5186Y2.2491
X3.5186Y2.1491
X3.5186Y2.0491
X3.5186Y1.9491
X3.5186Y1.8491
X3.5186Y1.7491
X3.5186Y1.6491
X3.5186Y1.5491
X3.5186Y1.4491
X3.5186Y1.3491
X3.5186Y1.2491
X3.5186Y1.1491
X3.5186Y1.0491
X3.5186Y0.9491
X3.5186Y0.8491
X3.5186Y0.7491
X3.6186Y2.5491
X3.6186Y2.4491
X3.6186Y2.3491
X3.6186Y2.2491
X3.6186Y2.1491
X3.6186Y2.0491
X3.6186Y1.9491
X3.6186Y1.8491
X3.6186Y1.7491
X3.6186Y1.6491
X3.6186Y1.5491
X3.6186Y1.4491
X3.6186Y1.3491
X3.6186Y1.2491
X3.6186Y1.1491
X3.6186Y1.0491
X3.6186Y0.9491
X3.6186Y0.8491
X3.6186Y0.7491
X3.833Y2.3491
X3.833Y2.1522
X4.1013Y1.7189
X4.1013Y1.6189
X4.1013Y1.4087
X4.1013Y1.3087
X4.1131Y2.0585
X4.1131Y1.9601
T6
X0.2362Y4.5983
X0.2362Y0.2362
X4.4981Y3.8148
X4.4981Y0.2362
T0
M30
