%TF.GenerationSoftware,KiCad,Pcbnew,(6.0.10)*%
%TF.CreationDate,2023-12-01T10:25:26-03:00*%
%TF.ProjectId,ProyectoFinal_v4,50726f79-6563-4746-9f46-696e616c5f76,rev?*%
%TF.SameCoordinates,PX10f9d282PYd052140*%
%TF.FileFunction,Drillmap*%
%TF.FilePolarity,Positive*%
%FSLAX45Y45*%
G04 Gerber Fmt 4.5, Leading zero omitted, Abs format (unit mm)*
G04 Created by KiCad (PCBNEW (6.0.10)) date 2023-12-01 10:25:26*
%MOMM*%
%LPD*%
G01*
G04 APERTURE LIST*
%ADD10C,0.150000*%
%ADD11C,0.100000*%
%ADD12C,0.200000*%
%ADD13C,0.040000*%
%ADD14C,0.070000*%
%ADD15C,0.080000*%
%ADD16C,0.090000*%
%ADD17C,0.095000*%
G04 APERTURE END LIST*
D10*
X641000Y-505600D02*
X-11436000Y-505600D01*
X-11436000Y-505600D02*
X-11436000Y11778000D01*
X-11436000Y11778000D02*
X641000Y11778000D01*
X641000Y11778000D02*
X641000Y-505600D01*
D11*
X-10529800Y11182130D02*
G75*
G03*
X-10529800Y11182130I-150000J0D01*
G01*
X150000Y0D02*
G75*
G03*
X150000Y0I-150000J0D01*
G01*
X-10495000Y0D02*
G75*
G03*
X-10495000Y0I-150000J0D01*
G01*
X166219Y9173000D02*
G75*
G03*
X166219Y9173000I-150000J0D01*
G01*
D12*
D13*
X-11224781Y8121000D02*
X-11184781Y8081000D01*
X-11184781Y8121000D02*
X-11224781Y8081000D01*
X-10132781Y8124000D02*
X-10092781Y8084000D01*
X-10092781Y8124000D02*
X-10132781Y8084000D01*
X-1830781Y3070000D02*
X-1790781Y3030000D01*
X-1790781Y3070000D02*
X-1830781Y3030000D01*
X-1374781Y3072000D02*
X-1334781Y3032000D01*
X-1334781Y3072000D02*
X-1374781Y3032000D01*
D14*
X-9489781Y9972000D02*
G75*
G03*
X-9489781Y9972000I-35000J0D01*
G01*
X-9489781Y9303130D02*
G75*
G03*
X-9489781Y9303130I-35000J0D01*
G01*
X-8658781Y6317000D02*
G75*
G03*
X-8658781Y6317000I-35000J0D01*
G01*
X-8454781Y6477000D02*
G75*
G03*
X-8454781Y6477000I-35000J0D01*
G01*
X-8415781Y8644000D02*
G75*
G03*
X-8415781Y8644000I-35000J0D01*
G01*
X-8415781Y7994000D02*
G75*
G03*
X-8415781Y7994000I-35000J0D01*
G01*
X-7546781Y1203000D02*
G75*
G03*
X-7546781Y1203000I-35000J0D01*
G01*
X-7543781Y1974000D02*
G75*
G03*
X-7543781Y1974000I-35000J0D01*
G01*
X-7412781Y6477000D02*
G75*
G03*
X-7412781Y6477000I-35000J0D01*
G01*
X-7253781Y6283000D02*
G75*
G03*
X-7253781Y6283000I-35000J0D01*
G01*
X-6280781Y1494000D02*
G75*
G03*
X-6280781Y1494000I-35000J0D01*
G01*
X-6201367Y10485850D02*
G75*
G03*
X-6201367Y10485850I-35000J0D01*
G01*
X-5971781Y1808000D02*
G75*
G03*
X-5971781Y1808000I-35000J0D01*
G01*
X-5940781Y1481000D02*
G75*
G03*
X-5940781Y1481000I-35000J0D01*
G01*
X-5599581Y10495130D02*
G75*
G03*
X-5599581Y10495130I-35000J0D01*
G01*
X-5595781Y1794000D02*
G75*
G03*
X-5595781Y1794000I-35000J0D01*
G01*
X-3335781Y8154000D02*
G75*
G03*
X-3335781Y8154000I-35000J0D01*
G01*
X-3325181Y1473200D02*
G75*
G03*
X-3325181Y1473200I-35000J0D01*
G01*
X-3322781Y662000D02*
G75*
G03*
X-3322781Y662000I-35000J0D01*
G01*
X-3241781Y6465000D02*
G75*
G03*
X-3241781Y6465000I-35000J0D01*
G01*
X-2845781Y4234000D02*
G75*
G03*
X-2845781Y4234000I-35000J0D01*
G01*
X-2837600Y4699000D02*
G75*
G03*
X-2837600Y4699000I-35000J0D01*
G01*
X-2770781Y10021130D02*
G75*
G03*
X-2770781Y10021130I-35000J0D01*
G01*
X-2770781Y9767130D02*
G75*
G03*
X-2770781Y9767130I-35000J0D01*
G01*
X-2515781Y6457000D02*
G75*
G03*
X-2515781Y6457000I-35000J0D01*
G01*
X-2315781Y8154000D02*
G75*
G03*
X-2315781Y8154000I-35000J0D01*
G01*
X-1960400Y10021130D02*
G75*
G03*
X-1960400Y10021130I-35000J0D01*
G01*
X-1377581Y9764530D02*
G75*
G03*
X-1377581Y9764530I-35000J0D01*
G01*
D15*
X-10907891Y2323210D02*
X-10907891Y2243210D01*
X-10947891Y2283210D02*
X-10867891Y2283210D01*
X-10907891Y1307210D02*
X-10907891Y1227210D01*
X-10947891Y1267210D02*
X-10867891Y1267210D01*
X-10619600Y6364600D02*
X-10619600Y6284600D01*
X-10659600Y6324600D02*
X-10579600Y6324600D01*
X-10619600Y5348600D02*
X-10619600Y5268600D01*
X-10659600Y5308600D02*
X-10579600Y5308600D01*
X-10577691Y2323210D02*
X-10577691Y2243210D01*
X-10617691Y2283210D02*
X-10537691Y2283210D01*
X-10577691Y1307210D02*
X-10577691Y1227210D01*
X-10617691Y1267210D02*
X-10537691Y1267210D01*
X-10289400Y6364600D02*
X-10289400Y6284600D01*
X-10329400Y6324600D02*
X-10249400Y6324600D01*
X-10289400Y5348600D02*
X-10289400Y5268600D01*
X-10329400Y5308600D02*
X-10249400Y5308600D01*
X-8030781Y6009000D02*
X-8030781Y5929000D01*
X-8070781Y5969000D02*
X-7990781Y5969000D01*
X-7926781Y4483000D02*
X-7926781Y4403000D01*
X-7966781Y4443000D02*
X-7886781Y4443000D01*
X-7926781Y3467000D02*
X-7926781Y3387000D01*
X-7966781Y3427000D02*
X-7886781Y3427000D01*
X-7014781Y6009000D02*
X-7014781Y5929000D01*
X-7054781Y5969000D02*
X-6974781Y5969000D01*
X-6328281Y8293500D02*
X-6328281Y8213500D01*
X-6368281Y8253500D02*
X-6288281Y8253500D01*
X-6328281Y7531500D02*
X-6328281Y7451500D01*
X-6368281Y7491500D02*
X-6288281Y7491500D01*
X-6074281Y8293500D02*
X-6074281Y8213500D01*
X-6114281Y8253500D02*
X-6034281Y8253500D01*
X-6074281Y7531500D02*
X-6074281Y7451500D01*
X-6114281Y7491500D02*
X-6034281Y7491500D01*
X-5820281Y8293500D02*
X-5820281Y8213500D01*
X-5860281Y8253500D02*
X-5780281Y8253500D01*
X-5820281Y7531500D02*
X-5820281Y7451500D01*
X-5860281Y7491500D02*
X-5780281Y7491500D01*
X-5566281Y8293500D02*
X-5566281Y8213500D01*
X-5606281Y8253500D02*
X-5526281Y8253500D01*
X-5566281Y7531500D02*
X-5566281Y7451500D01*
X-5606281Y7491500D02*
X-5526281Y7491500D01*
X-5312281Y8293500D02*
X-5312281Y8213500D01*
X-5352281Y8253500D02*
X-5272281Y8253500D01*
X-5312281Y7531500D02*
X-5312281Y7451500D01*
X-5352281Y7491500D02*
X-5272281Y7491500D01*
X-5058281Y8293500D02*
X-5058281Y8213500D01*
X-5098281Y8253500D02*
X-5018281Y8253500D01*
X-5058281Y7531500D02*
X-5058281Y7451500D01*
X-5098281Y7491500D02*
X-5018281Y7491500D01*
X-4970781Y10359130D02*
X-4970781Y10279130D01*
X-5010781Y10319130D02*
X-4930781Y10319130D01*
X-4970781Y9343130D02*
X-4970781Y9263130D01*
X-5010781Y9303130D02*
X-4930781Y9303130D01*
X-4804281Y8293500D02*
X-4804281Y8213500D01*
X-4844281Y8253500D02*
X-4764281Y8253500D01*
X-4804281Y7531500D02*
X-4804281Y7451500D01*
X-4844281Y7491500D02*
X-4764281Y7491500D01*
X-3376781Y7334000D02*
X-3376781Y7254000D01*
X-3416781Y7294000D02*
X-3336781Y7294000D01*
X-3376781Y6914000D02*
X-3376781Y6834000D01*
X-3416781Y6874000D02*
X-3336781Y6874000D01*
X-3079881Y7989572D02*
X-3079881Y7909572D01*
X-3119881Y7949572D02*
X-3039881Y7949572D01*
X-3079881Y7674572D02*
X-3079881Y7594572D01*
X-3119881Y7634572D02*
X-3039881Y7634572D01*
X-2360781Y7334000D02*
X-2360781Y7254000D01*
X-2400781Y7294000D02*
X-2320781Y7294000D01*
X-2360781Y6914000D02*
X-2360781Y6834000D01*
X-2400781Y6874000D02*
X-2320781Y6874000D01*
X-2063881Y7989572D02*
X-2063881Y7909572D01*
X-2103881Y7949572D02*
X-2023881Y7949572D01*
X-2063881Y7674572D02*
X-2063881Y7594572D01*
X-2103881Y7634572D02*
X-2023881Y7634572D01*
X-1700200Y5501000D02*
X-1700200Y5421000D01*
X-1740200Y5461000D02*
X-1660200Y5461000D01*
X-1700200Y5001000D02*
X-1700200Y4921000D01*
X-1740200Y4961000D02*
X-1660200Y4961000D01*
X-642381Y7431400D02*
X-642381Y7351400D01*
X-682381Y7391400D02*
X-602381Y7391400D01*
X-642381Y7101200D02*
X-642381Y7021200D01*
X-682381Y7061200D02*
X-602381Y7061200D01*
X-642381Y6288400D02*
X-642381Y6208400D01*
X-682381Y6248400D02*
X-602381Y6248400D01*
X-641781Y6618600D02*
X-641781Y6538600D01*
X-681781Y6578600D02*
X-601781Y6578600D01*
X-393560Y2319300D02*
X-393560Y2239300D01*
X-433560Y2279300D02*
X-353560Y2279300D01*
X-393560Y1303300D02*
X-393560Y1223300D01*
X-433560Y1263300D02*
X-353560Y1263300D01*
X-78600Y2319300D02*
X-78600Y2239300D01*
X-118600Y2279300D02*
X-38600Y2279300D01*
X-78600Y1303300D02*
X-78600Y1223300D01*
X-118600Y1263300D02*
X-38600Y1263300D01*
X373619Y7431400D02*
X373619Y7351400D01*
X333619Y7391400D02*
X413619Y7391400D01*
X373619Y7101200D02*
X373619Y7021200D01*
X333619Y7061200D02*
X413619Y7061200D01*
X373619Y6288400D02*
X373619Y6208400D01*
X333619Y6248400D02*
X413619Y6248400D01*
X374219Y6618600D02*
X374219Y6538600D01*
X334219Y6578600D02*
X414219Y6578600D01*
D16*
X-4938961Y11049310D02*
X-4938961Y11112950D01*
X-5002601Y11112950D01*
X-5002601Y11049310D01*
X-4938961Y11049310D01*
X-4938961Y10795310D02*
X-4938961Y10858950D01*
X-5002601Y10858950D01*
X-5002601Y10795310D01*
X-4938961Y10795310D01*
X-3048061Y11005310D02*
X-3048061Y11068950D01*
X-3111701Y11068950D01*
X-3111701Y11005310D01*
X-3048061Y11005310D01*
X-3048061Y10751310D02*
X-3048061Y10814950D01*
X-3111701Y10814950D01*
X-3111701Y10751310D01*
X-3048061Y10751310D01*
X-3048061Y10497310D02*
X-3048061Y10560950D01*
X-3111701Y10560950D01*
X-3111701Y10497310D01*
X-3048061Y10497310D01*
X-3048061Y10243310D02*
X-3048061Y10306950D01*
X-3111701Y10306950D01*
X-3111701Y10243310D01*
X-3048061Y10243310D01*
X-3048061Y9989310D02*
X-3048061Y10052950D01*
X-3111701Y10052950D01*
X-3111701Y9989310D01*
X-3048061Y9989310D01*
X-3048061Y9735310D02*
X-3048061Y9798950D01*
X-3111701Y9798950D01*
X-3111701Y9735310D01*
X-3048061Y9735310D01*
D17*
X-9654781Y5894600D02*
X-9607281Y5942100D01*
X-9654781Y5989600D01*
X-9702281Y5942100D01*
X-9654781Y5894600D01*
X-9654781Y5644600D02*
X-9607281Y5692100D01*
X-9654781Y5739600D01*
X-9702281Y5692100D01*
X-9654781Y5644600D01*
X-9654781Y5394600D02*
X-9607281Y5442100D01*
X-9654781Y5489600D01*
X-9702281Y5442100D01*
X-9654781Y5394600D01*
X-9654781Y1866500D02*
X-9607281Y1914000D01*
X-9654781Y1961500D01*
X-9702281Y1914000D01*
X-9654781Y1866500D01*
X-9654781Y1616500D02*
X-9607281Y1664000D01*
X-9654781Y1711500D01*
X-9702281Y1664000D01*
X-9654781Y1616500D01*
X-9654781Y1366500D02*
X-9607281Y1414000D01*
X-9654781Y1461500D01*
X-9702281Y1414000D01*
X-9654781Y1366500D01*
X-1048781Y5894100D02*
X-1001281Y5941600D01*
X-1048781Y5989100D01*
X-1096281Y5941600D01*
X-1048781Y5894100D01*
X-1048781Y5644100D02*
X-1001281Y5691600D01*
X-1048781Y5739100D01*
X-1096281Y5691600D01*
X-1048781Y5644100D01*
X-1048781Y5394100D02*
X-1001281Y5441600D01*
X-1048781Y5489100D01*
X-1096281Y5441600D01*
X-1048781Y5394100D01*
X-1048781Y1866500D02*
X-1001281Y1914000D01*
X-1048781Y1961500D01*
X-1096281Y1914000D01*
X-1048781Y1866500D01*
X-1048781Y1616500D02*
X-1001281Y1664000D01*
X-1048781Y1711500D01*
X-1096281Y1664000D01*
X-1048781Y1616500D01*
X-1048781Y1366500D02*
X-1001281Y1414000D01*
X-1048781Y1461500D01*
X-1096281Y1414000D01*
X-1048781Y1366500D01*
D11*
X-10037281Y11131130D02*
X-9937281Y11031130D01*
X-9937281Y11131130D02*
X-10037281Y11031130D01*
X-9937281Y11081130D02*
G75*
G03*
X-9937281Y11081130I-50000J0D01*
G01*
X-10037281Y9353130D02*
X-9937281Y9253130D01*
X-9937281Y9353130D02*
X-10037281Y9253130D01*
X-9937281Y9303130D02*
G75*
G03*
X-9937281Y9303130I-50000J0D01*
G01*
X-10008200Y7189900D02*
X-9908200Y7089900D01*
X-9908200Y7189900D02*
X-10008200Y7089900D01*
X-9908200Y7139900D02*
G75*
G03*
X-9908200Y7139900I-50000J0D01*
G01*
X-9754200Y7189900D02*
X-9654200Y7089900D01*
X-9654200Y7189900D02*
X-9754200Y7089900D01*
X-9654200Y7139900D02*
G75*
G03*
X-9654200Y7139900I-50000J0D01*
G01*
X-9734781Y3123900D02*
X-9634781Y3023900D01*
X-9634781Y3123900D02*
X-9734781Y3023900D01*
X-9634781Y3073900D02*
G75*
G03*
X-9634781Y3073900I-50000J0D01*
G01*
X-9734781Y2869900D02*
X-9634781Y2769900D01*
X-9634781Y2869900D02*
X-9734781Y2769900D01*
X-9634781Y2819900D02*
G75*
G03*
X-9634781Y2819900I-50000J0D01*
G01*
X-9730181Y3911800D02*
X-9630181Y3811800D01*
X-9630181Y3911800D02*
X-9730181Y3811800D01*
X-9630181Y3861800D02*
G75*
G03*
X-9630181Y3861800I-50000J0D01*
G01*
X-9730181Y3657800D02*
X-9630181Y3557800D01*
X-9630181Y3657800D02*
X-9730181Y3557800D01*
X-9630181Y3607800D02*
G75*
G03*
X-9630181Y3607800I-50000J0D01*
G01*
X-9700181Y4772900D02*
X-9600181Y4672900D01*
X-9600181Y4772900D02*
X-9700181Y4672900D01*
X-9600181Y4722900D02*
G75*
G03*
X-9600181Y4722900I-50000J0D01*
G01*
X-9700181Y4522900D02*
X-9600181Y4422900D01*
X-9600181Y4522900D02*
X-9700181Y4422900D01*
X-9600181Y4472900D02*
G75*
G03*
X-9600181Y4472900I-50000J0D01*
G01*
X-9500200Y7189900D02*
X-9400200Y7089900D01*
X-9400200Y7189900D02*
X-9500200Y7089900D01*
X-9400200Y7139900D02*
G75*
G03*
X-9400200Y7139900I-50000J0D01*
G01*
X-9246200Y7189900D02*
X-9146200Y7089900D01*
X-9146200Y7189900D02*
X-9246200Y7089900D01*
X-9146200Y7139900D02*
G75*
G03*
X-9146200Y7139900I-50000J0D01*
G01*
X-8644781Y6019000D02*
X-8544781Y5919000D01*
X-8544781Y6019000D02*
X-8644781Y5919000D01*
X-8544781Y5969000D02*
G75*
G03*
X-8544781Y5969000I-50000J0D01*
G01*
X-8644781Y5765000D02*
X-8544781Y5665000D01*
X-8544781Y5765000D02*
X-8644781Y5665000D01*
X-8544781Y5715000D02*
G75*
G03*
X-8544781Y5715000I-50000J0D01*
G01*
X-8644781Y5511000D02*
X-8544781Y5411000D01*
X-8544781Y5511000D02*
X-8644781Y5411000D01*
X-8544781Y5461000D02*
G75*
G03*
X-8544781Y5461000I-50000J0D01*
G01*
X-8644781Y5257000D02*
X-8544781Y5157000D01*
X-8544781Y5257000D02*
X-8644781Y5157000D01*
X-8544781Y5207000D02*
G75*
G03*
X-8544781Y5207000I-50000J0D01*
G01*
X-8644781Y5003000D02*
X-8544781Y4903000D01*
X-8544781Y5003000D02*
X-8644781Y4903000D01*
X-8544781Y4953000D02*
G75*
G03*
X-8544781Y4953000I-50000J0D01*
G01*
X-8644781Y4749000D02*
X-8544781Y4649000D01*
X-8544781Y4749000D02*
X-8644781Y4649000D01*
X-8544781Y4699000D02*
G75*
G03*
X-8544781Y4699000I-50000J0D01*
G01*
X-8644781Y4495000D02*
X-8544781Y4395000D01*
X-8544781Y4495000D02*
X-8644781Y4395000D01*
X-8544781Y4445000D02*
G75*
G03*
X-8544781Y4445000I-50000J0D01*
G01*
X-8644781Y4241000D02*
X-8544781Y4141000D01*
X-8544781Y4241000D02*
X-8644781Y4141000D01*
X-8544781Y4191000D02*
G75*
G03*
X-8544781Y4191000I-50000J0D01*
G01*
X-8644781Y3987000D02*
X-8544781Y3887000D01*
X-8544781Y3987000D02*
X-8644781Y3887000D01*
X-8544781Y3937000D02*
G75*
G03*
X-8544781Y3937000I-50000J0D01*
G01*
X-8644781Y3733000D02*
X-8544781Y3633000D01*
X-8544781Y3733000D02*
X-8644781Y3633000D01*
X-8544781Y3683000D02*
G75*
G03*
X-8544781Y3683000I-50000J0D01*
G01*
X-8644781Y3479000D02*
X-8544781Y3379000D01*
X-8544781Y3479000D02*
X-8644781Y3379000D01*
X-8544781Y3429000D02*
G75*
G03*
X-8544781Y3429000I-50000J0D01*
G01*
X-8644781Y3225000D02*
X-8544781Y3125000D01*
X-8544781Y3225000D02*
X-8644781Y3125000D01*
X-8544781Y3175000D02*
G75*
G03*
X-8544781Y3175000I-50000J0D01*
G01*
X-8644781Y2971000D02*
X-8544781Y2871000D01*
X-8544781Y2971000D02*
X-8644781Y2871000D01*
X-8544781Y2921000D02*
G75*
G03*
X-8544781Y2921000I-50000J0D01*
G01*
X-8644781Y2717000D02*
X-8544781Y2617000D01*
X-8544781Y2717000D02*
X-8644781Y2617000D01*
X-8544781Y2667000D02*
G75*
G03*
X-8544781Y2667000I-50000J0D01*
G01*
X-8644781Y2463000D02*
X-8544781Y2363000D01*
X-8544781Y2463000D02*
X-8644781Y2363000D01*
X-8544781Y2413000D02*
G75*
G03*
X-8544781Y2413000I-50000J0D01*
G01*
X-8644781Y2209000D02*
X-8544781Y2109000D01*
X-8544781Y2209000D02*
X-8644781Y2109000D01*
X-8544781Y2159000D02*
G75*
G03*
X-8544781Y2159000I-50000J0D01*
G01*
X-8644781Y1955000D02*
X-8544781Y1855000D01*
X-8544781Y1955000D02*
X-8644781Y1855000D01*
X-8544781Y1905000D02*
G75*
G03*
X-8544781Y1905000I-50000J0D01*
G01*
X-8644781Y1701000D02*
X-8544781Y1601000D01*
X-8544781Y1701000D02*
X-8644781Y1601000D01*
X-8544781Y1651000D02*
G75*
G03*
X-8544781Y1651000I-50000J0D01*
G01*
X-8644781Y1447000D02*
X-8544781Y1347000D01*
X-8544781Y1447000D02*
X-8644781Y1347000D01*
X-8544781Y1397000D02*
G75*
G03*
X-8544781Y1397000I-50000J0D01*
G01*
X-8390781Y6019000D02*
X-8290781Y5919000D01*
X-8290781Y6019000D02*
X-8390781Y5919000D01*
X-8290781Y5969000D02*
G75*
G03*
X-8290781Y5969000I-50000J0D01*
G01*
X-8390781Y5765000D02*
X-8290781Y5665000D01*
X-8290781Y5765000D02*
X-8390781Y5665000D01*
X-8290781Y5715000D02*
G75*
G03*
X-8290781Y5715000I-50000J0D01*
G01*
X-8390781Y5511000D02*
X-8290781Y5411000D01*
X-8290781Y5511000D02*
X-8390781Y5411000D01*
X-8290781Y5461000D02*
G75*
G03*
X-8290781Y5461000I-50000J0D01*
G01*
X-8390781Y5257000D02*
X-8290781Y5157000D01*
X-8290781Y5257000D02*
X-8390781Y5157000D01*
X-8290781Y5207000D02*
G75*
G03*
X-8290781Y5207000I-50000J0D01*
G01*
X-8390781Y5003000D02*
X-8290781Y4903000D01*
X-8290781Y5003000D02*
X-8390781Y4903000D01*
X-8290781Y4953000D02*
G75*
G03*
X-8290781Y4953000I-50000J0D01*
G01*
X-8390781Y4749000D02*
X-8290781Y4649000D01*
X-8290781Y4749000D02*
X-8390781Y4649000D01*
X-8290781Y4699000D02*
G75*
G03*
X-8290781Y4699000I-50000J0D01*
G01*
X-8390781Y4495000D02*
X-8290781Y4395000D01*
X-8290781Y4495000D02*
X-8390781Y4395000D01*
X-8290781Y4445000D02*
G75*
G03*
X-8290781Y4445000I-50000J0D01*
G01*
X-8390781Y4241000D02*
X-8290781Y4141000D01*
X-8290781Y4241000D02*
X-8390781Y4141000D01*
X-8290781Y4191000D02*
G75*
G03*
X-8290781Y4191000I-50000J0D01*
G01*
X-8390781Y3987000D02*
X-8290781Y3887000D01*
X-8290781Y3987000D02*
X-8390781Y3887000D01*
X-8290781Y3937000D02*
G75*
G03*
X-8290781Y3937000I-50000J0D01*
G01*
X-8390781Y3733000D02*
X-8290781Y3633000D01*
X-8290781Y3733000D02*
X-8390781Y3633000D01*
X-8290781Y3683000D02*
G75*
G03*
X-8290781Y3683000I-50000J0D01*
G01*
X-8390781Y3479000D02*
X-8290781Y3379000D01*
X-8290781Y3479000D02*
X-8390781Y3379000D01*
X-8290781Y3429000D02*
G75*
G03*
X-8290781Y3429000I-50000J0D01*
G01*
X-8390781Y3225000D02*
X-8290781Y3125000D01*
X-8290781Y3225000D02*
X-8390781Y3125000D01*
X-8290781Y3175000D02*
G75*
G03*
X-8290781Y3175000I-50000J0D01*
G01*
X-8390781Y2971000D02*
X-8290781Y2871000D01*
X-8290781Y2971000D02*
X-8390781Y2871000D01*
X-8290781Y2921000D02*
G75*
G03*
X-8290781Y2921000I-50000J0D01*
G01*
X-8390781Y2717000D02*
X-8290781Y2617000D01*
X-8290781Y2717000D02*
X-8390781Y2617000D01*
X-8290781Y2667000D02*
G75*
G03*
X-8290781Y2667000I-50000J0D01*
G01*
X-8390781Y2463000D02*
X-8290781Y2363000D01*
X-8290781Y2463000D02*
X-8390781Y2363000D01*
X-8290781Y2413000D02*
G75*
G03*
X-8290781Y2413000I-50000J0D01*
G01*
X-8390781Y2209000D02*
X-8290781Y2109000D01*
X-8290781Y2209000D02*
X-8390781Y2109000D01*
X-8290781Y2159000D02*
G75*
G03*
X-8290781Y2159000I-50000J0D01*
G01*
X-8390781Y1955000D02*
X-8290781Y1855000D01*
X-8290781Y1955000D02*
X-8390781Y1855000D01*
X-8290781Y1905000D02*
G75*
G03*
X-8290781Y1905000I-50000J0D01*
G01*
X-8390781Y1701000D02*
X-8290781Y1601000D01*
X-8290781Y1701000D02*
X-8390781Y1601000D01*
X-8290781Y1651000D02*
G75*
G03*
X-8290781Y1651000I-50000J0D01*
G01*
X-8390781Y1447000D02*
X-8290781Y1347000D01*
X-8290781Y1447000D02*
X-8390781Y1347000D01*
X-8290781Y1397000D02*
G75*
G03*
X-8290781Y1397000I-50000J0D01*
G01*
X-7880781Y7704000D02*
X-7780781Y7604000D01*
X-7780781Y7704000D02*
X-7880781Y7604000D01*
X-7780781Y7654000D02*
G75*
G03*
X-7780781Y7654000I-50000J0D01*
G01*
X-7880781Y7450000D02*
X-7780781Y7350000D01*
X-7780781Y7450000D02*
X-7880781Y7350000D01*
X-7780781Y7400000D02*
G75*
G03*
X-7780781Y7400000I-50000J0D01*
G01*
X-7880781Y7196000D02*
X-7780781Y7096000D01*
X-7780781Y7196000D02*
X-7880781Y7096000D01*
X-7780781Y7146000D02*
G75*
G03*
X-7780781Y7146000I-50000J0D01*
G01*
X-6212077Y2747815D02*
X-6112077Y2647815D01*
X-6112077Y2747815D02*
X-6212077Y2647815D01*
X-6112077Y2697815D02*
G75*
G03*
X-6112077Y2697815I-50000J0D01*
G01*
X-6110090Y566200D02*
X-6010090Y466200D01*
X-6010090Y566200D02*
X-6110090Y466200D01*
X-6010090Y516200D02*
G75*
G03*
X-6010090Y516200I-50000J0D01*
G01*
X-6032472Y2927420D02*
X-5932472Y2827420D01*
X-5932472Y2927420D02*
X-6032472Y2827420D01*
X-5932472Y2877420D02*
G75*
G03*
X-5932472Y2877420I-50000J0D01*
G01*
X-6032472Y2568210D02*
X-5932472Y2468210D01*
X-5932472Y2568210D02*
X-6032472Y2468210D01*
X-5932472Y2518210D02*
G75*
G03*
X-5932472Y2518210I-50000J0D01*
G01*
X-5973281Y11131130D02*
X-5873281Y11031130D01*
X-5873281Y11131130D02*
X-5973281Y11031130D01*
X-5873281Y11081130D02*
G75*
G03*
X-5873281Y11081130I-50000J0D01*
G01*
X-5973281Y9353130D02*
X-5873281Y9253130D01*
X-5873281Y9353130D02*
X-5973281Y9253130D01*
X-5873281Y9303130D02*
G75*
G03*
X-5873281Y9303130I-50000J0D01*
G01*
X-5856090Y566200D02*
X-5756090Y466200D01*
X-5756090Y566200D02*
X-5856090Y466200D01*
X-5756090Y516200D02*
G75*
G03*
X-5756090Y516200I-50000J0D01*
G01*
X-5852867Y2747815D02*
X-5752867Y2647815D01*
X-5752867Y2747815D02*
X-5852867Y2647815D01*
X-5752867Y2697815D02*
G75*
G03*
X-5752867Y2697815I-50000J0D01*
G01*
X-5852867Y2388605D02*
X-5752867Y2288605D01*
X-5752867Y2388605D02*
X-5852867Y2288605D01*
X-5752867Y2338605D02*
G75*
G03*
X-5752867Y2338605I-50000J0D01*
G01*
X-5673262Y2568210D02*
X-5573262Y2468210D01*
X-5573262Y2568210D02*
X-5673262Y2468210D01*
X-5573262Y2518210D02*
G75*
G03*
X-5573262Y2518210I-50000J0D01*
G01*
X-5673262Y2209000D02*
X-5573262Y2109000D01*
X-5573262Y2209000D02*
X-5673262Y2109000D01*
X-5573262Y2159000D02*
G75*
G03*
X-5573262Y2159000I-50000J0D01*
G01*
X-5602090Y566200D02*
X-5502091Y466200D01*
X-5502091Y566200D02*
X-5602090Y466200D01*
X-5502091Y516200D02*
G75*
G03*
X-5502091Y516200I-50000J0D01*
G01*
X-5493657Y2388605D02*
X-5393657Y2288605D01*
X-5393657Y2388605D02*
X-5493657Y2288605D01*
X-5393657Y2338605D02*
G75*
G03*
X-5393657Y2338605I-50000J0D01*
G01*
X-5493657Y2029395D02*
X-5393657Y1929395D01*
X-5393657Y2029395D02*
X-5493657Y1929395D01*
X-5393657Y1979395D02*
G75*
G03*
X-5393657Y1979395I-50000J0D01*
G01*
X-5348091Y566200D02*
X-5248091Y466200D01*
X-5248091Y566200D02*
X-5348091Y466200D01*
X-5248091Y516200D02*
G75*
G03*
X-5248091Y516200I-50000J0D01*
G01*
X-5314052Y2209000D02*
X-5214052Y2109000D01*
X-5214052Y2209000D02*
X-5314052Y2109000D01*
X-5214052Y2159000D02*
G75*
G03*
X-5214052Y2159000I-50000J0D01*
G01*
X-5314052Y1849790D02*
X-5214052Y1749790D01*
X-5214052Y1849790D02*
X-5314052Y1749790D01*
X-5214052Y1799790D02*
G75*
G03*
X-5214052Y1799790I-50000J0D01*
G01*
X-5134447Y2029395D02*
X-5034447Y1929395D01*
X-5034447Y2029395D02*
X-5134447Y1929395D01*
X-5034447Y1979395D02*
G75*
G03*
X-5034447Y1979395I-50000J0D01*
G01*
X-5134447Y1670185D02*
X-5034447Y1570185D01*
X-5034447Y1670185D02*
X-5134447Y1570185D01*
X-5034447Y1620185D02*
G75*
G03*
X-5034447Y1620185I-50000J0D01*
G01*
X-5094091Y566200D02*
X-4994091Y466200D01*
X-4994091Y566200D02*
X-5094091Y466200D01*
X-4994091Y516200D02*
G75*
G03*
X-4994091Y516200I-50000J0D01*
G01*
X-4954841Y1849790D02*
X-4854841Y1749790D01*
X-4854841Y1849790D02*
X-4954841Y1749790D01*
X-4854841Y1799790D02*
G75*
G03*
X-4854841Y1799790I-50000J0D01*
G01*
X-4954841Y1490579D02*
X-4854841Y1390580D01*
X-4854841Y1490579D02*
X-4954841Y1390580D01*
X-4854841Y1440579D02*
G75*
G03*
X-4854841Y1440579I-50000J0D01*
G01*
X-4840091Y566200D02*
X-4740091Y466200D01*
X-4740091Y566200D02*
X-4840091Y466200D01*
X-4740091Y516200D02*
G75*
G03*
X-4740091Y516200I-50000J0D01*
G01*
X-4775236Y1670185D02*
X-4675236Y1570185D01*
X-4675236Y1670185D02*
X-4775236Y1570185D01*
X-4675236Y1620185D02*
G75*
G03*
X-4675236Y1620185I-50000J0D01*
G01*
X-4102581Y11087130D02*
X-4002581Y10987130D01*
X-4002581Y11087130D02*
X-4102581Y10987130D01*
X-4002581Y11037130D02*
G75*
G03*
X-4002581Y11037130I-50000J0D01*
G01*
X-3852581Y11087130D02*
X-3752581Y10987130D01*
X-3752581Y11087130D02*
X-3852581Y10987130D01*
X-3752581Y11037130D02*
G75*
G03*
X-3752581Y11037130I-50000J0D01*
G01*
X-2548781Y6019000D02*
X-2448781Y5919000D01*
X-2448781Y6019000D02*
X-2548781Y5919000D01*
X-2448781Y5969000D02*
G75*
G03*
X-2448781Y5969000I-50000J0D01*
G01*
X-2548781Y5765000D02*
X-2448781Y5665000D01*
X-2448781Y5765000D02*
X-2548781Y5665000D01*
X-2448781Y5715000D02*
G75*
G03*
X-2448781Y5715000I-50000J0D01*
G01*
X-2548781Y5511000D02*
X-2448781Y5411000D01*
X-2448781Y5511000D02*
X-2548781Y5411000D01*
X-2448781Y5461000D02*
G75*
G03*
X-2448781Y5461000I-50000J0D01*
G01*
X-2548781Y5257000D02*
X-2448781Y5157000D01*
X-2448781Y5257000D02*
X-2548781Y5157000D01*
X-2448781Y5207000D02*
G75*
G03*
X-2448781Y5207000I-50000J0D01*
G01*
X-2548781Y5003000D02*
X-2448781Y4903000D01*
X-2448781Y5003000D02*
X-2548781Y4903000D01*
X-2448781Y4953000D02*
G75*
G03*
X-2448781Y4953000I-50000J0D01*
G01*
X-2548781Y4749000D02*
X-2448781Y4649000D01*
X-2448781Y4749000D02*
X-2548781Y4649000D01*
X-2448781Y4699000D02*
G75*
G03*
X-2448781Y4699000I-50000J0D01*
G01*
X-2548781Y4495000D02*
X-2448781Y4395000D01*
X-2448781Y4495000D02*
X-2548781Y4395000D01*
X-2448781Y4445000D02*
G75*
G03*
X-2448781Y4445000I-50000J0D01*
G01*
X-2548781Y4241000D02*
X-2448781Y4141000D01*
X-2448781Y4241000D02*
X-2548781Y4141000D01*
X-2448781Y4191000D02*
G75*
G03*
X-2448781Y4191000I-50000J0D01*
G01*
X-2548781Y3987000D02*
X-2448781Y3887000D01*
X-2448781Y3987000D02*
X-2548781Y3887000D01*
X-2448781Y3937000D02*
G75*
G03*
X-2448781Y3937000I-50000J0D01*
G01*
X-2548781Y3733000D02*
X-2448781Y3633000D01*
X-2448781Y3733000D02*
X-2548781Y3633000D01*
X-2448781Y3683000D02*
G75*
G03*
X-2448781Y3683000I-50000J0D01*
G01*
X-2548781Y3479000D02*
X-2448781Y3379000D01*
X-2448781Y3479000D02*
X-2548781Y3379000D01*
X-2448781Y3429000D02*
G75*
G03*
X-2448781Y3429000I-50000J0D01*
G01*
X-2548781Y3225000D02*
X-2448781Y3125000D01*
X-2448781Y3225000D02*
X-2548781Y3125000D01*
X-2448781Y3175000D02*
G75*
G03*
X-2448781Y3175000I-50000J0D01*
G01*
X-2548781Y2971000D02*
X-2448781Y2871000D01*
X-2448781Y2971000D02*
X-2548781Y2871000D01*
X-2448781Y2921000D02*
G75*
G03*
X-2448781Y2921000I-50000J0D01*
G01*
X-2548781Y2717000D02*
X-2448781Y2617000D01*
X-2448781Y2717000D02*
X-2548781Y2617000D01*
X-2448781Y2667000D02*
G75*
G03*
X-2448781Y2667000I-50000J0D01*
G01*
X-2548781Y2463000D02*
X-2448781Y2363000D01*
X-2448781Y2463000D02*
X-2548781Y2363000D01*
X-2448781Y2413000D02*
G75*
G03*
X-2448781Y2413000I-50000J0D01*
G01*
X-2548781Y2209000D02*
X-2448781Y2109000D01*
X-2448781Y2209000D02*
X-2548781Y2109000D01*
X-2448781Y2159000D02*
G75*
G03*
X-2448781Y2159000I-50000J0D01*
G01*
X-2548781Y1955000D02*
X-2448781Y1855000D01*
X-2448781Y1955000D02*
X-2548781Y1855000D01*
X-2448781Y1905000D02*
G75*
G03*
X-2448781Y1905000I-50000J0D01*
G01*
X-2548781Y1701000D02*
X-2448781Y1601000D01*
X-2448781Y1701000D02*
X-2548781Y1601000D01*
X-2448781Y1651000D02*
G75*
G03*
X-2448781Y1651000I-50000J0D01*
G01*
X-2548781Y1447000D02*
X-2448781Y1347000D01*
X-2448781Y1447000D02*
X-2548781Y1347000D01*
X-2448781Y1397000D02*
G75*
G03*
X-2448781Y1397000I-50000J0D01*
G01*
X-2294781Y6019000D02*
X-2194781Y5919000D01*
X-2194781Y6019000D02*
X-2294781Y5919000D01*
X-2194781Y5969000D02*
G75*
G03*
X-2194781Y5969000I-50000J0D01*
G01*
X-2294781Y5765000D02*
X-2194781Y5665000D01*
X-2194781Y5765000D02*
X-2294781Y5665000D01*
X-2194781Y5715000D02*
G75*
G03*
X-2194781Y5715000I-50000J0D01*
G01*
X-2294781Y5511000D02*
X-2194781Y5411000D01*
X-2194781Y5511000D02*
X-2294781Y5411000D01*
X-2194781Y5461000D02*
G75*
G03*
X-2194781Y5461000I-50000J0D01*
G01*
X-2294781Y5257000D02*
X-2194781Y5157000D01*
X-2194781Y5257000D02*
X-2294781Y5157000D01*
X-2194781Y5207000D02*
G75*
G03*
X-2194781Y5207000I-50000J0D01*
G01*
X-2294781Y5003000D02*
X-2194781Y4903000D01*
X-2194781Y5003000D02*
X-2294781Y4903000D01*
X-2194781Y4953000D02*
G75*
G03*
X-2194781Y4953000I-50000J0D01*
G01*
X-2294781Y4749000D02*
X-2194781Y4649000D01*
X-2194781Y4749000D02*
X-2294781Y4649000D01*
X-2194781Y4699000D02*
G75*
G03*
X-2194781Y4699000I-50000J0D01*
G01*
X-2294781Y4495000D02*
X-2194781Y4395000D01*
X-2194781Y4495000D02*
X-2294781Y4395000D01*
X-2194781Y4445000D02*
G75*
G03*
X-2194781Y4445000I-50000J0D01*
G01*
X-2294781Y4241000D02*
X-2194781Y4141000D01*
X-2194781Y4241000D02*
X-2294781Y4141000D01*
X-2194781Y4191000D02*
G75*
G03*
X-2194781Y4191000I-50000J0D01*
G01*
X-2294781Y3987000D02*
X-2194781Y3887000D01*
X-2194781Y3987000D02*
X-2294781Y3887000D01*
X-2194781Y3937000D02*
G75*
G03*
X-2194781Y3937000I-50000J0D01*
G01*
X-2294781Y3733000D02*
X-2194781Y3633000D01*
X-2194781Y3733000D02*
X-2294781Y3633000D01*
X-2194781Y3683000D02*
G75*
G03*
X-2194781Y3683000I-50000J0D01*
G01*
X-2294781Y3479000D02*
X-2194781Y3379000D01*
X-2194781Y3479000D02*
X-2294781Y3379000D01*
X-2194781Y3429000D02*
G75*
G03*
X-2194781Y3429000I-50000J0D01*
G01*
X-2294781Y3225000D02*
X-2194781Y3125000D01*
X-2194781Y3225000D02*
X-2294781Y3125000D01*
X-2194781Y3175000D02*
G75*
G03*
X-2194781Y3175000I-50000J0D01*
G01*
X-2294781Y2971000D02*
X-2194781Y2871000D01*
X-2194781Y2971000D02*
X-2294781Y2871000D01*
X-2194781Y2921000D02*
G75*
G03*
X-2194781Y2921000I-50000J0D01*
G01*
X-2294781Y2717000D02*
X-2194781Y2617000D01*
X-2194781Y2717000D02*
X-2294781Y2617000D01*
X-2194781Y2667000D02*
G75*
G03*
X-2194781Y2667000I-50000J0D01*
G01*
X-2294781Y2463000D02*
X-2194781Y2363000D01*
X-2194781Y2463000D02*
X-2294781Y2363000D01*
X-2194781Y2413000D02*
G75*
G03*
X-2194781Y2413000I-50000J0D01*
G01*
X-2294781Y2209000D02*
X-2194781Y2109000D01*
X-2194781Y2209000D02*
X-2294781Y2109000D01*
X-2194781Y2159000D02*
G75*
G03*
X-2194781Y2159000I-50000J0D01*
G01*
X-2294781Y1955000D02*
X-2194781Y1855000D01*
X-2194781Y1955000D02*
X-2294781Y1855000D01*
X-2194781Y1905000D02*
G75*
G03*
X-2194781Y1905000I-50000J0D01*
G01*
X-2294781Y1701000D02*
X-2194781Y1601000D01*
X-2194781Y1701000D02*
X-2294781Y1601000D01*
X-2194781Y1651000D02*
G75*
G03*
X-2194781Y1651000I-50000J0D01*
G01*
X-2294781Y1447000D02*
X-2194781Y1347000D01*
X-2194781Y1447000D02*
X-2294781Y1347000D01*
X-2194781Y1397000D02*
G75*
G03*
X-2194781Y1397000I-50000J0D01*
G01*
X-1068781Y3910300D02*
X-968781Y3810300D01*
X-968781Y3910300D02*
X-1068781Y3810300D01*
X-968781Y3860300D02*
G75*
G03*
X-968781Y3860300I-50000J0D01*
G01*
X-1068781Y3656300D02*
X-968781Y3556300D01*
X-968781Y3656300D02*
X-1068781Y3556300D01*
X-968781Y3606300D02*
G75*
G03*
X-968781Y3606300I-50000J0D01*
G01*
X-1068781Y3122400D02*
X-968781Y3022400D01*
X-968781Y3122400D02*
X-1068781Y3022400D01*
X-968781Y3072400D02*
G75*
G03*
X-968781Y3072400I-50000J0D01*
G01*
X-1068781Y2868400D02*
X-968781Y2768400D01*
X-968781Y2868400D02*
X-1068781Y2768400D01*
X-968781Y2818400D02*
G75*
G03*
X-968781Y2818400I-50000J0D01*
G01*
X-1038781Y4773000D02*
X-938781Y4673000D01*
X-938781Y4773000D02*
X-1038781Y4673000D01*
X-938781Y4723000D02*
G75*
G03*
X-938781Y4723000I-50000J0D01*
G01*
X-1038781Y4523000D02*
X-938781Y4423000D01*
X-938781Y4523000D02*
X-1038781Y4423000D01*
X-938781Y4473000D02*
G75*
G03*
X-938781Y4473000I-50000J0D01*
G01*
D12*
X-11185881Y-823576D02*
X-11185881Y-623576D01*
X-11138262Y-623576D01*
X-11109691Y-633100D01*
X-11090643Y-652148D01*
X-11081119Y-671195D01*
X-11071595Y-709290D01*
X-11071595Y-737862D01*
X-11081119Y-775957D01*
X-11090643Y-795005D01*
X-11109691Y-814052D01*
X-11138262Y-823576D01*
X-11185881Y-823576D01*
X-10985881Y-823576D02*
X-10985881Y-690243D01*
X-10985881Y-728338D02*
X-10976357Y-709290D01*
X-10966833Y-699767D01*
X-10947786Y-690243D01*
X-10928738Y-690243D01*
X-10862072Y-823576D02*
X-10862072Y-690243D01*
X-10862072Y-623576D02*
X-10871595Y-633100D01*
X-10862072Y-642624D01*
X-10852548Y-633100D01*
X-10862072Y-623576D01*
X-10862072Y-642624D01*
X-10738262Y-823576D02*
X-10757310Y-814052D01*
X-10766833Y-795005D01*
X-10766833Y-623576D01*
X-10633500Y-823576D02*
X-10652548Y-814052D01*
X-10662072Y-795005D01*
X-10662072Y-623576D01*
X-10404929Y-823576D02*
X-10404929Y-623576D01*
X-10338262Y-766433D01*
X-10271595Y-623576D01*
X-10271595Y-823576D01*
X-10090643Y-823576D02*
X-10090643Y-718814D01*
X-10100167Y-699767D01*
X-10119214Y-690243D01*
X-10157310Y-690243D01*
X-10176357Y-699767D01*
X-10090643Y-814052D02*
X-10109691Y-823576D01*
X-10157310Y-823576D01*
X-10176357Y-814052D01*
X-10185881Y-795005D01*
X-10185881Y-775957D01*
X-10176357Y-756909D01*
X-10157310Y-747386D01*
X-10109691Y-747386D01*
X-10090643Y-737862D01*
X-9995405Y-690243D02*
X-9995405Y-890243D01*
X-9995405Y-699767D02*
X-9976357Y-690243D01*
X-9938262Y-690243D01*
X-9919214Y-699767D01*
X-9909691Y-709290D01*
X-9900167Y-728338D01*
X-9900167Y-785481D01*
X-9909691Y-804528D01*
X-9919214Y-814052D01*
X-9938262Y-823576D01*
X-9976357Y-823576D01*
X-9995405Y-814052D01*
X-9814452Y-804528D02*
X-9804929Y-814052D01*
X-9814452Y-823576D01*
X-9823976Y-814052D01*
X-9814452Y-804528D01*
X-9814452Y-823576D01*
X-9814452Y-699767D02*
X-9804929Y-709290D01*
X-9814452Y-718814D01*
X-9823976Y-709290D01*
X-9814452Y-699767D01*
X-9814452Y-718814D01*
D13*
X-11483500Y-1133100D02*
X-11443500Y-1173100D01*
X-11443500Y-1133100D02*
X-11483500Y-1173100D01*
D12*
X-11147786Y-1043576D02*
X-11128738Y-1043576D01*
X-11109691Y-1053100D01*
X-11100167Y-1062624D01*
X-11090643Y-1081671D01*
X-11081119Y-1119767D01*
X-11081119Y-1167386D01*
X-11090643Y-1205481D01*
X-11100167Y-1224529D01*
X-11109691Y-1234052D01*
X-11128738Y-1243576D01*
X-11147786Y-1243576D01*
X-11166833Y-1234052D01*
X-11176357Y-1224529D01*
X-11185881Y-1205481D01*
X-11195405Y-1167386D01*
X-11195405Y-1119767D01*
X-11185881Y-1081671D01*
X-11176357Y-1062624D01*
X-11166833Y-1053100D01*
X-11147786Y-1043576D01*
X-10995405Y-1224529D02*
X-10985881Y-1234052D01*
X-10995405Y-1243576D01*
X-11004929Y-1234052D01*
X-10995405Y-1224529D01*
X-10995405Y-1243576D01*
X-10814452Y-1110243D02*
X-10814452Y-1243576D01*
X-10862072Y-1034052D02*
X-10909691Y-1176910D01*
X-10785881Y-1176910D01*
X-10671595Y-1043576D02*
X-10652548Y-1043576D01*
X-10633500Y-1053100D01*
X-10623976Y-1062624D01*
X-10614452Y-1081671D01*
X-10604929Y-1119767D01*
X-10604929Y-1167386D01*
X-10614452Y-1205481D01*
X-10623976Y-1224529D01*
X-10633500Y-1234052D01*
X-10652548Y-1243576D01*
X-10671595Y-1243576D01*
X-10690643Y-1234052D01*
X-10700167Y-1224529D01*
X-10709691Y-1205481D01*
X-10719214Y-1167386D01*
X-10719214Y-1119767D01*
X-10709691Y-1081671D01*
X-10700167Y-1062624D01*
X-10690643Y-1053100D01*
X-10671595Y-1043576D01*
X-10481119Y-1043576D02*
X-10462072Y-1043576D01*
X-10443024Y-1053100D01*
X-10433500Y-1062624D01*
X-10423976Y-1081671D01*
X-10414452Y-1119767D01*
X-10414452Y-1167386D01*
X-10423976Y-1205481D01*
X-10433500Y-1224529D01*
X-10443024Y-1234052D01*
X-10462072Y-1243576D01*
X-10481119Y-1243576D01*
X-10500167Y-1234052D01*
X-10509691Y-1224529D01*
X-10519214Y-1205481D01*
X-10528738Y-1167386D01*
X-10528738Y-1119767D01*
X-10519214Y-1081671D01*
X-10509691Y-1062624D01*
X-10500167Y-1053100D01*
X-10481119Y-1043576D01*
X-10328738Y-1243576D02*
X-10328738Y-1110243D01*
X-10328738Y-1129290D02*
X-10319214Y-1119767D01*
X-10300167Y-1110243D01*
X-10271595Y-1110243D01*
X-10252548Y-1119767D01*
X-10243024Y-1138814D01*
X-10243024Y-1243576D01*
X-10243024Y-1138814D02*
X-10233500Y-1119767D01*
X-10214452Y-1110243D01*
X-10185881Y-1110243D01*
X-10166833Y-1119767D01*
X-10157310Y-1138814D01*
X-10157310Y-1243576D01*
X-10062072Y-1243576D02*
X-10062072Y-1110243D01*
X-10062072Y-1129290D02*
X-10052548Y-1119767D01*
X-10033500Y-1110243D01*
X-10004929Y-1110243D01*
X-9985881Y-1119767D01*
X-9976357Y-1138814D01*
X-9976357Y-1243576D01*
X-9976357Y-1138814D02*
X-9966833Y-1119767D01*
X-9947786Y-1110243D01*
X-9919214Y-1110243D01*
X-9900167Y-1119767D01*
X-9890643Y-1138814D01*
X-9890643Y-1243576D01*
X-9500167Y-1034052D02*
X-9671595Y-1291195D01*
X-9243024Y-1043576D02*
X-9223976Y-1043576D01*
X-9204929Y-1053100D01*
X-9195405Y-1062624D01*
X-9185881Y-1081671D01*
X-9176357Y-1119767D01*
X-9176357Y-1167386D01*
X-9185881Y-1205481D01*
X-9195405Y-1224529D01*
X-9204929Y-1234052D01*
X-9223976Y-1243576D01*
X-9243024Y-1243576D01*
X-9262072Y-1234052D01*
X-9271595Y-1224529D01*
X-9281119Y-1205481D01*
X-9290643Y-1167386D01*
X-9290643Y-1119767D01*
X-9281119Y-1081671D01*
X-9271595Y-1062624D01*
X-9262072Y-1053100D01*
X-9243024Y-1043576D01*
X-9090643Y-1224529D02*
X-9081119Y-1234052D01*
X-9090643Y-1243576D01*
X-9100167Y-1234052D01*
X-9090643Y-1224529D01*
X-9090643Y-1243576D01*
X-8957310Y-1043576D02*
X-8938262Y-1043576D01*
X-8919214Y-1053100D01*
X-8909691Y-1062624D01*
X-8900167Y-1081671D01*
X-8890643Y-1119767D01*
X-8890643Y-1167386D01*
X-8900167Y-1205481D01*
X-8909691Y-1224529D01*
X-8919214Y-1234052D01*
X-8938262Y-1243576D01*
X-8957310Y-1243576D01*
X-8976357Y-1234052D01*
X-8985881Y-1224529D01*
X-8995405Y-1205481D01*
X-9004929Y-1167386D01*
X-9004929Y-1119767D01*
X-8995405Y-1081671D01*
X-8985881Y-1062624D01*
X-8976357Y-1053100D01*
X-8957310Y-1043576D01*
X-8700167Y-1243576D02*
X-8814452Y-1243576D01*
X-8757310Y-1243576D02*
X-8757310Y-1043576D01*
X-8776357Y-1072148D01*
X-8795405Y-1091195D01*
X-8814452Y-1100719D01*
X-8519214Y-1043576D02*
X-8614452Y-1043576D01*
X-8623976Y-1138814D01*
X-8614452Y-1129290D01*
X-8595405Y-1119767D01*
X-8547786Y-1119767D01*
X-8528738Y-1129290D01*
X-8519214Y-1138814D01*
X-8509691Y-1157862D01*
X-8509691Y-1205481D01*
X-8519214Y-1224529D01*
X-8528738Y-1234052D01*
X-8547786Y-1243576D01*
X-8595405Y-1243576D01*
X-8614452Y-1234052D01*
X-8623976Y-1224529D01*
X-8443024Y-1043576D02*
X-8309690Y-1043576D01*
X-8395405Y-1243576D01*
X-8243024Y-1043576D02*
X-8243024Y-1081671D01*
X-8166833Y-1043576D02*
X-8166833Y-1081671D01*
X-7871595Y-1319767D02*
X-7881119Y-1310243D01*
X-7900167Y-1281671D01*
X-7909690Y-1262624D01*
X-7919214Y-1234052D01*
X-7928738Y-1186433D01*
X-7928738Y-1148338D01*
X-7919214Y-1100719D01*
X-7909690Y-1072148D01*
X-7900167Y-1053100D01*
X-7881119Y-1024528D01*
X-7871595Y-1015005D01*
X-7709690Y-1110243D02*
X-7709690Y-1243576D01*
X-7757310Y-1034052D02*
X-7804929Y-1176910D01*
X-7681119Y-1176910D01*
X-7452548Y-1243576D02*
X-7452548Y-1043576D01*
X-7366833Y-1243576D02*
X-7366833Y-1138814D01*
X-7376357Y-1119767D01*
X-7395405Y-1110243D01*
X-7423976Y-1110243D01*
X-7443024Y-1119767D01*
X-7452548Y-1129290D01*
X-7243024Y-1243576D02*
X-7262071Y-1234052D01*
X-7271595Y-1224529D01*
X-7281119Y-1205481D01*
X-7281119Y-1148338D01*
X-7271595Y-1129290D01*
X-7262071Y-1119767D01*
X-7243024Y-1110243D01*
X-7214452Y-1110243D01*
X-7195405Y-1119767D01*
X-7185881Y-1129290D01*
X-7176357Y-1148338D01*
X-7176357Y-1205481D01*
X-7185881Y-1224529D01*
X-7195405Y-1234052D01*
X-7214452Y-1243576D01*
X-7243024Y-1243576D01*
X-7062071Y-1243576D02*
X-7081119Y-1234052D01*
X-7090643Y-1215005D01*
X-7090643Y-1043576D01*
X-6909690Y-1234052D02*
X-6928738Y-1243576D01*
X-6966833Y-1243576D01*
X-6985881Y-1234052D01*
X-6995405Y-1215005D01*
X-6995405Y-1138814D01*
X-6985881Y-1119767D01*
X-6966833Y-1110243D01*
X-6928738Y-1110243D01*
X-6909690Y-1119767D01*
X-6900167Y-1138814D01*
X-6900167Y-1157862D01*
X-6995405Y-1176910D01*
X-6823976Y-1234052D02*
X-6804929Y-1243576D01*
X-6766833Y-1243576D01*
X-6747786Y-1234052D01*
X-6738262Y-1215005D01*
X-6738262Y-1205481D01*
X-6747786Y-1186433D01*
X-6766833Y-1176910D01*
X-6795405Y-1176910D01*
X-6814452Y-1167386D01*
X-6823976Y-1148338D01*
X-6823976Y-1138814D01*
X-6814452Y-1119767D01*
X-6795405Y-1110243D01*
X-6766833Y-1110243D01*
X-6747786Y-1119767D01*
X-6671595Y-1319767D02*
X-6662071Y-1310243D01*
X-6643024Y-1281671D01*
X-6633500Y-1262624D01*
X-6623976Y-1234052D01*
X-6614452Y-1186433D01*
X-6614452Y-1148338D01*
X-6623976Y-1100719D01*
X-6633500Y-1072148D01*
X-6643024Y-1053100D01*
X-6662071Y-1024528D01*
X-6671595Y-1015005D01*
D14*
X-11443500Y-1417100D02*
G75*
G03*
X-11443500Y-1417100I-35000J0D01*
G01*
D12*
X-11147786Y-1307576D02*
X-11128738Y-1307576D01*
X-11109691Y-1317100D01*
X-11100167Y-1326624D01*
X-11090643Y-1345671D01*
X-11081119Y-1383767D01*
X-11081119Y-1431386D01*
X-11090643Y-1469481D01*
X-11100167Y-1488528D01*
X-11109691Y-1498052D01*
X-11128738Y-1507576D01*
X-11147786Y-1507576D01*
X-11166833Y-1498052D01*
X-11176357Y-1488528D01*
X-11185881Y-1469481D01*
X-11195405Y-1431386D01*
X-11195405Y-1383767D01*
X-11185881Y-1345671D01*
X-11176357Y-1326624D01*
X-11166833Y-1317100D01*
X-11147786Y-1307576D01*
X-10995405Y-1488528D02*
X-10985881Y-1498052D01*
X-10995405Y-1507576D01*
X-11004929Y-1498052D01*
X-10995405Y-1488528D01*
X-10995405Y-1507576D01*
X-10919214Y-1307576D02*
X-10785881Y-1307576D01*
X-10871595Y-1507576D01*
X-10671595Y-1307576D02*
X-10652548Y-1307576D01*
X-10633500Y-1317100D01*
X-10623976Y-1326624D01*
X-10614452Y-1345671D01*
X-10604929Y-1383767D01*
X-10604929Y-1431386D01*
X-10614452Y-1469481D01*
X-10623976Y-1488528D01*
X-10633500Y-1498052D01*
X-10652548Y-1507576D01*
X-10671595Y-1507576D01*
X-10690643Y-1498052D01*
X-10700167Y-1488528D01*
X-10709691Y-1469481D01*
X-10719214Y-1431386D01*
X-10719214Y-1383767D01*
X-10709691Y-1345671D01*
X-10700167Y-1326624D01*
X-10690643Y-1317100D01*
X-10671595Y-1307576D01*
X-10481119Y-1307576D02*
X-10462072Y-1307576D01*
X-10443024Y-1317100D01*
X-10433500Y-1326624D01*
X-10423976Y-1345671D01*
X-10414452Y-1383767D01*
X-10414452Y-1431386D01*
X-10423976Y-1469481D01*
X-10433500Y-1488528D01*
X-10443024Y-1498052D01*
X-10462072Y-1507576D01*
X-10481119Y-1507576D01*
X-10500167Y-1498052D01*
X-10509691Y-1488528D01*
X-10519214Y-1469481D01*
X-10528738Y-1431386D01*
X-10528738Y-1383767D01*
X-10519214Y-1345671D01*
X-10509691Y-1326624D01*
X-10500167Y-1317100D01*
X-10481119Y-1307576D01*
X-10328738Y-1507576D02*
X-10328738Y-1374243D01*
X-10328738Y-1393290D02*
X-10319214Y-1383767D01*
X-10300167Y-1374243D01*
X-10271595Y-1374243D01*
X-10252548Y-1383767D01*
X-10243024Y-1402814D01*
X-10243024Y-1507576D01*
X-10243024Y-1402814D02*
X-10233500Y-1383767D01*
X-10214452Y-1374243D01*
X-10185881Y-1374243D01*
X-10166833Y-1383767D01*
X-10157310Y-1402814D01*
X-10157310Y-1507576D01*
X-10062072Y-1507576D02*
X-10062072Y-1374243D01*
X-10062072Y-1393290D02*
X-10052548Y-1383767D01*
X-10033500Y-1374243D01*
X-10004929Y-1374243D01*
X-9985881Y-1383767D01*
X-9976357Y-1402814D01*
X-9976357Y-1507576D01*
X-9976357Y-1402814D02*
X-9966833Y-1383767D01*
X-9947786Y-1374243D01*
X-9919214Y-1374243D01*
X-9900167Y-1383767D01*
X-9890643Y-1402814D01*
X-9890643Y-1507576D01*
X-9500167Y-1298052D02*
X-9671595Y-1555195D01*
X-9243024Y-1307576D02*
X-9223976Y-1307576D01*
X-9204929Y-1317100D01*
X-9195405Y-1326624D01*
X-9185881Y-1345671D01*
X-9176357Y-1383767D01*
X-9176357Y-1431386D01*
X-9185881Y-1469481D01*
X-9195405Y-1488528D01*
X-9204929Y-1498052D01*
X-9223976Y-1507576D01*
X-9243024Y-1507576D01*
X-9262072Y-1498052D01*
X-9271595Y-1488528D01*
X-9281119Y-1469481D01*
X-9290643Y-1431386D01*
X-9290643Y-1383767D01*
X-9281119Y-1345671D01*
X-9271595Y-1326624D01*
X-9262072Y-1317100D01*
X-9243024Y-1307576D01*
X-9090643Y-1488528D02*
X-9081119Y-1498052D01*
X-9090643Y-1507576D01*
X-9100167Y-1498052D01*
X-9090643Y-1488528D01*
X-9090643Y-1507576D01*
X-8957310Y-1307576D02*
X-8938262Y-1307576D01*
X-8919214Y-1317100D01*
X-8909691Y-1326624D01*
X-8900167Y-1345671D01*
X-8890643Y-1383767D01*
X-8890643Y-1431386D01*
X-8900167Y-1469481D01*
X-8909691Y-1488528D01*
X-8919214Y-1498052D01*
X-8938262Y-1507576D01*
X-8957310Y-1507576D01*
X-8976357Y-1498052D01*
X-8985881Y-1488528D01*
X-8995405Y-1469481D01*
X-9004929Y-1431386D01*
X-9004929Y-1383767D01*
X-8995405Y-1345671D01*
X-8985881Y-1326624D01*
X-8976357Y-1317100D01*
X-8957310Y-1307576D01*
X-8814452Y-1326624D02*
X-8804929Y-1317100D01*
X-8785881Y-1307576D01*
X-8738262Y-1307576D01*
X-8719214Y-1317100D01*
X-8709691Y-1326624D01*
X-8700167Y-1345671D01*
X-8700167Y-1364719D01*
X-8709691Y-1393290D01*
X-8823976Y-1507576D01*
X-8700167Y-1507576D01*
X-8633500Y-1307576D02*
X-8500167Y-1307576D01*
X-8585881Y-1507576D01*
X-8338262Y-1307576D02*
X-8376357Y-1307576D01*
X-8395405Y-1317100D01*
X-8404929Y-1326624D01*
X-8423976Y-1355195D01*
X-8433500Y-1393290D01*
X-8433500Y-1469481D01*
X-8423976Y-1488528D01*
X-8414452Y-1498052D01*
X-8395405Y-1507576D01*
X-8357310Y-1507576D01*
X-8338262Y-1498052D01*
X-8328738Y-1488528D01*
X-8319214Y-1469481D01*
X-8319214Y-1421862D01*
X-8328738Y-1402814D01*
X-8338262Y-1393290D01*
X-8357310Y-1383767D01*
X-8395405Y-1383767D01*
X-8414452Y-1393290D01*
X-8423976Y-1402814D01*
X-8433500Y-1421862D01*
X-8243024Y-1307576D02*
X-8243024Y-1345671D01*
X-8166833Y-1307576D02*
X-8166833Y-1345671D01*
X-7871595Y-1583767D02*
X-7881119Y-1574243D01*
X-7900167Y-1545671D01*
X-7909690Y-1526624D01*
X-7919214Y-1498052D01*
X-7928738Y-1450433D01*
X-7928738Y-1412338D01*
X-7919214Y-1364719D01*
X-7909690Y-1336148D01*
X-7900167Y-1317100D01*
X-7881119Y-1288529D01*
X-7871595Y-1279005D01*
X-7804929Y-1326624D02*
X-7795405Y-1317100D01*
X-7776357Y-1307576D01*
X-7728738Y-1307576D01*
X-7709690Y-1317100D01*
X-7700167Y-1326624D01*
X-7690643Y-1345671D01*
X-7690643Y-1364719D01*
X-7700167Y-1393290D01*
X-7814452Y-1507576D01*
X-7690643Y-1507576D01*
X-7576357Y-1393290D02*
X-7595405Y-1383767D01*
X-7604929Y-1374243D01*
X-7614452Y-1355195D01*
X-7614452Y-1345671D01*
X-7604929Y-1326624D01*
X-7595405Y-1317100D01*
X-7576357Y-1307576D01*
X-7538262Y-1307576D01*
X-7519214Y-1317100D01*
X-7509690Y-1326624D01*
X-7500167Y-1345671D01*
X-7500167Y-1355195D01*
X-7509690Y-1374243D01*
X-7519214Y-1383767D01*
X-7538262Y-1393290D01*
X-7576357Y-1393290D01*
X-7595405Y-1402814D01*
X-7604929Y-1412338D01*
X-7614452Y-1431386D01*
X-7614452Y-1469481D01*
X-7604929Y-1488528D01*
X-7595405Y-1498052D01*
X-7576357Y-1507576D01*
X-7538262Y-1507576D01*
X-7519214Y-1498052D01*
X-7509690Y-1488528D01*
X-7500167Y-1469481D01*
X-7500167Y-1431386D01*
X-7509690Y-1412338D01*
X-7519214Y-1402814D01*
X-7538262Y-1393290D01*
X-7262071Y-1507576D02*
X-7262071Y-1307576D01*
X-7176357Y-1507576D02*
X-7176357Y-1402814D01*
X-7185881Y-1383767D01*
X-7204929Y-1374243D01*
X-7233500Y-1374243D01*
X-7252548Y-1383767D01*
X-7262071Y-1393290D01*
X-7052548Y-1507576D02*
X-7071595Y-1498052D01*
X-7081119Y-1488528D01*
X-7090643Y-1469481D01*
X-7090643Y-1412338D01*
X-7081119Y-1393290D01*
X-7071595Y-1383767D01*
X-7052548Y-1374243D01*
X-7023976Y-1374243D01*
X-7004929Y-1383767D01*
X-6995405Y-1393290D01*
X-6985881Y-1412338D01*
X-6985881Y-1469481D01*
X-6995405Y-1488528D01*
X-7004929Y-1498052D01*
X-7023976Y-1507576D01*
X-7052548Y-1507576D01*
X-6871595Y-1507576D02*
X-6890643Y-1498052D01*
X-6900167Y-1479005D01*
X-6900167Y-1307576D01*
X-6719214Y-1498052D02*
X-6738262Y-1507576D01*
X-6776357Y-1507576D01*
X-6795405Y-1498052D01*
X-6804929Y-1479005D01*
X-6804929Y-1402814D01*
X-6795405Y-1383767D01*
X-6776357Y-1374243D01*
X-6738262Y-1374243D01*
X-6719214Y-1383767D01*
X-6709690Y-1402814D01*
X-6709690Y-1421862D01*
X-6804929Y-1440909D01*
X-6633500Y-1498052D02*
X-6614452Y-1507576D01*
X-6576357Y-1507576D01*
X-6557310Y-1498052D01*
X-6547786Y-1479005D01*
X-6547786Y-1469481D01*
X-6557310Y-1450433D01*
X-6576357Y-1440909D01*
X-6604929Y-1440909D01*
X-6623976Y-1431386D01*
X-6633500Y-1412338D01*
X-6633500Y-1402814D01*
X-6623976Y-1383767D01*
X-6604929Y-1374243D01*
X-6576357Y-1374243D01*
X-6557310Y-1383767D01*
X-6481119Y-1583767D02*
X-6471595Y-1574243D01*
X-6452548Y-1545671D01*
X-6443024Y-1526624D01*
X-6433500Y-1498052D01*
X-6423976Y-1450433D01*
X-6423976Y-1412338D01*
X-6433500Y-1364719D01*
X-6443024Y-1336148D01*
X-6452548Y-1317100D01*
X-6471595Y-1288529D01*
X-6481119Y-1279005D01*
D15*
X-11483500Y-1641100D02*
X-11483500Y-1721100D01*
X-11523500Y-1681100D02*
X-11443500Y-1681100D01*
D12*
X-11147786Y-1571576D02*
X-11128738Y-1571576D01*
X-11109691Y-1581100D01*
X-11100167Y-1590624D01*
X-11090643Y-1609671D01*
X-11081119Y-1647767D01*
X-11081119Y-1695386D01*
X-11090643Y-1733481D01*
X-11100167Y-1752528D01*
X-11109691Y-1762052D01*
X-11128738Y-1771576D01*
X-11147786Y-1771576D01*
X-11166833Y-1762052D01*
X-11176357Y-1752528D01*
X-11185881Y-1733481D01*
X-11195405Y-1695386D01*
X-11195405Y-1647767D01*
X-11185881Y-1609671D01*
X-11176357Y-1590624D01*
X-11166833Y-1581100D01*
X-11147786Y-1571576D01*
X-10995405Y-1752528D02*
X-10985881Y-1762052D01*
X-10995405Y-1771576D01*
X-11004929Y-1762052D01*
X-10995405Y-1752528D01*
X-10995405Y-1771576D01*
X-10871595Y-1657290D02*
X-10890643Y-1647767D01*
X-10900167Y-1638243D01*
X-10909691Y-1619195D01*
X-10909691Y-1609671D01*
X-10900167Y-1590624D01*
X-10890643Y-1581100D01*
X-10871595Y-1571576D01*
X-10833500Y-1571576D01*
X-10814452Y-1581100D01*
X-10804929Y-1590624D01*
X-10795405Y-1609671D01*
X-10795405Y-1619195D01*
X-10804929Y-1638243D01*
X-10814452Y-1647767D01*
X-10833500Y-1657290D01*
X-10871595Y-1657290D01*
X-10890643Y-1666814D01*
X-10900167Y-1676338D01*
X-10909691Y-1695386D01*
X-10909691Y-1733481D01*
X-10900167Y-1752528D01*
X-10890643Y-1762052D01*
X-10871595Y-1771576D01*
X-10833500Y-1771576D01*
X-10814452Y-1762052D01*
X-10804929Y-1752528D01*
X-10795405Y-1733481D01*
X-10795405Y-1695386D01*
X-10804929Y-1676338D01*
X-10814452Y-1666814D01*
X-10833500Y-1657290D01*
X-10671595Y-1571576D02*
X-10652548Y-1571576D01*
X-10633500Y-1581100D01*
X-10623976Y-1590624D01*
X-10614452Y-1609671D01*
X-10604929Y-1647767D01*
X-10604929Y-1695386D01*
X-10614452Y-1733481D01*
X-10623976Y-1752528D01*
X-10633500Y-1762052D01*
X-10652548Y-1771576D01*
X-10671595Y-1771576D01*
X-10690643Y-1762052D01*
X-10700167Y-1752528D01*
X-10709691Y-1733481D01*
X-10719214Y-1695386D01*
X-10719214Y-1647767D01*
X-10709691Y-1609671D01*
X-10700167Y-1590624D01*
X-10690643Y-1581100D01*
X-10671595Y-1571576D01*
X-10481119Y-1571576D02*
X-10462072Y-1571576D01*
X-10443024Y-1581100D01*
X-10433500Y-1590624D01*
X-10423976Y-1609671D01*
X-10414452Y-1647767D01*
X-10414452Y-1695386D01*
X-10423976Y-1733481D01*
X-10433500Y-1752528D01*
X-10443024Y-1762052D01*
X-10462072Y-1771576D01*
X-10481119Y-1771576D01*
X-10500167Y-1762052D01*
X-10509691Y-1752528D01*
X-10519214Y-1733481D01*
X-10528738Y-1695386D01*
X-10528738Y-1647767D01*
X-10519214Y-1609671D01*
X-10509691Y-1590624D01*
X-10500167Y-1581100D01*
X-10481119Y-1571576D01*
X-10328738Y-1771576D02*
X-10328738Y-1638243D01*
X-10328738Y-1657290D02*
X-10319214Y-1647767D01*
X-10300167Y-1638243D01*
X-10271595Y-1638243D01*
X-10252548Y-1647767D01*
X-10243024Y-1666814D01*
X-10243024Y-1771576D01*
X-10243024Y-1666814D02*
X-10233500Y-1647767D01*
X-10214452Y-1638243D01*
X-10185881Y-1638243D01*
X-10166833Y-1647767D01*
X-10157310Y-1666814D01*
X-10157310Y-1771576D01*
X-10062072Y-1771576D02*
X-10062072Y-1638243D01*
X-10062072Y-1657290D02*
X-10052548Y-1647767D01*
X-10033500Y-1638243D01*
X-10004929Y-1638243D01*
X-9985881Y-1647767D01*
X-9976357Y-1666814D01*
X-9976357Y-1771576D01*
X-9976357Y-1666814D02*
X-9966833Y-1647767D01*
X-9947786Y-1638243D01*
X-9919214Y-1638243D01*
X-9900167Y-1647767D01*
X-9890643Y-1666814D01*
X-9890643Y-1771576D01*
X-9500167Y-1562052D02*
X-9671595Y-1819195D01*
X-9243024Y-1571576D02*
X-9223976Y-1571576D01*
X-9204929Y-1581100D01*
X-9195405Y-1590624D01*
X-9185881Y-1609671D01*
X-9176357Y-1647767D01*
X-9176357Y-1695386D01*
X-9185881Y-1733481D01*
X-9195405Y-1752528D01*
X-9204929Y-1762052D01*
X-9223976Y-1771576D01*
X-9243024Y-1771576D01*
X-9262072Y-1762052D01*
X-9271595Y-1752528D01*
X-9281119Y-1733481D01*
X-9290643Y-1695386D01*
X-9290643Y-1647767D01*
X-9281119Y-1609671D01*
X-9271595Y-1590624D01*
X-9262072Y-1581100D01*
X-9243024Y-1571576D01*
X-9090643Y-1752528D02*
X-9081119Y-1762052D01*
X-9090643Y-1771576D01*
X-9100167Y-1762052D01*
X-9090643Y-1752528D01*
X-9090643Y-1771576D01*
X-8957310Y-1571576D02*
X-8938262Y-1571576D01*
X-8919214Y-1581100D01*
X-8909691Y-1590624D01*
X-8900167Y-1609671D01*
X-8890643Y-1647767D01*
X-8890643Y-1695386D01*
X-8900167Y-1733481D01*
X-8909691Y-1752528D01*
X-8919214Y-1762052D01*
X-8938262Y-1771576D01*
X-8957310Y-1771576D01*
X-8976357Y-1762052D01*
X-8985881Y-1752528D01*
X-8995405Y-1733481D01*
X-9004929Y-1695386D01*
X-9004929Y-1647767D01*
X-8995405Y-1609671D01*
X-8985881Y-1590624D01*
X-8976357Y-1581100D01*
X-8957310Y-1571576D01*
X-8823976Y-1571576D02*
X-8700167Y-1571576D01*
X-8766833Y-1647767D01*
X-8738262Y-1647767D01*
X-8719214Y-1657290D01*
X-8709691Y-1666814D01*
X-8700167Y-1685862D01*
X-8700167Y-1733481D01*
X-8709691Y-1752528D01*
X-8719214Y-1762052D01*
X-8738262Y-1771576D01*
X-8795405Y-1771576D01*
X-8814452Y-1762052D01*
X-8823976Y-1752528D01*
X-8509691Y-1771576D02*
X-8623976Y-1771576D01*
X-8566833Y-1771576D02*
X-8566833Y-1571576D01*
X-8585881Y-1600148D01*
X-8604929Y-1619195D01*
X-8623976Y-1628719D01*
X-8328738Y-1571576D02*
X-8423976Y-1571576D01*
X-8433500Y-1666814D01*
X-8423976Y-1657290D01*
X-8404929Y-1647767D01*
X-8357310Y-1647767D01*
X-8338262Y-1657290D01*
X-8328738Y-1666814D01*
X-8319214Y-1685862D01*
X-8319214Y-1733481D01*
X-8328738Y-1752528D01*
X-8338262Y-1762052D01*
X-8357310Y-1771576D01*
X-8404929Y-1771576D01*
X-8423976Y-1762052D01*
X-8433500Y-1752528D01*
X-8243024Y-1571576D02*
X-8243024Y-1609671D01*
X-8166833Y-1571576D02*
X-8166833Y-1609671D01*
X-7871595Y-1847767D02*
X-7881119Y-1838243D01*
X-7900167Y-1809671D01*
X-7909690Y-1790624D01*
X-7919214Y-1762052D01*
X-7928738Y-1714433D01*
X-7928738Y-1676338D01*
X-7919214Y-1628719D01*
X-7909690Y-1600148D01*
X-7900167Y-1581100D01*
X-7881119Y-1552528D01*
X-7871595Y-1543005D01*
X-7700167Y-1571576D02*
X-7795405Y-1571576D01*
X-7804929Y-1666814D01*
X-7795405Y-1657290D01*
X-7776357Y-1647767D01*
X-7728738Y-1647767D01*
X-7709690Y-1657290D01*
X-7700167Y-1666814D01*
X-7690643Y-1685862D01*
X-7690643Y-1733481D01*
X-7700167Y-1752528D01*
X-7709690Y-1762052D01*
X-7728738Y-1771576D01*
X-7776357Y-1771576D01*
X-7795405Y-1762052D01*
X-7804929Y-1752528D01*
X-7566833Y-1571576D02*
X-7547786Y-1571576D01*
X-7528738Y-1581100D01*
X-7519214Y-1590624D01*
X-7509690Y-1609671D01*
X-7500167Y-1647767D01*
X-7500167Y-1695386D01*
X-7509690Y-1733481D01*
X-7519214Y-1752528D01*
X-7528738Y-1762052D01*
X-7547786Y-1771576D01*
X-7566833Y-1771576D01*
X-7585881Y-1762052D01*
X-7595405Y-1752528D01*
X-7604929Y-1733481D01*
X-7614452Y-1695386D01*
X-7614452Y-1647767D01*
X-7604929Y-1609671D01*
X-7595405Y-1590624D01*
X-7585881Y-1581100D01*
X-7566833Y-1571576D01*
X-7262071Y-1771576D02*
X-7262071Y-1571576D01*
X-7176357Y-1771576D02*
X-7176357Y-1666814D01*
X-7185881Y-1647767D01*
X-7204929Y-1638243D01*
X-7233500Y-1638243D01*
X-7252548Y-1647767D01*
X-7262071Y-1657290D01*
X-7052548Y-1771576D02*
X-7071595Y-1762052D01*
X-7081119Y-1752528D01*
X-7090643Y-1733481D01*
X-7090643Y-1676338D01*
X-7081119Y-1657290D01*
X-7071595Y-1647767D01*
X-7052548Y-1638243D01*
X-7023976Y-1638243D01*
X-7004929Y-1647767D01*
X-6995405Y-1657290D01*
X-6985881Y-1676338D01*
X-6985881Y-1733481D01*
X-6995405Y-1752528D01*
X-7004929Y-1762052D01*
X-7023976Y-1771576D01*
X-7052548Y-1771576D01*
X-6871595Y-1771576D02*
X-6890643Y-1762052D01*
X-6900167Y-1743005D01*
X-6900167Y-1571576D01*
X-6719214Y-1762052D02*
X-6738262Y-1771576D01*
X-6776357Y-1771576D01*
X-6795405Y-1762052D01*
X-6804929Y-1743005D01*
X-6804929Y-1666814D01*
X-6795405Y-1647767D01*
X-6776357Y-1638243D01*
X-6738262Y-1638243D01*
X-6719214Y-1647767D01*
X-6709690Y-1666814D01*
X-6709690Y-1685862D01*
X-6804929Y-1704909D01*
X-6633500Y-1762052D02*
X-6614452Y-1771576D01*
X-6576357Y-1771576D01*
X-6557310Y-1762052D01*
X-6547786Y-1743005D01*
X-6547786Y-1733481D01*
X-6557310Y-1714433D01*
X-6576357Y-1704909D01*
X-6604929Y-1704909D01*
X-6623976Y-1695386D01*
X-6633500Y-1676338D01*
X-6633500Y-1666814D01*
X-6623976Y-1647767D01*
X-6604929Y-1638243D01*
X-6576357Y-1638243D01*
X-6557310Y-1647767D01*
X-6481119Y-1847767D02*
X-6471595Y-1838243D01*
X-6452548Y-1809671D01*
X-6443024Y-1790624D01*
X-6433500Y-1762052D01*
X-6423976Y-1714433D01*
X-6423976Y-1676338D01*
X-6433500Y-1628719D01*
X-6443024Y-1600148D01*
X-6452548Y-1581100D01*
X-6471595Y-1552528D01*
X-6481119Y-1543005D01*
D16*
X-11456680Y-1976920D02*
X-11456680Y-1913280D01*
X-11520320Y-1913280D01*
X-11520320Y-1976920D01*
X-11456680Y-1976920D01*
D12*
X-11147786Y-1835576D02*
X-11128738Y-1835576D01*
X-11109691Y-1845100D01*
X-11100167Y-1854624D01*
X-11090643Y-1873671D01*
X-11081119Y-1911767D01*
X-11081119Y-1959386D01*
X-11090643Y-1997481D01*
X-11100167Y-2016528D01*
X-11109691Y-2026052D01*
X-11128738Y-2035576D01*
X-11147786Y-2035576D01*
X-11166833Y-2026052D01*
X-11176357Y-2016528D01*
X-11185881Y-1997481D01*
X-11195405Y-1959386D01*
X-11195405Y-1911767D01*
X-11185881Y-1873671D01*
X-11176357Y-1854624D01*
X-11166833Y-1845100D01*
X-11147786Y-1835576D01*
X-10995405Y-2016528D02*
X-10985881Y-2026052D01*
X-10995405Y-2035576D01*
X-11004929Y-2026052D01*
X-10995405Y-2016528D01*
X-10995405Y-2035576D01*
X-10890643Y-2035576D02*
X-10852548Y-2035576D01*
X-10833500Y-2026052D01*
X-10823976Y-2016528D01*
X-10804929Y-1987957D01*
X-10795405Y-1949862D01*
X-10795405Y-1873671D01*
X-10804929Y-1854624D01*
X-10814452Y-1845100D01*
X-10833500Y-1835576D01*
X-10871595Y-1835576D01*
X-10890643Y-1845100D01*
X-10900167Y-1854624D01*
X-10909691Y-1873671D01*
X-10909691Y-1921290D01*
X-10900167Y-1940338D01*
X-10890643Y-1949862D01*
X-10871595Y-1959386D01*
X-10833500Y-1959386D01*
X-10814452Y-1949862D01*
X-10804929Y-1940338D01*
X-10795405Y-1921290D01*
X-10671595Y-1835576D02*
X-10652548Y-1835576D01*
X-10633500Y-1845100D01*
X-10623976Y-1854624D01*
X-10614452Y-1873671D01*
X-10604929Y-1911767D01*
X-10604929Y-1959386D01*
X-10614452Y-1997481D01*
X-10623976Y-2016528D01*
X-10633500Y-2026052D01*
X-10652548Y-2035576D01*
X-10671595Y-2035576D01*
X-10690643Y-2026052D01*
X-10700167Y-2016528D01*
X-10709691Y-1997481D01*
X-10719214Y-1959386D01*
X-10719214Y-1911767D01*
X-10709691Y-1873671D01*
X-10700167Y-1854624D01*
X-10690643Y-1845100D01*
X-10671595Y-1835576D01*
X-10481119Y-1835576D02*
X-10462072Y-1835576D01*
X-10443024Y-1845100D01*
X-10433500Y-1854624D01*
X-10423976Y-1873671D01*
X-10414452Y-1911767D01*
X-10414452Y-1959386D01*
X-10423976Y-1997481D01*
X-10433500Y-2016528D01*
X-10443024Y-2026052D01*
X-10462072Y-2035576D01*
X-10481119Y-2035576D01*
X-10500167Y-2026052D01*
X-10509691Y-2016528D01*
X-10519214Y-1997481D01*
X-10528738Y-1959386D01*
X-10528738Y-1911767D01*
X-10519214Y-1873671D01*
X-10509691Y-1854624D01*
X-10500167Y-1845100D01*
X-10481119Y-1835576D01*
X-10328738Y-2035576D02*
X-10328738Y-1902243D01*
X-10328738Y-1921290D02*
X-10319214Y-1911767D01*
X-10300167Y-1902243D01*
X-10271595Y-1902243D01*
X-10252548Y-1911767D01*
X-10243024Y-1930814D01*
X-10243024Y-2035576D01*
X-10243024Y-1930814D02*
X-10233500Y-1911767D01*
X-10214452Y-1902243D01*
X-10185881Y-1902243D01*
X-10166833Y-1911767D01*
X-10157310Y-1930814D01*
X-10157310Y-2035576D01*
X-10062072Y-2035576D02*
X-10062072Y-1902243D01*
X-10062072Y-1921290D02*
X-10052548Y-1911767D01*
X-10033500Y-1902243D01*
X-10004929Y-1902243D01*
X-9985881Y-1911767D01*
X-9976357Y-1930814D01*
X-9976357Y-2035576D01*
X-9976357Y-1930814D02*
X-9966833Y-1911767D01*
X-9947786Y-1902243D01*
X-9919214Y-1902243D01*
X-9900167Y-1911767D01*
X-9890643Y-1930814D01*
X-9890643Y-2035576D01*
X-9500167Y-1826052D02*
X-9671595Y-2083195D01*
X-9243024Y-1835576D02*
X-9223976Y-1835576D01*
X-9204929Y-1845100D01*
X-9195405Y-1854624D01*
X-9185881Y-1873671D01*
X-9176357Y-1911767D01*
X-9176357Y-1959386D01*
X-9185881Y-1997481D01*
X-9195405Y-2016528D01*
X-9204929Y-2026052D01*
X-9223976Y-2035576D01*
X-9243024Y-2035576D01*
X-9262072Y-2026052D01*
X-9271595Y-2016528D01*
X-9281119Y-1997481D01*
X-9290643Y-1959386D01*
X-9290643Y-1911767D01*
X-9281119Y-1873671D01*
X-9271595Y-1854624D01*
X-9262072Y-1845100D01*
X-9243024Y-1835576D01*
X-9090643Y-2016528D02*
X-9081119Y-2026052D01*
X-9090643Y-2035576D01*
X-9100167Y-2026052D01*
X-9090643Y-2016528D01*
X-9090643Y-2035576D01*
X-8957310Y-1835576D02*
X-8938262Y-1835576D01*
X-8919214Y-1845100D01*
X-8909691Y-1854624D01*
X-8900167Y-1873671D01*
X-8890643Y-1911767D01*
X-8890643Y-1959386D01*
X-8900167Y-1997481D01*
X-8909691Y-2016528D01*
X-8919214Y-2026052D01*
X-8938262Y-2035576D01*
X-8957310Y-2035576D01*
X-8976357Y-2026052D01*
X-8985881Y-2016528D01*
X-8995405Y-1997481D01*
X-9004929Y-1959386D01*
X-9004929Y-1911767D01*
X-8995405Y-1873671D01*
X-8985881Y-1854624D01*
X-8976357Y-1845100D01*
X-8957310Y-1835576D01*
X-8823976Y-1835576D02*
X-8700167Y-1835576D01*
X-8766833Y-1911767D01*
X-8738262Y-1911767D01*
X-8719214Y-1921290D01*
X-8709691Y-1930814D01*
X-8700167Y-1949862D01*
X-8700167Y-1997481D01*
X-8709691Y-2016528D01*
X-8719214Y-2026052D01*
X-8738262Y-2035576D01*
X-8795405Y-2035576D01*
X-8814452Y-2026052D01*
X-8823976Y-2016528D01*
X-8519214Y-1835576D02*
X-8614452Y-1835576D01*
X-8623976Y-1930814D01*
X-8614452Y-1921290D01*
X-8595405Y-1911767D01*
X-8547786Y-1911767D01*
X-8528738Y-1921290D01*
X-8519214Y-1930814D01*
X-8509691Y-1949862D01*
X-8509691Y-1997481D01*
X-8519214Y-2016528D01*
X-8528738Y-2026052D01*
X-8547786Y-2035576D01*
X-8595405Y-2035576D01*
X-8614452Y-2026052D01*
X-8623976Y-2016528D01*
X-8338262Y-1902243D02*
X-8338262Y-2035576D01*
X-8385881Y-1826052D02*
X-8433500Y-1968909D01*
X-8309690Y-1968909D01*
X-8243024Y-1835576D02*
X-8243024Y-1873671D01*
X-8166833Y-1835576D02*
X-8166833Y-1873671D01*
X-7871595Y-2111767D02*
X-7881119Y-2102243D01*
X-7900167Y-2073671D01*
X-7909690Y-2054624D01*
X-7919214Y-2026052D01*
X-7928738Y-1978433D01*
X-7928738Y-1940338D01*
X-7919214Y-1892719D01*
X-7909690Y-1864148D01*
X-7900167Y-1845100D01*
X-7881119Y-1816528D01*
X-7871595Y-1807005D01*
X-7766833Y-1921290D02*
X-7785881Y-1911767D01*
X-7795405Y-1902243D01*
X-7804929Y-1883195D01*
X-7804929Y-1873671D01*
X-7795405Y-1854624D01*
X-7785881Y-1845100D01*
X-7766833Y-1835576D01*
X-7728738Y-1835576D01*
X-7709690Y-1845100D01*
X-7700167Y-1854624D01*
X-7690643Y-1873671D01*
X-7690643Y-1883195D01*
X-7700167Y-1902243D01*
X-7709690Y-1911767D01*
X-7728738Y-1921290D01*
X-7766833Y-1921290D01*
X-7785881Y-1930814D01*
X-7795405Y-1940338D01*
X-7804929Y-1959386D01*
X-7804929Y-1997481D01*
X-7795405Y-2016528D01*
X-7785881Y-2026052D01*
X-7766833Y-2035576D01*
X-7728738Y-2035576D01*
X-7709690Y-2026052D01*
X-7700167Y-2016528D01*
X-7690643Y-1997481D01*
X-7690643Y-1959386D01*
X-7700167Y-1940338D01*
X-7709690Y-1930814D01*
X-7728738Y-1921290D01*
X-7452548Y-2035576D02*
X-7452548Y-1835576D01*
X-7366833Y-2035576D02*
X-7366833Y-1930814D01*
X-7376357Y-1911767D01*
X-7395405Y-1902243D01*
X-7423976Y-1902243D01*
X-7443024Y-1911767D01*
X-7452548Y-1921290D01*
X-7243024Y-2035576D02*
X-7262071Y-2026052D01*
X-7271595Y-2016528D01*
X-7281119Y-1997481D01*
X-7281119Y-1940338D01*
X-7271595Y-1921290D01*
X-7262071Y-1911767D01*
X-7243024Y-1902243D01*
X-7214452Y-1902243D01*
X-7195405Y-1911767D01*
X-7185881Y-1921290D01*
X-7176357Y-1940338D01*
X-7176357Y-1997481D01*
X-7185881Y-2016528D01*
X-7195405Y-2026052D01*
X-7214452Y-2035576D01*
X-7243024Y-2035576D01*
X-7062071Y-2035576D02*
X-7081119Y-2026052D01*
X-7090643Y-2007005D01*
X-7090643Y-1835576D01*
X-6909690Y-2026052D02*
X-6928738Y-2035576D01*
X-6966833Y-2035576D01*
X-6985881Y-2026052D01*
X-6995405Y-2007005D01*
X-6995405Y-1930814D01*
X-6985881Y-1911767D01*
X-6966833Y-1902243D01*
X-6928738Y-1902243D01*
X-6909690Y-1911767D01*
X-6900167Y-1930814D01*
X-6900167Y-1949862D01*
X-6995405Y-1968909D01*
X-6823976Y-2026052D02*
X-6804929Y-2035576D01*
X-6766833Y-2035576D01*
X-6747786Y-2026052D01*
X-6738262Y-2007005D01*
X-6738262Y-1997481D01*
X-6747786Y-1978433D01*
X-6766833Y-1968909D01*
X-6795405Y-1968909D01*
X-6814452Y-1959386D01*
X-6823976Y-1940338D01*
X-6823976Y-1930814D01*
X-6814452Y-1911767D01*
X-6795405Y-1902243D01*
X-6766833Y-1902243D01*
X-6747786Y-1911767D01*
X-6671595Y-2111767D02*
X-6662071Y-2102243D01*
X-6643024Y-2073671D01*
X-6633500Y-2054624D01*
X-6623976Y-2026052D01*
X-6614452Y-1978433D01*
X-6614452Y-1940338D01*
X-6623976Y-1892719D01*
X-6633500Y-1864148D01*
X-6643024Y-1845100D01*
X-6662071Y-1816528D01*
X-6671595Y-1807005D01*
D17*
X-11491000Y-2256600D02*
X-11443500Y-2209100D01*
X-11491000Y-2161600D01*
X-11538500Y-2209100D01*
X-11491000Y-2256600D01*
D12*
X-11147786Y-2099576D02*
X-11128738Y-2099576D01*
X-11109691Y-2109100D01*
X-11100167Y-2118624D01*
X-11090643Y-2137671D01*
X-11081119Y-2175767D01*
X-11081119Y-2223386D01*
X-11090643Y-2261481D01*
X-11100167Y-2280529D01*
X-11109691Y-2290052D01*
X-11128738Y-2299576D01*
X-11147786Y-2299576D01*
X-11166833Y-2290052D01*
X-11176357Y-2280529D01*
X-11185881Y-2261481D01*
X-11195405Y-2223386D01*
X-11195405Y-2175767D01*
X-11185881Y-2137671D01*
X-11176357Y-2118624D01*
X-11166833Y-2109100D01*
X-11147786Y-2099576D01*
X-10995405Y-2280529D02*
X-10985881Y-2290052D01*
X-10995405Y-2299576D01*
X-11004929Y-2290052D01*
X-10995405Y-2280529D01*
X-10995405Y-2299576D01*
X-10890643Y-2299576D02*
X-10852548Y-2299576D01*
X-10833500Y-2290052D01*
X-10823976Y-2280529D01*
X-10804929Y-2251957D01*
X-10795405Y-2213862D01*
X-10795405Y-2137671D01*
X-10804929Y-2118624D01*
X-10814452Y-2109100D01*
X-10833500Y-2099576D01*
X-10871595Y-2099576D01*
X-10890643Y-2109100D01*
X-10900167Y-2118624D01*
X-10909691Y-2137671D01*
X-10909691Y-2185290D01*
X-10900167Y-2204338D01*
X-10890643Y-2213862D01*
X-10871595Y-2223386D01*
X-10833500Y-2223386D01*
X-10814452Y-2213862D01*
X-10804929Y-2204338D01*
X-10795405Y-2185290D01*
X-10614452Y-2099576D02*
X-10709691Y-2099576D01*
X-10719214Y-2194814D01*
X-10709691Y-2185290D01*
X-10690643Y-2175767D01*
X-10643024Y-2175767D01*
X-10623976Y-2185290D01*
X-10614452Y-2194814D01*
X-10604929Y-2213862D01*
X-10604929Y-2261481D01*
X-10614452Y-2280529D01*
X-10623976Y-2290052D01*
X-10643024Y-2299576D01*
X-10690643Y-2299576D01*
X-10709691Y-2290052D01*
X-10719214Y-2280529D01*
X-10481119Y-2099576D02*
X-10462072Y-2099576D01*
X-10443024Y-2109100D01*
X-10433500Y-2118624D01*
X-10423976Y-2137671D01*
X-10414452Y-2175767D01*
X-10414452Y-2223386D01*
X-10423976Y-2261481D01*
X-10433500Y-2280529D01*
X-10443024Y-2290052D01*
X-10462072Y-2299576D01*
X-10481119Y-2299576D01*
X-10500167Y-2290052D01*
X-10509691Y-2280529D01*
X-10519214Y-2261481D01*
X-10528738Y-2223386D01*
X-10528738Y-2175767D01*
X-10519214Y-2137671D01*
X-10509691Y-2118624D01*
X-10500167Y-2109100D01*
X-10481119Y-2099576D01*
X-10328738Y-2299576D02*
X-10328738Y-2166243D01*
X-10328738Y-2185290D02*
X-10319214Y-2175767D01*
X-10300167Y-2166243D01*
X-10271595Y-2166243D01*
X-10252548Y-2175767D01*
X-10243024Y-2194814D01*
X-10243024Y-2299576D01*
X-10243024Y-2194814D02*
X-10233500Y-2175767D01*
X-10214452Y-2166243D01*
X-10185881Y-2166243D01*
X-10166833Y-2175767D01*
X-10157310Y-2194814D01*
X-10157310Y-2299576D01*
X-10062072Y-2299576D02*
X-10062072Y-2166243D01*
X-10062072Y-2185290D02*
X-10052548Y-2175767D01*
X-10033500Y-2166243D01*
X-10004929Y-2166243D01*
X-9985881Y-2175767D01*
X-9976357Y-2194814D01*
X-9976357Y-2299576D01*
X-9976357Y-2194814D02*
X-9966833Y-2175767D01*
X-9947786Y-2166243D01*
X-9919214Y-2166243D01*
X-9900167Y-2175767D01*
X-9890643Y-2194814D01*
X-9890643Y-2299576D01*
X-9500167Y-2090052D02*
X-9671595Y-2347195D01*
X-9243024Y-2099576D02*
X-9223976Y-2099576D01*
X-9204929Y-2109100D01*
X-9195405Y-2118624D01*
X-9185881Y-2137671D01*
X-9176357Y-2175767D01*
X-9176357Y-2223386D01*
X-9185881Y-2261481D01*
X-9195405Y-2280529D01*
X-9204929Y-2290052D01*
X-9223976Y-2299576D01*
X-9243024Y-2299576D01*
X-9262072Y-2290052D01*
X-9271595Y-2280529D01*
X-9281119Y-2261481D01*
X-9290643Y-2223386D01*
X-9290643Y-2175767D01*
X-9281119Y-2137671D01*
X-9271595Y-2118624D01*
X-9262072Y-2109100D01*
X-9243024Y-2099576D01*
X-9090643Y-2280529D02*
X-9081119Y-2290052D01*
X-9090643Y-2299576D01*
X-9100167Y-2290052D01*
X-9090643Y-2280529D01*
X-9090643Y-2299576D01*
X-8957310Y-2099576D02*
X-8938262Y-2099576D01*
X-8919214Y-2109100D01*
X-8909691Y-2118624D01*
X-8900167Y-2137671D01*
X-8890643Y-2175767D01*
X-8890643Y-2223386D01*
X-8900167Y-2261481D01*
X-8909691Y-2280529D01*
X-8919214Y-2290052D01*
X-8938262Y-2299576D01*
X-8957310Y-2299576D01*
X-8976357Y-2290052D01*
X-8985881Y-2280529D01*
X-8995405Y-2261481D01*
X-9004929Y-2223386D01*
X-9004929Y-2175767D01*
X-8995405Y-2137671D01*
X-8985881Y-2118624D01*
X-8976357Y-2109100D01*
X-8957310Y-2099576D01*
X-8823976Y-2099576D02*
X-8700167Y-2099576D01*
X-8766833Y-2175767D01*
X-8738262Y-2175767D01*
X-8719214Y-2185290D01*
X-8709691Y-2194814D01*
X-8700167Y-2213862D01*
X-8700167Y-2261481D01*
X-8709691Y-2280529D01*
X-8719214Y-2290052D01*
X-8738262Y-2299576D01*
X-8795405Y-2299576D01*
X-8814452Y-2290052D01*
X-8823976Y-2280529D01*
X-8633500Y-2099576D02*
X-8500167Y-2099576D01*
X-8585881Y-2299576D01*
X-8338262Y-2166243D02*
X-8338262Y-2299576D01*
X-8385881Y-2090052D02*
X-8433500Y-2232910D01*
X-8309690Y-2232910D01*
X-8243024Y-2099576D02*
X-8243024Y-2137671D01*
X-8166833Y-2099576D02*
X-8166833Y-2137671D01*
X-7871595Y-2375767D02*
X-7881119Y-2366243D01*
X-7900167Y-2337671D01*
X-7909690Y-2318624D01*
X-7919214Y-2290052D01*
X-7928738Y-2242433D01*
X-7928738Y-2204338D01*
X-7919214Y-2156719D01*
X-7909690Y-2128148D01*
X-7900167Y-2109100D01*
X-7881119Y-2080528D01*
X-7871595Y-2071005D01*
X-7690643Y-2299576D02*
X-7804929Y-2299576D01*
X-7747786Y-2299576D02*
X-7747786Y-2099576D01*
X-7766833Y-2128148D01*
X-7785881Y-2147195D01*
X-7804929Y-2156719D01*
X-7614452Y-2118624D02*
X-7604929Y-2109100D01*
X-7585881Y-2099576D01*
X-7538262Y-2099576D01*
X-7519214Y-2109100D01*
X-7509690Y-2118624D01*
X-7500167Y-2137671D01*
X-7500167Y-2156719D01*
X-7509690Y-2185290D01*
X-7623976Y-2299576D01*
X-7500167Y-2299576D01*
X-7262071Y-2299576D02*
X-7262071Y-2099576D01*
X-7176357Y-2299576D02*
X-7176357Y-2194814D01*
X-7185881Y-2175767D01*
X-7204929Y-2166243D01*
X-7233500Y-2166243D01*
X-7252548Y-2175767D01*
X-7262071Y-2185290D01*
X-7052548Y-2299576D02*
X-7071595Y-2290052D01*
X-7081119Y-2280529D01*
X-7090643Y-2261481D01*
X-7090643Y-2204338D01*
X-7081119Y-2185290D01*
X-7071595Y-2175767D01*
X-7052548Y-2166243D01*
X-7023976Y-2166243D01*
X-7004929Y-2175767D01*
X-6995405Y-2185290D01*
X-6985881Y-2204338D01*
X-6985881Y-2261481D01*
X-6995405Y-2280529D01*
X-7004929Y-2290052D01*
X-7023976Y-2299576D01*
X-7052548Y-2299576D01*
X-6871595Y-2299576D02*
X-6890643Y-2290052D01*
X-6900167Y-2271005D01*
X-6900167Y-2099576D01*
X-6719214Y-2290052D02*
X-6738262Y-2299576D01*
X-6776357Y-2299576D01*
X-6795405Y-2290052D01*
X-6804929Y-2271005D01*
X-6804929Y-2194814D01*
X-6795405Y-2175767D01*
X-6776357Y-2166243D01*
X-6738262Y-2166243D01*
X-6719214Y-2175767D01*
X-6709690Y-2194814D01*
X-6709690Y-2213862D01*
X-6804929Y-2232910D01*
X-6633500Y-2290052D02*
X-6614452Y-2299576D01*
X-6576357Y-2299576D01*
X-6557310Y-2290052D01*
X-6547786Y-2271005D01*
X-6547786Y-2261481D01*
X-6557310Y-2242433D01*
X-6576357Y-2232910D01*
X-6604929Y-2232910D01*
X-6623976Y-2223386D01*
X-6633500Y-2204338D01*
X-6633500Y-2194814D01*
X-6623976Y-2175767D01*
X-6604929Y-2166243D01*
X-6576357Y-2166243D01*
X-6557310Y-2175767D01*
X-6481119Y-2375767D02*
X-6471595Y-2366243D01*
X-6452548Y-2337671D01*
X-6443024Y-2318624D01*
X-6433500Y-2290052D01*
X-6423976Y-2242433D01*
X-6423976Y-2204338D01*
X-6433500Y-2156719D01*
X-6443024Y-2128148D01*
X-6452548Y-2109100D01*
X-6471595Y-2080528D01*
X-6481119Y-2071005D01*
D11*
X-11543500Y-2423100D02*
X-11443500Y-2523100D01*
X-11443500Y-2423100D02*
X-11543500Y-2523100D01*
X-11443500Y-2473100D02*
G75*
G03*
X-11443500Y-2473100I-50000J0D01*
G01*
D12*
X-11081119Y-2563576D02*
X-11195405Y-2563576D01*
X-11138262Y-2563576D02*
X-11138262Y-2363576D01*
X-11157310Y-2392148D01*
X-11176357Y-2411195D01*
X-11195405Y-2420719D01*
X-10995405Y-2544529D02*
X-10985881Y-2554052D01*
X-10995405Y-2563576D01*
X-11004929Y-2554052D01*
X-10995405Y-2544529D01*
X-10995405Y-2563576D01*
X-10862072Y-2363576D02*
X-10843024Y-2363576D01*
X-10823976Y-2373100D01*
X-10814452Y-2382624D01*
X-10804929Y-2401671D01*
X-10795405Y-2439767D01*
X-10795405Y-2487386D01*
X-10804929Y-2525481D01*
X-10814452Y-2544529D01*
X-10823976Y-2554052D01*
X-10843024Y-2563576D01*
X-10862072Y-2563576D01*
X-10881119Y-2554052D01*
X-10890643Y-2544529D01*
X-10900167Y-2525481D01*
X-10909691Y-2487386D01*
X-10909691Y-2439767D01*
X-10900167Y-2401671D01*
X-10890643Y-2382624D01*
X-10881119Y-2373100D01*
X-10862072Y-2363576D01*
X-10671595Y-2363576D02*
X-10652548Y-2363576D01*
X-10633500Y-2373100D01*
X-10623976Y-2382624D01*
X-10614452Y-2401671D01*
X-10604929Y-2439767D01*
X-10604929Y-2487386D01*
X-10614452Y-2525481D01*
X-10623976Y-2544529D01*
X-10633500Y-2554052D01*
X-10652548Y-2563576D01*
X-10671595Y-2563576D01*
X-10690643Y-2554052D01*
X-10700167Y-2544529D01*
X-10709691Y-2525481D01*
X-10719214Y-2487386D01*
X-10719214Y-2439767D01*
X-10709691Y-2401671D01*
X-10700167Y-2382624D01*
X-10690643Y-2373100D01*
X-10671595Y-2363576D01*
X-10481119Y-2363576D02*
X-10462072Y-2363576D01*
X-10443024Y-2373100D01*
X-10433500Y-2382624D01*
X-10423976Y-2401671D01*
X-10414452Y-2439767D01*
X-10414452Y-2487386D01*
X-10423976Y-2525481D01*
X-10433500Y-2544529D01*
X-10443024Y-2554052D01*
X-10462072Y-2563576D01*
X-10481119Y-2563576D01*
X-10500167Y-2554052D01*
X-10509691Y-2544529D01*
X-10519214Y-2525481D01*
X-10528738Y-2487386D01*
X-10528738Y-2439767D01*
X-10519214Y-2401671D01*
X-10509691Y-2382624D01*
X-10500167Y-2373100D01*
X-10481119Y-2363576D01*
X-10328738Y-2563576D02*
X-10328738Y-2430243D01*
X-10328738Y-2449290D02*
X-10319214Y-2439767D01*
X-10300167Y-2430243D01*
X-10271595Y-2430243D01*
X-10252548Y-2439767D01*
X-10243024Y-2458814D01*
X-10243024Y-2563576D01*
X-10243024Y-2458814D02*
X-10233500Y-2439767D01*
X-10214452Y-2430243D01*
X-10185881Y-2430243D01*
X-10166833Y-2439767D01*
X-10157310Y-2458814D01*
X-10157310Y-2563576D01*
X-10062072Y-2563576D02*
X-10062072Y-2430243D01*
X-10062072Y-2449290D02*
X-10052548Y-2439767D01*
X-10033500Y-2430243D01*
X-10004929Y-2430243D01*
X-9985881Y-2439767D01*
X-9976357Y-2458814D01*
X-9976357Y-2563576D01*
X-9976357Y-2458814D02*
X-9966833Y-2439767D01*
X-9947786Y-2430243D01*
X-9919214Y-2430243D01*
X-9900167Y-2439767D01*
X-9890643Y-2458814D01*
X-9890643Y-2563576D01*
X-9500167Y-2354052D02*
X-9671595Y-2611195D01*
X-9243024Y-2363576D02*
X-9223976Y-2363576D01*
X-9204929Y-2373100D01*
X-9195405Y-2382624D01*
X-9185881Y-2401671D01*
X-9176357Y-2439767D01*
X-9176357Y-2487386D01*
X-9185881Y-2525481D01*
X-9195405Y-2544529D01*
X-9204929Y-2554052D01*
X-9223976Y-2563576D01*
X-9243024Y-2563576D01*
X-9262072Y-2554052D01*
X-9271595Y-2544529D01*
X-9281119Y-2525481D01*
X-9290643Y-2487386D01*
X-9290643Y-2439767D01*
X-9281119Y-2401671D01*
X-9271595Y-2382624D01*
X-9262072Y-2373100D01*
X-9243024Y-2363576D01*
X-9090643Y-2544529D02*
X-9081119Y-2554052D01*
X-9090643Y-2563576D01*
X-9100167Y-2554052D01*
X-9090643Y-2544529D01*
X-9090643Y-2563576D01*
X-8957310Y-2363576D02*
X-8938262Y-2363576D01*
X-8919214Y-2373100D01*
X-8909691Y-2382624D01*
X-8900167Y-2401671D01*
X-8890643Y-2439767D01*
X-8890643Y-2487386D01*
X-8900167Y-2525481D01*
X-8909691Y-2544529D01*
X-8919214Y-2554052D01*
X-8938262Y-2563576D01*
X-8957310Y-2563576D01*
X-8976357Y-2554052D01*
X-8985881Y-2544529D01*
X-8995405Y-2525481D01*
X-9004929Y-2487386D01*
X-9004929Y-2439767D01*
X-8995405Y-2401671D01*
X-8985881Y-2382624D01*
X-8976357Y-2373100D01*
X-8957310Y-2363576D01*
X-8823976Y-2363576D02*
X-8700167Y-2363576D01*
X-8766833Y-2439767D01*
X-8738262Y-2439767D01*
X-8719214Y-2449290D01*
X-8709691Y-2458814D01*
X-8700167Y-2477862D01*
X-8700167Y-2525481D01*
X-8709691Y-2544529D01*
X-8719214Y-2554052D01*
X-8738262Y-2563576D01*
X-8795405Y-2563576D01*
X-8814452Y-2554052D01*
X-8823976Y-2544529D01*
X-8604929Y-2563576D02*
X-8566833Y-2563576D01*
X-8547786Y-2554052D01*
X-8538262Y-2544529D01*
X-8519214Y-2515957D01*
X-8509691Y-2477862D01*
X-8509691Y-2401671D01*
X-8519214Y-2382624D01*
X-8528738Y-2373100D01*
X-8547786Y-2363576D01*
X-8585881Y-2363576D01*
X-8604929Y-2373100D01*
X-8614452Y-2382624D01*
X-8623976Y-2401671D01*
X-8623976Y-2449290D01*
X-8614452Y-2468338D01*
X-8604929Y-2477862D01*
X-8585881Y-2487386D01*
X-8547786Y-2487386D01*
X-8528738Y-2477862D01*
X-8519214Y-2468338D01*
X-8509691Y-2449290D01*
X-8338262Y-2430243D02*
X-8338262Y-2563576D01*
X-8385881Y-2354052D02*
X-8433500Y-2496910D01*
X-8309690Y-2496910D01*
X-8243024Y-2363576D02*
X-8243024Y-2401671D01*
X-8166833Y-2363576D02*
X-8166833Y-2401671D01*
X-7871595Y-2639767D02*
X-7881119Y-2630243D01*
X-7900167Y-2601671D01*
X-7909690Y-2582624D01*
X-7919214Y-2554052D01*
X-7928738Y-2506433D01*
X-7928738Y-2468338D01*
X-7919214Y-2420719D01*
X-7909690Y-2392148D01*
X-7900167Y-2373100D01*
X-7881119Y-2344529D01*
X-7871595Y-2335005D01*
X-7690643Y-2563576D02*
X-7804929Y-2563576D01*
X-7747786Y-2563576D02*
X-7747786Y-2363576D01*
X-7766833Y-2392148D01*
X-7785881Y-2411195D01*
X-7804929Y-2420719D01*
X-7614452Y-2382624D02*
X-7604929Y-2373100D01*
X-7585881Y-2363576D01*
X-7538262Y-2363576D01*
X-7519214Y-2373100D01*
X-7509690Y-2382624D01*
X-7500167Y-2401671D01*
X-7500167Y-2420719D01*
X-7509690Y-2449290D01*
X-7623976Y-2563576D01*
X-7500167Y-2563576D01*
X-7433500Y-2363576D02*
X-7309690Y-2363576D01*
X-7376357Y-2439767D01*
X-7347786Y-2439767D01*
X-7328738Y-2449290D01*
X-7319214Y-2458814D01*
X-7309690Y-2477862D01*
X-7309690Y-2525481D01*
X-7319214Y-2544529D01*
X-7328738Y-2554052D01*
X-7347786Y-2563576D01*
X-7404929Y-2563576D01*
X-7423976Y-2554052D01*
X-7433500Y-2544529D01*
X-7071595Y-2563576D02*
X-7071595Y-2363576D01*
X-6985881Y-2563576D02*
X-6985881Y-2458814D01*
X-6995405Y-2439767D01*
X-7014452Y-2430243D01*
X-7043024Y-2430243D01*
X-7062071Y-2439767D01*
X-7071595Y-2449290D01*
X-6862071Y-2563576D02*
X-6881119Y-2554052D01*
X-6890643Y-2544529D01*
X-6900167Y-2525481D01*
X-6900167Y-2468338D01*
X-6890643Y-2449290D01*
X-6881119Y-2439767D01*
X-6862071Y-2430243D01*
X-6833500Y-2430243D01*
X-6814452Y-2439767D01*
X-6804929Y-2449290D01*
X-6795405Y-2468338D01*
X-6795405Y-2525481D01*
X-6804929Y-2544529D01*
X-6814452Y-2554052D01*
X-6833500Y-2563576D01*
X-6862071Y-2563576D01*
X-6681119Y-2563576D02*
X-6700167Y-2554052D01*
X-6709690Y-2535005D01*
X-6709690Y-2363576D01*
X-6528738Y-2554052D02*
X-6547786Y-2563576D01*
X-6585881Y-2563576D01*
X-6604929Y-2554052D01*
X-6614452Y-2535005D01*
X-6614452Y-2458814D01*
X-6604929Y-2439767D01*
X-6585881Y-2430243D01*
X-6547786Y-2430243D01*
X-6528738Y-2439767D01*
X-6519214Y-2458814D01*
X-6519214Y-2477862D01*
X-6614452Y-2496910D01*
X-6443024Y-2554052D02*
X-6423976Y-2563576D01*
X-6385881Y-2563576D01*
X-6366833Y-2554052D01*
X-6357310Y-2535005D01*
X-6357310Y-2525481D01*
X-6366833Y-2506433D01*
X-6385881Y-2496910D01*
X-6414452Y-2496910D01*
X-6433500Y-2487386D01*
X-6443024Y-2468338D01*
X-6443024Y-2458814D01*
X-6433500Y-2439767D01*
X-6414452Y-2430243D01*
X-6385881Y-2430243D01*
X-6366833Y-2439767D01*
X-6290643Y-2639767D02*
X-6281119Y-2630243D01*
X-6262071Y-2601671D01*
X-6252548Y-2582624D01*
X-6243024Y-2554052D01*
X-6233500Y-2506433D01*
X-6233500Y-2468338D01*
X-6243024Y-2420719D01*
X-6252548Y-2392148D01*
X-6262071Y-2373100D01*
X-6281119Y-2344529D01*
X-6290643Y-2335005D01*
M02*
