%TF.GenerationSoftware,KiCad,Pcbnew,(6.0.10)*%
%TF.CreationDate,2023-11-27T14:58:48-03:00*%
%TF.ProjectId,ProyectoFinal_Invertido,50726f79-6563-4746-9f46-696e616c5f49,rev?*%
%TF.SameCoordinates,Original*%
%TF.FileFunction,Copper,L2,Bot*%
%TF.FilePolarity,Positive*%
%FSLAX46Y46*%
G04 Gerber Fmt 4.6, Leading zero omitted, Abs format (unit mm)*
G04 Created by KiCad (PCBNEW (6.0.10)) date 2023-11-27 14:58:48*
%MOMM*%
%LPD*%
G01*
G04 APERTURE LIST*
G04 Aperture macros list*
%AMRoundRect*
0 Rectangle with rounded corners*
0 $1 Rounding radius*
0 $2 $3 $4 $5 $6 $7 $8 $9 X,Y pos of 4 corners*
0 Add a 4 corners polygon primitive as box body*
4,1,4,$2,$3,$4,$5,$6,$7,$8,$9,$2,$3,0*
0 Add four circle primitives for the rounded corners*
1,1,$1+$1,$2,$3*
1,1,$1+$1,$4,$5*
1,1,$1+$1,$6,$7*
1,1,$1+$1,$8,$9*
0 Add four rect primitives between the rounded corners*
20,1,$1+$1,$2,$3,$4,$5,0*
20,1,$1+$1,$4,$5,$6,$7,0*
20,1,$1+$1,$6,$7,$8,$9,0*
20,1,$1+$1,$8,$9,$2,$3,0*%
%AMHorizOval*
0 Thick line with rounded ends*
0 $1 width*
0 $2 $3 position (X,Y) of the first rounded end (center of the circle)*
0 $4 $5 position (X,Y) of the second rounded end (center of the circle)*
0 Add line between two ends*
20,1,$1,$2,$3,$4,$5,0*
0 Add two circle primitives to create the rounded ends*
1,1,$1,$2,$3*
1,1,$1,$4,$5*%
%AMRotRect*
0 Rectangle, with rotation*
0 The origin of the aperture is its center*
0 $1 length*
0 $2 width*
0 $3 Rotation angle, in degrees counterclockwise*
0 Add horizontal line*
21,1,$1,$2,0,0,$3*%
G04 Aperture macros list end*
%TA.AperFunction,ComponentPad*%
%ADD10RotRect,1.700000X1.700000X315.000000*%
%TD*%
%TA.AperFunction,ComponentPad*%
%ADD11HorizOval,1.700000X0.000000X0.000000X0.000000X0.000000X0*%
%TD*%
%TA.AperFunction,ComponentPad*%
%ADD12R,1.700000X1.700000*%
%TD*%
%TA.AperFunction,ComponentPad*%
%ADD13O,1.700000X1.700000*%
%TD*%
%TA.AperFunction,ComponentPad*%
%ADD14C,1.600000*%
%TD*%
%TA.AperFunction,ComponentPad*%
%ADD15O,1.600000X1.600000*%
%TD*%
%TA.AperFunction,ComponentPad*%
%ADD16R,1.800000X1.800000*%
%TD*%
%TA.AperFunction,ComponentPad*%
%ADD17C,1.800000*%
%TD*%
%TA.AperFunction,ComponentPad*%
%ADD18RoundRect,0.250000X0.750000X-0.600000X0.750000X0.600000X-0.750000X0.600000X-0.750000X-0.600000X0*%
%TD*%
%TA.AperFunction,ComponentPad*%
%ADD19O,2.000000X1.700000*%
%TD*%
%TA.AperFunction,ComponentPad*%
%ADD20RoundRect,0.250000X-0.725000X0.600000X-0.725000X-0.600000X0.725000X-0.600000X0.725000X0.600000X0*%
%TD*%
%TA.AperFunction,ComponentPad*%
%ADD21O,1.950000X1.700000*%
%TD*%
%TA.AperFunction,ComponentPad*%
%ADD22RoundRect,0.250000X0.725000X-0.600000X0.725000X0.600000X-0.725000X0.600000X-0.725000X-0.600000X0*%
%TD*%
%TA.AperFunction,ComponentPad*%
%ADD23RoundRect,0.250000X-0.750000X0.600000X-0.750000X-0.600000X0.750000X-0.600000X0.750000X0.600000X0*%
%TD*%
%TA.AperFunction,ComponentPad*%
%ADD24RoundRect,0.250000X-0.600000X-0.750000X0.600000X-0.750000X0.600000X0.750000X-0.600000X0.750000X0*%
%TD*%
%TA.AperFunction,ComponentPad*%
%ADD25O,1.700000X2.000000*%
%TD*%
%TA.AperFunction,ComponentPad*%
%ADD26O,2.000000X1.600000*%
%TD*%
%TA.AperFunction,ComponentPad*%
%ADD27R,2.540000X2.540000*%
%TD*%
%TA.AperFunction,ComponentPad*%
%ADD28C,2.540000*%
%TD*%
%TA.AperFunction,ViaPad*%
%ADD29C,0.800000*%
%TD*%
%TA.AperFunction,Conductor*%
%ADD30C,1.000000*%
%TD*%
%TA.AperFunction,Conductor*%
%ADD31C,0.500000*%
%TD*%
G04 APERTURE END LIST*
D10*
%TO.P,J14,1,Pin_1*%
%TO.N,unconnected-(J14-Pad1)*%
X224541628Y-189665795D03*
D11*
%TO.P,J14,2,Pin_2*%
%TO.N,unconnected-(J14-Pad2)*%
X226337679Y-191461847D03*
%TO.P,J14,3,Pin_3*%
%TO.N,SPI_SCLK*%
X222745576Y-191461847D03*
%TO.P,J14,4,Pin_4*%
%TO.N,SPI_MISO*%
X224541628Y-193257898D03*
%TO.P,J14,5,Pin_5*%
%TO.N,SPI_MOSI*%
X220949525Y-193257898D03*
%TO.P,J14,6,Pin_6*%
%TO.N,GND*%
X222745576Y-195053949D03*
%TO.P,J14,7,Pin_7*%
%TO.N,unconnected-(J14-Pad7)*%
X219153474Y-195053949D03*
%TO.P,J14,8,Pin_8*%
%TO.N,unconnected-(J14-Pad8)*%
X220949525Y-196850000D03*
%TO.P,J14,9,Pin_9*%
%TO.N,unconnected-(J14-Pad9)*%
X217357423Y-196850000D03*
%TO.P,J14,10,Pin_10*%
%TO.N,+5V*%
X219153474Y-198646051D03*
%TO.P,J14,11,Pin_11*%
X215561372Y-198646051D03*
%TO.P,J14,12,Pin_12*%
%TO.N,GND*%
X217357423Y-200442103D03*
%TO.P,J14,13,Pin_13*%
X213765320Y-200442103D03*
%TO.P,J14,14,Pin_14*%
%TO.N,unconnected-(J14-Pad14)*%
X215561372Y-202238154D03*
%TO.P,J14,15,Pin_15*%
%TO.N,unconnected-(J14-Pad15)*%
X211969269Y-202238154D03*
%TO.P,J14,16,Pin_16*%
%TO.N,unconnected-(J14-Pad16)*%
X213765320Y-204034205D03*
%TD*%
D12*
%TO.P,J16,1,Pin_1*%
%TO.N,+3V3*%
X264298906Y-147041000D03*
D13*
%TO.P,J16,2,Pin_2*%
%TO.N,SWCLK*%
X261758906Y-147041000D03*
%TO.P,J16,3,Pin_3*%
%TO.N,GND*%
X259218906Y-147041000D03*
%TO.P,J16,4,Pin_4*%
%TO.N,SWDIO*%
X256678906Y-147041000D03*
%TD*%
D12*
%TO.P,J10,1,Pin_1*%
%TO.N,MOTOR4_PWMN*%
X260498906Y-187706000D03*
D13*
%TO.P,J10,2,Pin_2*%
%TO.N,MOTOR4_PWM*%
X260498906Y-190246000D03*
%TD*%
D12*
%TO.P,U3,1,PC10*%
%TO.N,MOTOR1_PWMN*%
X250664906Y-158750000D03*
D13*
%TO.P,U3,2,PC11*%
%TO.N,MOTOR1_ENCODER*%
X248124906Y-158750000D03*
%TO.P,U3,3,PC12*%
%TO.N,unconnected-(U3-Pad3)*%
X250664906Y-161290000D03*
%TO.P,U3,4,PD2*%
%TO.N,unconnected-(U3-Pad4)*%
X248124906Y-161290000D03*
%TO.P,U3,5,VDD*%
%TO.N,unconnected-(U3-Pad5)*%
X250664906Y-163830000D03*
%TO.P,U3,6,E5V*%
%TO.N,+5V*%
X248124906Y-163830000D03*
%TO.P,U3,7,BOOT0*%
%TO.N,unconnected-(U3-Pad7)*%
X250664906Y-166370000D03*
%TO.P,U3,8,GND*%
%TO.N,unconnected-(U3-Pad8)*%
X248124906Y-166370000D03*
%TO.P,U3,9,NC*%
%TO.N,unconnected-(U3-Pad9)*%
X250664906Y-168910000D03*
%TO.P,U3,10,NC*%
%TO.N,unconnected-(U3-Pad10)*%
X248124906Y-168910000D03*
%TO.P,U3,11,NC*%
%TO.N,unconnected-(U3-Pad11)*%
X250664906Y-171450000D03*
%TO.P,U3,12,IOREF*%
%TO.N,unconnected-(U3-Pad12)*%
X248124906Y-171450000D03*
%TO.P,U3,13,PA13*%
%TO.N,SWDIO*%
X250664906Y-173990000D03*
%TO.P,U3,14,RESET*%
%TO.N,unconnected-(U3-Pad14)*%
X248124906Y-173990000D03*
%TO.P,U3,15,PA14*%
%TO.N,SWCLK*%
X250664906Y-176530000D03*
%TO.P,U3,16,+3V3*%
%TO.N,+3V3*%
X248124906Y-176530000D03*
%TO.P,U3,17,PA15*%
%TO.N,MOTOR1_PWM*%
X250664906Y-179070000D03*
%TO.P,U3,18,+5V*%
%TO.N,+5V*%
X248124906Y-179070000D03*
%TO.P,U3,19,GND*%
%TO.N,GND*%
X250664906Y-181610000D03*
%TO.P,U3,20,GND*%
X248124906Y-181610000D03*
%TO.P,U3,21,PB7*%
%TO.N,unconnected-(U3-Pad21)*%
X250664906Y-184150000D03*
%TO.P,U3,22,GND*%
%TO.N,GND*%
X248124906Y-184150000D03*
%TO.P,U3,23,PC13*%
%TO.N,unconnected-(U3-Pad23)*%
X250664906Y-186690000D03*
%TO.P,U3,24,VIN*%
%TO.N,unconnected-(U3-Pad24)*%
X248124906Y-186690000D03*
%TO.P,U3,25,PC14*%
%TO.N,unconnected-(U3-Pad25)*%
X250664906Y-189230000D03*
%TO.P,U3,26,NC*%
%TO.N,unconnected-(U3-Pad26)*%
X248124906Y-189230000D03*
%TO.P,U3,27,PC15*%
%TO.N,MOTOR4_ENCODER*%
X250664906Y-191770000D03*
%TO.P,U3,28,PA0*%
%TO.N,unconnected-(U3-Pad28)*%
X248124906Y-191770000D03*
%TO.P,U3,29,PF0*%
%TO.N,unconnected-(U3-Pad29)*%
X250664906Y-194310000D03*
%TO.P,U3,30,PA1*%
%TO.N,MOTOR3_PWMN*%
X248124906Y-194310000D03*
%TO.P,U3,31,PF1*%
%TO.N,unconnected-(U3-Pad31)*%
X250664906Y-196850000D03*
%TO.P,U3,32,PA4*%
%TO.N,unconnected-(U3-Pad32)*%
X248124906Y-196850000D03*
%TO.P,U3,33,VBAT*%
%TO.N,unconnected-(U3-Pad33)*%
X250664906Y-199390000D03*
%TO.P,U3,34,PB0*%
%TO.N,unconnected-(U3-Pad34)*%
X248124906Y-199390000D03*
%TO.P,U3,35,PC2*%
%TO.N,unconnected-(U3-Pad35)*%
X250664906Y-201930000D03*
%TO.P,U3,36,PC1*%
%TO.N,unconnected-(U3-Pad36)*%
X248124906Y-201930000D03*
%TO.P,U3,37,PC3*%
%TO.N,unconnected-(U3-Pad37)*%
X250664906Y-204470000D03*
%TO.P,U3,38,PC0*%
%TO.N,MOTOR4_PWM*%
X248124906Y-204470000D03*
D12*
%TO.P,U3,39,PC9*%
%TO.N,unconnected-(U3-Pad39)*%
X189704906Y-158750000D03*
D13*
%TO.P,U3,40,PC8*%
%TO.N,MOTOR2_ENCODER*%
X187164906Y-158750000D03*
%TO.P,U3,41,PB8*%
%TO.N,I2C_SCL*%
X189704906Y-161290000D03*
%TO.P,U3,42,PC6*%
%TO.N,MOTOR3_ENCODER*%
X187164906Y-161290000D03*
%TO.P,U3,43,PB9*%
%TO.N,I2C_SDA*%
X189704906Y-163830000D03*
%TO.P,U3,44,PC5*%
%TO.N,Vbat*%
X187164906Y-163830000D03*
%TO.P,U3,45,AVDD*%
%TO.N,unconnected-(U3-Pad45)*%
X189704906Y-166370000D03*
%TO.P,U3,46,U5V*%
%TO.N,unconnected-(U3-Pad46)*%
X187164906Y-166370000D03*
%TO.P,U3,47,GND*%
%TO.N,GND*%
X189704906Y-168910000D03*
%TO.P,U3,48,NC*%
%TO.N,unconnected-(U3-Pad48)*%
X187164906Y-168910000D03*
%TO.P,U3,49,PA5*%
%TO.N,SPI_SCLK*%
X189704906Y-171450000D03*
%TO.P,U3,50,PA12*%
%TO.N,MOTOR2_PWM*%
X187164906Y-171450000D03*
%TO.P,U3,51,PA6*%
%TO.N,SPI_MISO*%
X189704906Y-173990000D03*
%TO.P,U3,52,PA11*%
%TO.N,unconnected-(U3-Pad52)*%
X187164906Y-173990000D03*
%TO.P,U3,53,PA7*%
%TO.N,SPI_MOSI*%
X189704906Y-176530000D03*
%TO.P,U3,54,PB12*%
%TO.N,unconnected-(U3-Pad54)*%
X187164906Y-176530000D03*
%TO.P,U3,55,PB6*%
%TO.N,MOTOR2_PWMN*%
X189704906Y-179070000D03*
%TO.P,U3,56,PB11*%
%TO.N,unconnected-(U3-Pad56)*%
X187164906Y-179070000D03*
%TO.P,U3,57,PC7*%
%TO.N,unconnected-(U3-Pad57)*%
X189704906Y-181610000D03*
%TO.P,U3,58,GND*%
%TO.N,unconnected-(U3-Pad58)*%
X187164906Y-181610000D03*
%TO.P,U3,59,PA9*%
%TO.N,unconnected-(U3-Pad59)*%
X189704906Y-184150000D03*
%TO.P,U3,60,PB2*%
%TO.N,unconnected-(U3-Pad60)*%
X187164906Y-184150000D03*
%TO.P,U3,61,PA8*%
%TO.N,unconnected-(U3-Pad61)*%
X189704906Y-186690000D03*
%TO.P,U3,62,PB1*%
%TO.N,unconnected-(U3-Pad62)*%
X187164906Y-186690000D03*
%TO.P,U3,63,PB10*%
%TO.N,unconnected-(U3-Pad63)*%
X189704906Y-189230000D03*
%TO.P,U3,64,PB15*%
%TO.N,unconnected-(U3-Pad64)*%
X187164906Y-189230000D03*
%TO.P,U3,65,PB4*%
%TO.N,unconnected-(U3-Pad65)*%
X189704906Y-191770000D03*
%TO.P,U3,66,PB14*%
%TO.N,MOTOR3_PWM*%
X187164906Y-191770000D03*
%TO.P,U3,67,PB5*%
%TO.N,unconnected-(U3-Pad67)*%
X189704906Y-194310000D03*
%TO.P,U3,68,PB13*%
%TO.N,MOTOR4_PWMN*%
X187164906Y-194310000D03*
%TO.P,U3,69,PB3*%
%TO.N,unconnected-(U3-Pad69)*%
X189704906Y-196850000D03*
%TO.P,U3,70,AGND*%
%TO.N,unconnected-(U3-Pad70)*%
X187164906Y-196850000D03*
%TO.P,U3,71,PA10*%
%TO.N,UART_RX*%
X189704906Y-199390000D03*
%TO.P,U3,72,PC4*%
%TO.N,UART_TX*%
X187164906Y-199390000D03*
%TO.P,U3,73,PA2*%
%TO.N,unconnected-(U3-Pad73)*%
X189704906Y-201930000D03*
%TO.P,U3,74,NC*%
%TO.N,unconnected-(U3-Pad74)*%
X187164906Y-201930000D03*
%TO.P,U3,75,PA3*%
%TO.N,unconnected-(U3-Pad75)*%
X189704906Y-204470000D03*
%TO.P,U3,76,NC*%
%TO.N,unconnected-(U3-Pad76)*%
X187164906Y-204470000D03*
%TD*%
D14*
%TO.P,R11,1*%
%TO.N,Vbat*%
X185227706Y-149606000D03*
D15*
%TO.P,R11,2*%
%TO.N,GND*%
X195387706Y-149606000D03*
%TD*%
D16*
%TO.P,D1,1,K*%
%TO.N,GND*%
X207906906Y-120645000D03*
D17*
%TO.P,D1,2,A*%
%TO.N,Net-(D1-Pad2)*%
X207906906Y-123185000D03*
%TD*%
D14*
%TO.P,R12,1*%
%TO.N,+5V*%
X165502906Y-149860000D03*
D15*
%TO.P,R12,2*%
%TO.N,I2C_SCL*%
X175662906Y-149860000D03*
%TD*%
D12*
%TO.P,J9,1,Pin_1*%
%TO.N,MOTOR3_PWMN*%
X176551906Y-190256000D03*
D13*
%TO.P,J9,2,Pin_2*%
%TO.N,MOTOR3_PWM*%
X176551906Y-187716000D03*
%TD*%
D14*
%TO.P,C1,1*%
%TO.N,Vbat*%
X181718906Y-163830000D03*
%TO.P,C1,2*%
%TO.N,GND*%
X181718906Y-168830000D03*
%TD*%
D18*
%TO.P,J4,1,Pin_1*%
%TO.N,+12V*%
X176851906Y-173716000D03*
D19*
%TO.P,J4,2,Pin_2*%
%TO.N,GND*%
X176851906Y-171216000D03*
%TD*%
D20*
%TO.P,J6,1,Pin_1*%
%TO.N,MOTOR4_ENCODER*%
X260152906Y-199343000D03*
D21*
%TO.P,J6,2,Pin_2*%
%TO.N,GND*%
X260152906Y-201843000D03*
%TO.P,J6,3,Pin_3*%
%TO.N,Net-(J6-Pad3)*%
X260152906Y-204343000D03*
%TD*%
D12*
%TO.P,J8,1,Pin_1*%
%TO.N,MOTOR2_PWMN*%
X176551906Y-182377000D03*
D13*
%TO.P,J8,2,Pin_2*%
%TO.N,MOTOR2_PWM*%
X176551906Y-179837000D03*
%TD*%
D14*
%TO.P,R5,1*%
%TO.N,+5V*%
X168652506Y-155194000D03*
D15*
%TO.P,R5,2*%
%TO.N,MOTOR2_ENCODER*%
X168652506Y-165354000D03*
%TD*%
D14*
%TO.P,R7,1*%
%TO.N,+5V*%
X165502906Y-155194000D03*
D15*
%TO.P,R7,2*%
%TO.N,Net-(J5-Pad3)*%
X165502906Y-165354000D03*
%TD*%
D14*
%TO.P,R3,1*%
%TO.N,+5V*%
X267610906Y-155194000D03*
D15*
%TO.P,R3,2*%
%TO.N,Net-(J2-Pad3)*%
X267610906Y-165354000D03*
%TD*%
D14*
%TO.P,R4,1*%
%TO.N,+5V*%
X168652506Y-205807000D03*
D15*
%TO.P,R4,2*%
%TO.N,Net-(J3-Pad3)*%
X168652506Y-195647000D03*
%TD*%
D14*
%TO.P,R8,1*%
%TO.N,+5V*%
X272182906Y-205807000D03*
D15*
%TO.P,R8,2*%
%TO.N,Net-(J6-Pad3)*%
X272182906Y-195647000D03*
%TD*%
D14*
%TO.P,R1,1*%
%TO.N,+5V*%
X270912906Y-155194000D03*
D15*
%TO.P,R1,2*%
%TO.N,MOTOR1_ENCODER*%
X270912906Y-165354000D03*
%TD*%
D14*
%TO.P,R10,1*%
%TO.N,Net-(R10-Pad1)*%
X195387706Y-146558000D03*
D15*
%TO.P,R10,2*%
%TO.N,Vbat*%
X185227706Y-146558000D03*
%TD*%
D22*
%TO.P,J3,1,Pin_1*%
%TO.N,MOTOR3_ENCODER*%
X176851906Y-204343000D03*
D21*
%TO.P,J3,2,Pin_2*%
%TO.N,GND*%
X176851906Y-201843000D03*
%TO.P,J3,3,Pin_3*%
%TO.N,Net-(J3-Pad3)*%
X176851906Y-199343000D03*
%TD*%
D14*
%TO.P,R13,1*%
%TO.N,+5V*%
X165502906Y-146558000D03*
D15*
%TO.P,R13,2*%
%TO.N,I2C_SDA*%
X175662906Y-146558000D03*
%TD*%
D23*
%TO.P,J1,1,Pin_1*%
%TO.N,GND*%
X260198906Y-171216000D03*
D19*
%TO.P,J1,2,Pin_2*%
%TO.N,+12V*%
X260198906Y-173716000D03*
%TD*%
D24*
%TO.P,J12,1,Pin_1*%
%TO.N,Net-(J12-Pad1)*%
X166264906Y-117602000D03*
D25*
%TO.P,J12,2,Pin_2*%
%TO.N,GND*%
X168764906Y-117602000D03*
%TD*%
D26*
%TO.P,U1,1,Vcc*%
%TO.N,+5V*%
X195387706Y-122174000D03*
%TO.P,U1,2,GND*%
%TO.N,GND*%
X195387706Y-124714000D03*
%TO.P,U1,3,SCL*%
%TO.N,I2C_SCL*%
X195387706Y-127254000D03*
%TO.P,U1,4,SDA*%
%TO.N,I2C_SDA*%
X195387706Y-129794000D03*
%TO.P,U1,5,Vin-*%
%TO.N,+12V*%
X195387706Y-132334000D03*
%TO.P,U1,6,Vin+*%
%TO.N,Net-(R10-Pad1)*%
X195387706Y-134874000D03*
%TD*%
D22*
%TO.P,J5,1,Pin_1*%
%TO.N,MOTOR2_ENCODER*%
X176851906Y-164024000D03*
D21*
%TO.P,J5,2,Pin_2*%
%TO.N,GND*%
X176851906Y-161524000D03*
%TO.P,J5,3,Pin_3*%
%TO.N,Net-(J5-Pad3)*%
X176851906Y-159024000D03*
%TD*%
D14*
%TO.P,R9,1*%
%TO.N,+12V*%
X207906906Y-138319200D03*
D15*
%TO.P,R9,2*%
%TO.N,Net-(D1-Pad2)*%
X207906906Y-128159200D03*
%TD*%
D12*
%TO.P,J15,1,Pin_1*%
%TO.N,GND*%
X225317811Y-213278000D03*
D13*
%TO.P,J15,2,Pin_2*%
%TO.N,unconnected-(J15-Pad2)*%
X222777811Y-213278000D03*
%TO.P,J15,3,Pin_3*%
%TO.N,unconnected-(J15-Pad3)*%
X220237811Y-213278000D03*
%TO.P,J15,4,Pin_4*%
%TO.N,UART_TX*%
X217697811Y-213278000D03*
%TO.P,J15,5,Pin_5*%
%TO.N,UART_RX*%
X215157811Y-213278000D03*
%TO.P,J15,6,Pin_6*%
%TO.N,unconnected-(J15-Pad6)*%
X212617811Y-213278000D03*
%TD*%
D14*
%TO.P,R2,1*%
%TO.N,+5V*%
X165502906Y-205807000D03*
D15*
%TO.P,R2,2*%
%TO.N,MOTOR3_ENCODER*%
X165502906Y-195647000D03*
%TD*%
D12*
%TO.P,J7,1,Pin_1*%
%TO.N,MOTOR1_PWMN*%
X260452906Y-179827000D03*
D13*
%TO.P,J7,2,Pin_2*%
%TO.N,MOTOR1_PWM*%
X260452906Y-182367000D03*
%TD*%
D27*
%TO.P,U2,1,IN+*%
%TO.N,+12V*%
X217431906Y-138319200D03*
D28*
%TO.P,U2,2,IN-*%
%TO.N,GND*%
X217431906Y-120539200D03*
%TO.P,U2,3,OUT+*%
%TO.N,+5V*%
X258071906Y-138319200D03*
%TO.P,U2,4,OUT-*%
%TO.N,GND*%
X258071906Y-120539200D03*
%TD*%
D14*
%TO.P,R6,1*%
%TO.N,+5V*%
X268880906Y-205807000D03*
D15*
%TO.P,R6,2*%
%TO.N,MOTOR4_ENCODER*%
X268880906Y-195647000D03*
%TD*%
D20*
%TO.P,J2,1,Pin_1*%
%TO.N,MOTOR1_ENCODER*%
X260198906Y-159024000D03*
D21*
%TO.P,J2,2,Pin_2*%
%TO.N,GND*%
X260198906Y-161524000D03*
%TO.P,J2,3,Pin_3*%
%TO.N,Net-(J2-Pad3)*%
X260198906Y-164024000D03*
%TD*%
D29*
%TO.N,GND*%
X245512906Y-154940000D03*
X233828906Y-191770000D03*
X230272906Y-191770000D03*
X250592906Y-154940000D03*
%TO.N,+12V*%
X190140906Y-132334000D03*
X184552906Y-132334000D03*
%TO.N,MOTOR2_PWMN*%
X196490906Y-198340500D03*
X196490906Y-202692000D03*
%TO.N,MOTOR3_PWMN*%
X243480906Y-201422000D03*
X243480906Y-203962000D03*
%TO.N,+5V*%
X253640906Y-136652000D03*
X217318906Y-126492000D03*
X253640906Y-133096000D03*
X221128906Y-126492000D03*
%TO.N,SPI_SCLK*%
X193442906Y-175260000D03*
X193442906Y-171196000D03*
%TO.N,Net-(R10-Pad1)*%
X181250906Y-134874000D03*
X190140906Y-134874000D03*
%TO.N,+3V3*%
X243734906Y-153670000D03*
X250592906Y-153670000D03*
%TD*%
D30*
%TO.N,GND*%
X250592906Y-154940000D02*
X245512906Y-154940000D01*
X233828906Y-191770000D02*
X230272906Y-191770000D01*
%TO.N,+12V*%
X184552906Y-132334000D02*
X190140906Y-132334000D01*
D31*
%TO.N,MOTOR2_PWMN*%
X196490906Y-202692000D02*
X196490906Y-198340500D01*
%TO.N,MOTOR3_PWMN*%
X243480906Y-201422000D02*
X243480906Y-203962000D01*
D30*
%TO.N,+5V*%
X221128906Y-126492000D02*
X217318906Y-126492000D01*
X253640906Y-136652000D02*
X253640906Y-133096000D01*
D31*
%TO.N,SPI_SCLK*%
X193442906Y-175260000D02*
X193442906Y-171196000D01*
D30*
%TO.N,Net-(R10-Pad1)*%
X181250906Y-134874000D02*
X190140906Y-134874000D01*
D31*
%TO.N,+3V3*%
X243734906Y-153670000D02*
X250592906Y-153670000D01*
%TD*%
M02*
