%TF.GenerationSoftware,KiCad,Pcbnew,6.0.2+dfsg-1*%
%TF.CreationDate,2023-11-29T12:07:55-03:00*%
%TF.ProjectId,ProyectoFinal,50726f79-6563-4746-9f46-696e616c2e6b,rev?*%
%TF.SameCoordinates,Original*%
%TF.FileFunction,Copper,L1,Top*%
%TF.FilePolarity,Positive*%
%FSLAX46Y46*%
G04 Gerber Fmt 4.6, Leading zero omitted, Abs format (unit mm)*
G04 Created by KiCad (PCBNEW 6.0.2+dfsg-1) date 2023-11-29 12:07:55*
%MOMM*%
%LPD*%
G01*
G04 APERTURE LIST*
G04 Aperture macros list*
%AMRotRect*
0 Rectangle, with rotation*
0 The origin of the aperture is its center*
0 $1 length*
0 $2 width*
0 $3 Rotation angle, in degrees counterclockwise*
0 Add horizontal line*
21,1,$1,$2,0,0,$3*%
G04 Aperture macros list end*
%TA.AperFunction,ComponentPad*%
%ADD10R,1.800000X1.800000*%
%TD*%
%TA.AperFunction,ComponentPad*%
%ADD11R,1.700000X1.700000*%
%TD*%
%TA.AperFunction,ComponentPad*%
%ADD12RotRect,1.800000X1.800000X315.000000*%
%TD*%
%TA.AperFunction,SMDPad,CuDef*%
%ADD13R,2.400000X2.400000*%
%TD*%
%TA.AperFunction,ComponentPad*%
%ADD14R,2.540000X2.540000*%
%TD*%
%TA.AperFunction,ComponentPad*%
%ADD15C,1.600000*%
%TD*%
%TA.AperFunction,ViaPad*%
%ADD16C,1.400000*%
%TD*%
%TA.AperFunction,Conductor*%
%ADD17C,1.000000*%
%TD*%
%TA.AperFunction,Conductor*%
%ADD18C,0.500000*%
%TD*%
%TA.AperFunction,Conductor*%
%ADD19C,0.800000*%
%TD*%
G04 APERTURE END LIST*
D10*
%TO.P,J12,1,Pin_1*%
%TO.N,Net-(J12-Pad1)*%
X218422526Y-119560000D03*
%TO.P,J12,2,Pin_2*%
%TO.N,GND*%
X220922526Y-119560000D03*
%TD*%
%TO.P,D1,1,K*%
%TO.N,GND*%
X230104526Y-119120000D03*
%TO.P,D1,2,A*%
%TO.N,Net-(D1-Pad2)*%
X230104526Y-121660000D03*
%TD*%
%TO.P,R9,2*%
%TO.N,Net-(D1-Pad2)*%
X230104526Y-126740000D03*
%TO.P,R9,1*%
%TO.N,+12V*%
X230104526Y-136900000D03*
%TD*%
%TO.P,R6,1*%
%TO.N,+5V*%
X284678716Y-205807000D03*
%TO.P,R6,2*%
%TO.N,MOTOR4_ENCODER*%
X284678716Y-195647000D03*
%TD*%
%TO.P,R8,1*%
%TO.N,+5V*%
X287980716Y-205807000D03*
%TO.P,R8,2*%
%TO.N,Net-(J6-Pad3)*%
X287980716Y-195647000D03*
%TD*%
D11*
%TO.P,J10,1,Pin_1*%
%TO.N,MOTOR4_PWMN*%
X276296716Y-187706000D03*
%TO.P,J10,2,Pin_2*%
%TO.N,MOTOR4_PWM*%
X276296716Y-190246000D03*
%TD*%
%TO.P,J7,1,Pin_1*%
%TO.N,MOTOR1_PWMN*%
X276250716Y-179827000D03*
%TO.P,J7,2,Pin_2*%
%TO.N,MOTOR1_PWM*%
X276250716Y-182367000D03*
%TD*%
D10*
%TO.P,J1,1,Pin_1*%
%TO.N,GND*%
X275996716Y-171216000D03*
%TO.P,J1,2,Pin_2*%
%TO.N,+12V*%
X275996716Y-173716000D03*
%TD*%
%TO.P,R1,1*%
%TO.N,+5V*%
X286710716Y-155194000D03*
%TO.P,R1,2*%
%TO.N,MOTOR1_ENCODER*%
X286710716Y-165354000D03*
%TD*%
D11*
%TO.P,J16,1,Pin_1*%
%TO.N,+3V3*%
X280096716Y-147041000D03*
%TO.P,J16,2,Pin_2*%
%TO.N,SWCLK*%
X277556716Y-147041000D03*
%TO.P,J16,3,Pin_3*%
%TO.N,GND*%
X275016716Y-147041000D03*
%TO.P,J16,4,Pin_4*%
%TO.N,SWDIO*%
X272476716Y-147041000D03*
%TD*%
D10*
%TO.P,R11,1*%
%TO.N,Vbat*%
X201025516Y-149606000D03*
%TO.P,R11,2*%
%TO.N,GND*%
X211185516Y-149606000D03*
%TD*%
%TO.P,R10,1*%
%TO.N,Net-(R10-Pad1)*%
X211185516Y-146558000D03*
%TO.P,R10,2*%
%TO.N,Vbat*%
X201025516Y-146558000D03*
%TD*%
%TO.P,R13,1*%
%TO.N,+5V*%
X181300716Y-146558000D03*
%TO.P,R13,2*%
%TO.N,I2C_SDA*%
X191460716Y-146558000D03*
%TD*%
%TO.P,R12,1*%
%TO.N,+5V*%
X181300716Y-149860000D03*
%TO.P,R12,2*%
%TO.N,I2C_SCL*%
X191460716Y-149860000D03*
%TD*%
%TO.P,R7,1*%
%TO.N,+5V*%
X181300716Y-155194000D03*
%TO.P,R7,2*%
%TO.N,Net-(J5-Pad3)*%
X181300716Y-165354000D03*
%TD*%
%TO.P,R5,1*%
%TO.N,+5V*%
X184450316Y-155194000D03*
%TO.P,R5,2*%
%TO.N,MOTOR2_ENCODER*%
X184450316Y-165354000D03*
%TD*%
%TO.P,J5,1,Pin_1*%
%TO.N,MOTOR2_ENCODER*%
X192649716Y-164024000D03*
%TO.P,J5,2,Pin_2*%
%TO.N,GND*%
X192649716Y-161524000D03*
%TO.P,J5,3,Pin_3*%
%TO.N,Net-(J5-Pad3)*%
X192649716Y-159024000D03*
%TD*%
%TO.P,J4,1,Pin_1*%
%TO.N,+12V*%
X192649716Y-173716000D03*
%TO.P,J4,2,Pin_2*%
%TO.N,GND*%
X192649716Y-171216000D03*
%TD*%
D11*
%TO.P,J8,1,Pin_1*%
%TO.N,MOTOR2_PWMN*%
X192349716Y-182377000D03*
%TO.P,J8,2,Pin_2*%
%TO.N,MOTOR2_PWM*%
X192349716Y-179837000D03*
%TD*%
%TO.P,J9,2,Pin_2*%
%TO.N,MOTOR3_PWM*%
X192322526Y-187716000D03*
%TO.P,J9,1,Pin_1*%
%TO.N,MOTOR3_PWMN*%
X192322526Y-190256000D03*
%TD*%
D10*
%TO.P,R2,1*%
%TO.N,+5V*%
X181300716Y-205807000D03*
%TO.P,R2,2*%
%TO.N,MOTOR3_ENCODER*%
X181300716Y-195647000D03*
%TD*%
%TO.P,R4,1*%
%TO.N,+5V*%
X184450316Y-205807000D03*
%TO.P,R4,2*%
%TO.N,Net-(J3-Pad3)*%
X184450316Y-195647000D03*
%TD*%
%TO.P,J3,3,Pin_3*%
%TO.N,Net-(J3-Pad3)*%
X192622526Y-199300000D03*
%TO.P,J3,2,Pin_2*%
%TO.N,GND*%
X192622526Y-201800000D03*
%TO.P,J3,1,Pin_1*%
%TO.N,MOTOR3_ENCODER*%
X192622526Y-204300000D03*
%TD*%
%TO.P,J15,1,Pin_1*%
%TO.N,GND*%
X241115621Y-213278000D03*
%TO.P,J15,2,Pin_2*%
%TO.N,unconnected-(J15-Pad2)*%
X238575621Y-213278000D03*
%TO.P,J15,3,Pin_3*%
%TO.N,unconnected-(J15-Pad3)*%
X236035621Y-213278000D03*
%TO.P,J15,4,Pin_4*%
%TO.N,UART_TX*%
X233495621Y-213278000D03*
%TO.P,J15,5,Pin_5*%
%TO.N,UART_RX*%
X230955621Y-213278000D03*
%TO.P,J15,6,Pin_6*%
%TO.N,unconnected-(J15-Pad6)*%
X228415621Y-213278000D03*
%TD*%
%TO.P,J6,1,Pin_1*%
%TO.N,MOTOR4_ENCODER*%
X275950716Y-199343000D03*
%TO.P,J6,2,Pin_2*%
%TO.N,GND*%
X275950716Y-201843000D03*
%TO.P,J6,3,Pin_3*%
%TO.N,Net-(J6-Pad3)*%
X275950716Y-204343000D03*
%TD*%
D12*
%TO.P,J14,1,Pin_1*%
%TO.N,unconnected-(J14-Pad1)*%
X240339438Y-189665795D03*
%TO.P,J14,2,Pin_2*%
%TO.N,unconnected-(J14-Pad2)*%
X242135489Y-191461847D03*
%TO.P,J14,3,Pin_3*%
%TO.N,SPI_SCLK*%
X238543386Y-191461847D03*
%TO.P,J14,4,Pin_4*%
%TO.N,SPI_MISO*%
X240339438Y-193257898D03*
%TO.P,J14,5,Pin_5*%
%TO.N,SPI_MOSI*%
X236747335Y-193257898D03*
%TO.P,J14,6,Pin_6*%
%TO.N,GND*%
X238543386Y-195053949D03*
%TO.P,J14,7,Pin_7*%
%TO.N,unconnected-(J14-Pad7)*%
X234951284Y-195053949D03*
%TO.P,J14,8,Pin_8*%
%TO.N,unconnected-(J14-Pad8)*%
X236747335Y-196850000D03*
%TO.P,J14,9,Pin_9*%
%TO.N,unconnected-(J14-Pad9)*%
X233155233Y-196850000D03*
%TO.P,J14,10,Pin_10*%
%TO.N,+5V*%
X234951284Y-198646051D03*
%TO.P,J14,11,Pin_11*%
X231359182Y-198646051D03*
%TO.P,J14,12,Pin_12*%
%TO.N,GND*%
X233155233Y-200442103D03*
%TO.P,J14,13,Pin_13*%
X229563130Y-200442103D03*
%TO.P,J14,14,Pin_14*%
%TO.N,unconnected-(J14-Pad14)*%
X231359182Y-202238154D03*
%TO.P,J14,15,Pin_15*%
%TO.N,unconnected-(J14-Pad15)*%
X227767079Y-202238154D03*
%TO.P,J14,16,Pin_16*%
%TO.N,unconnected-(J14-Pad16)*%
X229563130Y-204034205D03*
%TD*%
D10*
%TO.P,U1,1,Vcc*%
%TO.N,+5V*%
X211185516Y-122174000D03*
%TO.P,U1,2,GND*%
%TO.N,GND*%
X211185516Y-124714000D03*
%TO.P,U1,3,SCL*%
%TO.N,I2C_SCL*%
X211185516Y-127254000D03*
%TO.P,U1,4,SDA*%
%TO.N,I2C_SDA*%
X211185516Y-129794000D03*
%TO.P,U1,5,Vin-*%
%TO.N,+12V*%
X211185516Y-132334000D03*
%TO.P,U1,6,Vin+*%
%TO.N,Net-(R10-Pad1)*%
X211185516Y-134874000D03*
%TD*%
D13*
%TO.P,SW1,1,A*%
%TO.N,Net-(J12-Pad1)*%
X190950716Y-122433800D03*
%TO.P,SW1,2,B*%
%TO.N,Net-(R10-Pad1)*%
X191036716Y-128433800D03*
%TD*%
D14*
%TO.P,U2,1,IN+*%
%TO.N,+12V*%
X239629526Y-136900000D03*
%TO.P,U2,2,IN-*%
%TO.N,GND*%
X239629526Y-119120000D03*
%TO.P,U2,3,OUT+*%
%TO.N,+5V*%
X280269526Y-136900000D03*
%TO.P,U2,4,OUT-*%
%TO.N,GND*%
X280269526Y-119120000D03*
%TD*%
D10*
%TO.P,R3,1*%
%TO.N,+5V*%
X283408716Y-155194000D03*
%TO.P,R3,2*%
%TO.N,Net-(J2-Pad3)*%
X283408716Y-165354000D03*
%TD*%
%TO.P,J2,1,Pin_1*%
%TO.N,MOTOR1_ENCODER*%
X275996716Y-159024000D03*
%TO.P,J2,2,Pin_2*%
%TO.N,GND*%
X275996716Y-161524000D03*
%TO.P,J2,3,Pin_3*%
%TO.N,Net-(J2-Pad3)*%
X275996716Y-164024000D03*
%TD*%
%TO.P,U3,1,PC10*%
%TO.N,MOTOR1_PWMN*%
X266462716Y-158750000D03*
%TO.P,U3,2,PC11*%
%TO.N,MOTOR1_ENCODER*%
X263922716Y-158750000D03*
%TO.P,U3,3,PC12*%
%TO.N,unconnected-(U3-Pad3)*%
X266462716Y-161290000D03*
%TO.P,U3,4,PD2*%
%TO.N,unconnected-(U3-Pad4)*%
X263922716Y-161290000D03*
%TO.P,U3,5,VDD*%
%TO.N,unconnected-(U3-Pad5)*%
X266462716Y-163830000D03*
%TO.P,U3,6,E5V*%
%TO.N,+5V*%
X263922716Y-163830000D03*
%TO.P,U3,7,BOOT0*%
%TO.N,unconnected-(U3-Pad7)*%
X266462716Y-166370000D03*
%TO.P,U3,8,GND*%
%TO.N,unconnected-(U3-Pad8)*%
X263922716Y-166370000D03*
%TO.P,U3,9,NC*%
%TO.N,unconnected-(U3-Pad9)*%
X266462716Y-168910000D03*
%TO.P,U3,10,NC*%
%TO.N,unconnected-(U3-Pad10)*%
X263922716Y-168910000D03*
%TO.P,U3,11,NC*%
%TO.N,unconnected-(U3-Pad11)*%
X266462716Y-171450000D03*
%TO.P,U3,12,IOREF*%
%TO.N,unconnected-(U3-Pad12)*%
X263922716Y-171450000D03*
%TO.P,U3,13,PA13*%
%TO.N,SWDIO*%
X266462716Y-173990000D03*
%TO.P,U3,14,RESET*%
%TO.N,unconnected-(U3-Pad14)*%
X263922716Y-173990000D03*
%TO.P,U3,15,PA14*%
%TO.N,SWCLK*%
X266462716Y-176530000D03*
%TO.P,U3,16,+3V3*%
%TO.N,+3V3*%
X263922716Y-176530000D03*
%TO.P,U3,17,PA15*%
%TO.N,MOTOR1_PWM*%
X266462716Y-179070000D03*
%TO.P,U3,18,+5V*%
%TO.N,+5V*%
X263922716Y-179070000D03*
%TO.P,U3,19,GND*%
%TO.N,GND*%
X266462716Y-181610000D03*
%TO.P,U3,20,GND*%
X263922716Y-181610000D03*
%TO.P,U3,21,PB7*%
%TO.N,unconnected-(U3-Pad21)*%
X266462716Y-184150000D03*
%TO.P,U3,22,GND*%
%TO.N,GND*%
X263922716Y-184150000D03*
%TO.P,U3,23,PC13*%
%TO.N,unconnected-(U3-Pad23)*%
X266462716Y-186690000D03*
%TO.P,U3,24,VIN*%
%TO.N,unconnected-(U3-Pad24)*%
X263922716Y-186690000D03*
%TO.P,U3,25,PC14*%
%TO.N,unconnected-(U3-Pad25)*%
X266462716Y-189230000D03*
%TO.P,U3,26,NC*%
%TO.N,unconnected-(U3-Pad26)*%
X263922716Y-189230000D03*
%TO.P,U3,27,PC15*%
%TO.N,MOTOR4_ENCODER*%
X266462716Y-191770000D03*
%TO.P,U3,28,PA0*%
%TO.N,unconnected-(U3-Pad28)*%
X263922716Y-191770000D03*
%TO.P,U3,29,PF0*%
%TO.N,unconnected-(U3-Pad29)*%
X266462716Y-194310000D03*
%TO.P,U3,30,PA1*%
%TO.N,MOTOR3_PWMN*%
X263922716Y-194310000D03*
%TO.P,U3,31,PF1*%
%TO.N,unconnected-(U3-Pad31)*%
X266462716Y-196850000D03*
%TO.P,U3,32,PA4*%
%TO.N,unconnected-(U3-Pad32)*%
X263922716Y-196850000D03*
%TO.P,U3,33,VBAT*%
%TO.N,unconnected-(U3-Pad33)*%
X266462716Y-199390000D03*
%TO.P,U3,34,PB0*%
%TO.N,unconnected-(U3-Pad34)*%
X263922716Y-199390000D03*
%TO.P,U3,35,PC2*%
%TO.N,unconnected-(U3-Pad35)*%
X266462716Y-201930000D03*
%TO.P,U3,36,PC1*%
%TO.N,unconnected-(U3-Pad36)*%
X263922716Y-201930000D03*
%TO.P,U3,37,PC3*%
%TO.N,unconnected-(U3-Pad37)*%
X266462716Y-204470000D03*
%TO.P,U3,38,PC0*%
%TO.N,MOTOR4_PWM*%
X263922716Y-204470000D03*
%TO.P,U3,39,PC9*%
%TO.N,unconnected-(U3-Pad39)*%
X205502716Y-158750000D03*
%TO.P,U3,40,PC8*%
%TO.N,MOTOR2_ENCODER*%
X202962716Y-158750000D03*
%TO.P,U3,41,PB8*%
%TO.N,I2C_SCL*%
X205502716Y-161290000D03*
%TO.P,U3,42,PC6*%
%TO.N,MOTOR3_ENCODER*%
X202962716Y-161290000D03*
%TO.P,U3,43,PB9*%
%TO.N,I2C_SDA*%
X205502716Y-163830000D03*
%TO.P,U3,44,PC5*%
%TO.N,Vbat*%
X202962716Y-163830000D03*
%TO.P,U3,45,AVDD*%
%TO.N,unconnected-(U3-Pad45)*%
X205502716Y-166370000D03*
%TO.P,U3,46,U5V*%
%TO.N,unconnected-(U3-Pad46)*%
X202962716Y-166370000D03*
%TO.P,U3,47,GND*%
%TO.N,GND*%
X205502716Y-168910000D03*
%TO.P,U3,48,NC*%
%TO.N,unconnected-(U3-Pad48)*%
X202962716Y-168910000D03*
%TO.P,U3,49,PA5*%
%TO.N,SPI_SCLK*%
X205502716Y-171450000D03*
%TO.P,U3,50,PA12*%
%TO.N,MOTOR2_PWM*%
X202962716Y-171450000D03*
%TO.P,U3,51,PA6*%
%TO.N,SPI_MISO*%
X205502716Y-173990000D03*
%TO.P,U3,52,PA11*%
%TO.N,unconnected-(U3-Pad52)*%
X202962716Y-173990000D03*
%TO.P,U3,53,PA7*%
%TO.N,SPI_MOSI*%
X205502716Y-176530000D03*
%TO.P,U3,54,PB12*%
%TO.N,unconnected-(U3-Pad54)*%
X202962716Y-176530000D03*
%TO.P,U3,55,PB6*%
%TO.N,MOTOR2_PWMN*%
X205502716Y-179070000D03*
%TO.P,U3,56,PB11*%
%TO.N,unconnected-(U3-Pad56)*%
X202962716Y-179070000D03*
%TO.P,U3,57,PC7*%
%TO.N,unconnected-(U3-Pad57)*%
X205502716Y-181610000D03*
%TO.P,U3,58,GND*%
%TO.N,unconnected-(U3-Pad58)*%
X202962716Y-181610000D03*
%TO.P,U3,59,PA9*%
%TO.N,unconnected-(U3-Pad59)*%
X205502716Y-184150000D03*
%TO.P,U3,60,PB2*%
%TO.N,unconnected-(U3-Pad60)*%
X202962716Y-184150000D03*
%TO.P,U3,61,PA8*%
%TO.N,unconnected-(U3-Pad61)*%
X205502716Y-186690000D03*
%TO.P,U3,62,PB1*%
%TO.N,unconnected-(U3-Pad62)*%
X202962716Y-186690000D03*
%TO.P,U3,63,PB10*%
%TO.N,unconnected-(U3-Pad63)*%
X205502716Y-189230000D03*
%TO.P,U3,64,PB15*%
%TO.N,unconnected-(U3-Pad64)*%
X202962716Y-189230000D03*
%TO.P,U3,65,PB4*%
%TO.N,unconnected-(U3-Pad65)*%
X205502716Y-191770000D03*
%TO.P,U3,66,PB14*%
%TO.N,MOTOR3_PWM*%
X202962716Y-191770000D03*
%TO.P,U3,67,PB5*%
%TO.N,unconnected-(U3-Pad67)*%
X205502716Y-194310000D03*
%TO.P,U3,68,PB13*%
%TO.N,MOTOR4_PWMN*%
X202962716Y-194310000D03*
%TO.P,U3,69,PB3*%
%TO.N,unconnected-(U3-Pad69)*%
X205502716Y-196850000D03*
%TO.P,U3,70,AGND*%
%TO.N,unconnected-(U3-Pad70)*%
X202962716Y-196850000D03*
%TO.P,U3,71,PA10*%
%TO.N,UART_RX*%
X205502716Y-199390000D03*
%TO.P,U3,72,PC4*%
%TO.N,UART_TX*%
X202962716Y-199390000D03*
%TO.P,U3,73,PA2*%
%TO.N,unconnected-(U3-Pad73)*%
X205502716Y-201930000D03*
%TO.P,U3,74,NC*%
%TO.N,unconnected-(U3-Pad74)*%
X202962716Y-201930000D03*
%TO.P,U3,75,PA3*%
%TO.N,unconnected-(U3-Pad75)*%
X205502716Y-204470000D03*
%TO.P,U3,76,NC*%
%TO.N,unconnected-(U3-Pad76)*%
X202962716Y-204470000D03*
%TD*%
D15*
%TO.P,C1,1*%
%TO.N,Vbat*%
X197516716Y-163830000D03*
%TO.P,C1,2*%
%TO.N,GND*%
X197516716Y-168830000D03*
%TD*%
D16*
%TO.N,+5V*%
X236822526Y-200500000D03*
X239422526Y-203200000D03*
%TO.N,GND*%
X239822526Y-200000000D03*
X242922526Y-202800000D03*
X259622526Y-155400000D03*
X267622526Y-155400000D03*
%TO.N,+12V*%
X207222526Y-132334000D03*
X200350716Y-132334000D03*
%TO.N,MOTOR2_PWMN*%
X212222526Y-196400000D03*
X212288716Y-206700000D03*
%TO.N,MOTOR3_PWMN*%
X258185526Y-201549000D03*
X258312526Y-205740000D03*
%TO.N,+5V*%
X275838526Y-135232800D03*
X237422526Y-125100000D03*
X275822526Y-131700000D03*
X241922526Y-125100000D03*
%TO.N,SPI_SCLK*%
X209322526Y-176100000D03*
X209240716Y-171196000D03*
%TO.N,Net-(R10-Pad1)*%
X194522526Y-134900000D03*
X207322526Y-134900000D03*
%TO.N,+3V3*%
X257822526Y-153800000D03*
X265822526Y-153670000D03*
%TD*%
D17*
%TO.N,+5V*%
X220872526Y-200950000D02*
X223722526Y-198100000D01*
X233822526Y-208900000D02*
X228822526Y-208900000D01*
X239422526Y-203300000D02*
X233822526Y-208900000D01*
X239422526Y-203200000D02*
X239422526Y-203300000D01*
X230813131Y-198100000D02*
X231359182Y-198646051D01*
X223722526Y-198100000D02*
X230813131Y-198100000D01*
X261552526Y-179070000D02*
X263922716Y-179070000D01*
X260722526Y-181900000D02*
X260722526Y-179900000D01*
X228822526Y-208900000D02*
X220872526Y-200950000D01*
X260722526Y-179900000D02*
X261552526Y-179070000D01*
X239422526Y-203200000D02*
X260722526Y-181900000D01*
%TO.N,GND*%
X248972526Y-190850000D02*
X241822526Y-198000000D01*
X241822526Y-198000000D02*
X239822526Y-200000000D01*
X241489437Y-198000000D02*
X241822526Y-198000000D01*
X238543386Y-195053949D02*
X241489437Y-198000000D01*
X239822526Y-200000000D02*
X239822526Y-200100000D01*
X239822526Y-200100000D02*
X236122526Y-203800000D01*
X239922526Y-200000000D02*
X239822526Y-200000000D01*
X290774716Y-169147810D02*
X283472526Y-176450000D01*
X283222526Y-176700000D02*
X283472526Y-176450000D01*
X283472526Y-176450000D02*
X281376716Y-178545810D01*
X275581694Y-176700000D02*
X283222526Y-176700000D01*
X273502716Y-171080190D02*
X273502716Y-174621022D01*
X273502716Y-174621022D02*
X275581694Y-176700000D01*
D18*
%TO.N,MOTOR4_ENCODER*%
X266462716Y-191770000D02*
X267456526Y-191770000D01*
X267456526Y-191770000D02*
X273526526Y-185700000D01*
X273526526Y-185700000D02*
X277722526Y-185700000D01*
X277722526Y-185700000D02*
X280029526Y-188007000D01*
X280029526Y-188007000D02*
X280029526Y-195264190D01*
X280029526Y-195264190D02*
X275950716Y-199343000D01*
%TO.N,MOTOR4_PWMN*%
X224722526Y-217800000D02*
X243268026Y-217800000D01*
X199622526Y-206000000D02*
X201822526Y-208200000D01*
X263138526Y-207772000D02*
X268980526Y-207772000D01*
X216022526Y-209100000D02*
X224722526Y-217800000D01*
X210922526Y-203700000D02*
X213922526Y-203700000D01*
X203024716Y-194210000D02*
X202412526Y-194210000D01*
X278759526Y-191389000D02*
X278759526Y-189484000D01*
X243268026Y-217800000D02*
X257741026Y-203327000D01*
X206422526Y-208200000D02*
X210922526Y-203700000D01*
X201822526Y-208200000D02*
X206422526Y-208200000D01*
X268980526Y-207772000D02*
X270504526Y-206248000D01*
X270504526Y-199644000D02*
X278759526Y-191389000D01*
X276981526Y-187706000D02*
X276296716Y-187706000D01*
X216022526Y-205800000D02*
X216022526Y-209100000D01*
X213922526Y-203700000D02*
X216022526Y-205800000D01*
X199622526Y-197000000D02*
X199622526Y-206000000D01*
X257741026Y-203327000D02*
X258693526Y-203327000D01*
X202412526Y-194210000D02*
X199622526Y-197000000D01*
X202924716Y-194310000D02*
X203024716Y-194210000D01*
X258693526Y-203327000D02*
X263138526Y-207772000D01*
X270504526Y-206248000D02*
X270504526Y-199644000D01*
X278759526Y-189484000D02*
X276981526Y-187706000D01*
%TO.N,MOTOR3_PWM*%
X196522526Y-208000000D02*
X196522526Y-191328489D01*
X214022526Y-206000000D02*
X214022526Y-207300000D01*
X212922526Y-204900000D02*
X214022526Y-206000000D01*
X214022526Y-207300000D02*
X209422526Y-211900000D01*
X211422526Y-204900000D02*
X212922526Y-204900000D01*
X196522526Y-191328489D02*
X192910037Y-187716000D01*
X207122526Y-209200000D02*
X211422526Y-204900000D01*
X201172526Y-209200000D02*
X207122526Y-209200000D01*
X209422526Y-211900000D02*
X200422526Y-211900000D01*
X200422526Y-211900000D02*
X196522526Y-208000000D01*
X198522526Y-195400000D02*
X198522526Y-206550000D01*
X202252526Y-191670000D02*
X198522526Y-195400000D01*
X198522526Y-206550000D02*
X201172526Y-209200000D01*
X203024716Y-191670000D02*
X202252526Y-191670000D01*
X192910037Y-187716000D02*
X192349716Y-187716000D01*
%TO.N,UART_TX*%
X203024716Y-199290000D02*
X202232526Y-199290000D01*
X202232526Y-199290000D02*
X200822526Y-200700000D01*
X214422526Y-202400000D02*
X217922526Y-205900000D01*
X225622526Y-216300000D02*
X231122526Y-216300000D01*
X200822526Y-200700000D02*
X200822526Y-205704488D01*
X233495621Y-213926905D02*
X233495621Y-213278000D01*
X200822526Y-205704488D02*
X202218038Y-207100000D01*
X202218038Y-207100000D02*
X205922526Y-207100000D01*
X205922526Y-207100000D02*
X210622526Y-202400000D01*
X210622526Y-202400000D02*
X214422526Y-202400000D01*
X217922526Y-205900000D02*
X217922526Y-208600000D01*
X217922526Y-208600000D02*
X225622526Y-216300000D01*
X231122526Y-216300000D02*
X233495621Y-213926905D01*
%TO.N,MOTOR2_PWMN*%
X212288716Y-206700000D02*
X212288716Y-206733810D01*
X197522526Y-183861810D02*
X196037716Y-182377000D01*
X212288716Y-206733810D02*
X208422526Y-210600000D01*
X208422526Y-210600000D02*
X200922526Y-210600000D01*
X200922526Y-210600000D02*
X197522526Y-207200000D01*
X197522526Y-207200000D02*
X197522526Y-183861810D01*
X196037716Y-182377000D02*
X192349716Y-182377000D01*
%TO.N,MOTOR3_PWMN*%
X258312526Y-205740000D02*
X258312526Y-207396801D01*
X258312526Y-207396801D02*
X246109327Y-219600000D01*
X246109327Y-219600000D02*
X204822526Y-219600000D01*
X204822526Y-219600000D02*
X195422526Y-210200000D01*
X195422526Y-210200000D02*
X195422526Y-193328810D01*
X195422526Y-193328810D02*
X192349716Y-190256000D01*
%TO.N,MOTOR3_ENCODER*%
X189682716Y-191516000D02*
X189738526Y-191516000D01*
X189738526Y-191516000D02*
X194322526Y-196100000D01*
X194322526Y-196100000D02*
X194322526Y-203700000D01*
X194322526Y-203700000D02*
X193522526Y-204500000D01*
D17*
%TO.N,GND*%
X248972526Y-190850000D02*
X255422526Y-184400000D01*
X255422526Y-153300000D02*
X256522526Y-152200000D01*
X255422526Y-184400000D02*
X255422526Y-153300000D01*
X256522526Y-152200000D02*
X258722526Y-152200000D01*
X258722526Y-152200000D02*
X259622526Y-153100000D01*
X259622526Y-153100000D02*
X259622526Y-155400000D01*
D18*
%TO.N,MOTOR1_ENCODER*%
X286710716Y-165354000D02*
X286710716Y-165188190D01*
X286710716Y-165188190D02*
X283828526Y-162306000D01*
X283828526Y-162306000D02*
X280128526Y-162306000D01*
X280128526Y-162306000D02*
X276846526Y-159024000D01*
X276846526Y-159024000D02*
X275996716Y-159024000D01*
D17*
%TO.N,GND*%
X275996716Y-161524000D02*
X274598526Y-161524000D01*
X274598526Y-161524000D02*
X273502716Y-162619810D01*
X273502716Y-162619810D02*
X273502716Y-171080190D01*
D18*
%TO.N,MOTOR1_PWM*%
X276250716Y-182367000D02*
X270389526Y-182367000D01*
X270389526Y-182367000D02*
X267092526Y-179070000D01*
X267092526Y-179070000D02*
X266462716Y-179070000D01*
D17*
%TO.N,GND*%
X281376716Y-200152000D02*
X281376716Y-184454190D01*
X281376716Y-184454190D02*
X281376716Y-182118000D01*
X266462716Y-181610000D02*
X267332526Y-181610000D01*
X281326526Y-184404000D02*
X281376716Y-184454190D01*
X267332526Y-181610000D02*
X270126526Y-184404000D01*
X270126526Y-184404000D02*
X281326526Y-184404000D01*
D18*
%TO.N,Net-(J6-Pad3)*%
X275950716Y-204343000D02*
X276077716Y-204470000D01*
X276077716Y-204470000D02*
X279852716Y-204470000D01*
X282822526Y-201500190D02*
X282822526Y-194500000D01*
X282822526Y-194500000D02*
X283522526Y-193800000D01*
X279852716Y-204470000D02*
X282822526Y-201500190D01*
X287980716Y-194564000D02*
X287980716Y-195647000D01*
X283522526Y-193800000D02*
X287216716Y-193800000D01*
X287216716Y-193800000D02*
X287980716Y-194564000D01*
D17*
%TO.N,GND*%
X239629526Y-119738800D02*
X239095726Y-119205000D01*
X221277526Y-119205000D02*
X220922526Y-119560000D01*
X239095726Y-119205000D02*
X221277526Y-119205000D01*
X220922526Y-119560000D02*
X220922526Y-119200000D01*
%TO.N,+12V*%
X200350716Y-132334000D02*
X200350716Y-133771810D01*
X200350716Y-133771810D02*
X193822526Y-140300000D01*
X189522526Y-140300000D02*
X186622526Y-143200000D01*
X193822526Y-140300000D02*
X189522526Y-140300000D01*
X186622526Y-143200000D02*
X186622526Y-156476190D01*
X186622526Y-156476190D02*
X185618716Y-157480000D01*
X185618716Y-157480000D02*
X182342526Y-157480000D01*
X182342526Y-157480000D02*
X177622526Y-162200000D01*
X177622526Y-162200000D02*
X177622526Y-170197905D01*
X177622526Y-170197905D02*
X181140621Y-173716000D01*
X181140621Y-173716000D02*
X192649716Y-173716000D01*
D18*
%TO.N,MOTOR2_PWM*%
X192349716Y-179837000D02*
X197185526Y-179837000D01*
X200822526Y-176200000D02*
X200822526Y-172248190D01*
X197185526Y-179837000D02*
X200822526Y-176200000D01*
X200822526Y-172248190D02*
X201570716Y-171500000D01*
X201570716Y-171500000D02*
X202874716Y-171500000D01*
%TO.N,MOTOR2_ENCODER*%
X194978716Y-155156000D02*
X194978716Y-148043810D01*
X202924716Y-157897810D02*
X202924716Y-158750000D01*
X194978716Y-148043810D02*
X199422526Y-143600000D01*
X199422526Y-143600000D02*
X202922526Y-143600000D01*
X202922526Y-143600000D02*
X205222526Y-145900000D01*
X205222526Y-145900000D02*
X205222526Y-155600000D01*
X205222526Y-155600000D02*
X202924716Y-157897810D01*
%TO.N,I2C_SDA*%
X205522526Y-135706080D02*
X205522526Y-135800000D01*
X205522526Y-135800000D02*
X208922526Y-139200000D01*
X208922526Y-139200000D02*
X208922526Y-162370190D01*
X208922526Y-162370190D02*
X207562716Y-163730000D01*
X207562716Y-163730000D02*
X205564716Y-163730000D01*
%TO.N,I2C_SCL*%
X191460716Y-149860000D02*
X191562526Y-149860000D01*
X191562526Y-149860000D02*
X198922526Y-142500000D01*
X198922526Y-142500000D02*
X205522526Y-142500000D01*
X205522526Y-142500000D02*
X207622526Y-144600000D01*
X207622526Y-144600000D02*
X207622526Y-160368190D01*
X207622526Y-160368190D02*
X206800716Y-161190000D01*
X206800716Y-161190000D02*
X205564716Y-161190000D01*
%TO.N,SPI_SCLK*%
X209322526Y-176100000D02*
X223222526Y-190000000D01*
X223222526Y-190000000D02*
X237081539Y-190000000D01*
X237081539Y-190000000D02*
X238543386Y-191461847D01*
D17*
%TO.N,GND*%
X211185516Y-166282800D02*
X211185516Y-167044800D01*
X211185516Y-167044800D02*
X228440716Y-184300000D01*
X228440716Y-184300000D02*
X242422526Y-184300000D01*
X242422526Y-184300000D02*
X248972526Y-190850000D01*
X236122526Y-203800000D02*
X232822526Y-207100000D01*
X233155233Y-200442103D02*
X236122526Y-203409396D01*
X236122526Y-203409396D02*
X236122526Y-203800000D01*
D18*
%TO.N,SPI_MISO*%
X205564716Y-173890000D02*
X212512526Y-173890000D01*
X212512526Y-173890000D02*
X225820526Y-187198000D01*
X244800716Y-192021810D02*
X242822526Y-194000000D01*
X225820526Y-187198000D02*
X241752716Y-187198000D01*
X241752716Y-187198000D02*
X244800716Y-190246000D01*
X244800716Y-190246000D02*
X244800716Y-192021810D01*
X242822526Y-194000000D02*
X241081540Y-194000000D01*
X241081540Y-194000000D02*
X240339438Y-193257898D01*
D17*
%TO.N,GND*%
X232822526Y-207100000D02*
X229322526Y-207100000D01*
X229322526Y-207100000D02*
X223722526Y-201500000D01*
X223722526Y-201500000D02*
X225322526Y-199900000D01*
X229021027Y-199900000D02*
X229563130Y-200442103D01*
X225322526Y-199900000D02*
X229021027Y-199900000D01*
%TO.N,+5V*%
X234968577Y-198646051D02*
X236822526Y-200500000D01*
X234951284Y-198646051D02*
X234968577Y-198646051D01*
%TO.N,GND*%
X266524716Y-181510000D02*
X263984716Y-181510000D01*
X263984716Y-181510000D02*
X263984716Y-184050000D01*
X263984716Y-184050000D02*
X261772526Y-184050000D01*
X261772526Y-184050000D02*
X241115621Y-204706905D01*
X241115621Y-204706905D02*
X241115621Y-213278000D01*
D18*
%TO.N,UART_RX*%
X205564716Y-199290000D02*
X217212526Y-199290000D01*
X217212526Y-199290000D02*
X230955621Y-213033095D01*
X230955621Y-213033095D02*
X230955621Y-213278000D01*
D17*
%TO.N,GND*%
X188322526Y-157650000D02*
X186172526Y-159800000D01*
X227022526Y-132700000D02*
X219036526Y-124714000D01*
X186172526Y-159800000D02*
X182522526Y-159800000D01*
X188322526Y-144300000D02*
X188322526Y-157650000D01*
X190422526Y-142200000D02*
X188322526Y-144300000D01*
X194122526Y-142200000D02*
X190422526Y-142200000D01*
X202222526Y-128684190D02*
X202222526Y-134100000D01*
X202222526Y-134100000D02*
X194122526Y-142200000D01*
X206192716Y-124714000D02*
X202222526Y-128684190D01*
X219036526Y-124714000D02*
X206192716Y-124714000D01*
X179122526Y-163200000D02*
X179122526Y-168957332D01*
X179122526Y-168957332D02*
X181381194Y-171216000D01*
X236207326Y-132700000D02*
X227022526Y-132700000D01*
X239622526Y-129284800D02*
X236207326Y-132700000D01*
X239622526Y-119745800D02*
X239622526Y-129284800D01*
X239629526Y-119738800D02*
X239622526Y-119745800D01*
X182522526Y-159800000D02*
X179122526Y-163200000D01*
X181381194Y-171216000D02*
X192649716Y-171216000D01*
D18*
%TO.N,I2C_SCL*%
X191460716Y-149860000D02*
X191082526Y-149860000D01*
X193622526Y-144500000D02*
X204022526Y-134100000D01*
X191082526Y-149860000D02*
X189622526Y-148400000D01*
X189622526Y-148400000D02*
X189622526Y-145400000D01*
X189622526Y-145400000D02*
X190522526Y-144500000D01*
X206065716Y-127254000D02*
X211185516Y-127254000D01*
X190522526Y-144500000D02*
X193622526Y-144500000D01*
X204022526Y-134100000D02*
X204022526Y-129297190D01*
X204022526Y-129297190D02*
X206065716Y-127254000D01*
D17*
%TO.N,+5V*%
X211185516Y-122174000D02*
X205148526Y-122174000D01*
X205148526Y-122174000D02*
X197722526Y-129600000D01*
X197722526Y-129600000D02*
X197722526Y-134200000D01*
X197722526Y-134200000D02*
X193922526Y-138000000D01*
X193922526Y-138000000D02*
X189422526Y-138000000D01*
X189422526Y-138000000D02*
X181300716Y-146121810D01*
X181300716Y-146121810D02*
X181300716Y-146558000D01*
D18*
%TO.N,I2C_SDA*%
X205522526Y-135706080D02*
X203928606Y-137300000D01*
X203928606Y-137300000D02*
X202522526Y-137300000D01*
X202522526Y-137300000D02*
X193264526Y-146558000D01*
X193264526Y-146558000D02*
X191460716Y-146558000D01*
X211185516Y-129794000D02*
X206528526Y-129794000D01*
X206528526Y-129794000D02*
X205522526Y-130800000D01*
X205522526Y-130800000D02*
X205522526Y-135706080D01*
%TO.N,Net-(J5-Pad3)*%
X181300716Y-165354000D02*
X183346716Y-167400000D01*
X183346716Y-167400000D02*
X186112716Y-167400000D01*
X186112716Y-167400000D02*
X188158716Y-165354000D01*
X188158716Y-162663810D02*
X191798526Y-159024000D01*
X188158716Y-165354000D02*
X188158716Y-162663810D01*
X191798526Y-159024000D02*
X192649716Y-159024000D01*
%TO.N,MOTOR3_ENCODER*%
X203830716Y-146228000D02*
X203830716Y-154000000D01*
X199922716Y-144700000D02*
X202302716Y-144700000D01*
X195822526Y-148800190D02*
X199922716Y-144700000D01*
X195822526Y-165143810D02*
X195822526Y-148800190D01*
X197048716Y-166370000D02*
X195822526Y-165143810D01*
X199334716Y-167386000D02*
X198318716Y-166370000D01*
X199334716Y-175514000D02*
X199334716Y-167386000D01*
X197302716Y-177546000D02*
X199334716Y-175514000D01*
X198318716Y-166370000D02*
X197048716Y-166370000D01*
X189682716Y-178308000D02*
X190444716Y-177546000D01*
X202302716Y-144700000D02*
X203830716Y-146228000D01*
X190444716Y-177546000D02*
X197302716Y-177546000D01*
X189682716Y-191516000D02*
X189682716Y-178308000D01*
X203830716Y-154000000D02*
X201112716Y-156718000D01*
X201112716Y-160401000D02*
X201901716Y-161190000D01*
X201112716Y-156718000D02*
X201112716Y-160401000D01*
X201901716Y-161190000D02*
X203024716Y-161190000D01*
%TO.N,MOTOR2_ENCODER*%
X184450316Y-165354000D02*
X184450316Y-164372210D01*
X184450316Y-164372210D02*
X192104526Y-156718000D01*
X192104526Y-156718000D02*
X194978716Y-156718000D01*
X194978716Y-156718000D02*
X194978716Y-155156000D01*
X192649716Y-164024000D02*
X193598526Y-164024000D01*
X193598526Y-164024000D02*
X194978716Y-162643810D01*
X194978716Y-162643810D02*
X194978716Y-155156000D01*
D17*
%TO.N,Net-(R10-Pad1)*%
X194522526Y-134900000D02*
X191022526Y-131400000D01*
X191022526Y-131400000D02*
X191022526Y-128447990D01*
X191022526Y-128447990D02*
X191036716Y-128433800D01*
D19*
%TO.N,Net-(J12-Pad1)*%
X190950716Y-122433800D02*
X191088726Y-122433800D01*
X191088726Y-122433800D02*
X194322526Y-119200000D01*
X194322526Y-119200000D02*
X218422526Y-119200000D01*
D17*
%TO.N,+12V*%
X222901726Y-132334000D02*
X227467726Y-136900000D01*
X207222526Y-132334000D02*
X222901726Y-132334000D01*
X227467726Y-136900000D02*
X230104526Y-136900000D01*
%TO.N,Net-(R10-Pad1)*%
X207322526Y-134900000D02*
X207348526Y-134874000D01*
X207348526Y-134874000D02*
X211185516Y-134874000D01*
%TO.N,+5V*%
X237422526Y-125100000D02*
X233131726Y-129390800D01*
X220296526Y-122174000D02*
X211185516Y-122174000D01*
X233131726Y-129390800D02*
X227513326Y-129390800D01*
X227513326Y-129390800D02*
X220296526Y-122174000D01*
X241922526Y-125100000D02*
X241949726Y-125072800D01*
X241949726Y-125072800D02*
X275849726Y-125072800D01*
D18*
X275822526Y-125100000D02*
X275849726Y-125072800D01*
D17*
X275849726Y-125072800D02*
X280695326Y-125072800D01*
X275822526Y-131700000D02*
X275822526Y-125100000D01*
D18*
%TO.N,+3V3*%
X265822526Y-153670000D02*
X265822526Y-145500000D01*
X265822526Y-145500000D02*
X267922526Y-143400000D01*
X280096716Y-145974190D02*
X280096716Y-147041000D01*
X267922526Y-143400000D02*
X277522526Y-143400000D01*
X277522526Y-143400000D02*
X280096716Y-145974190D01*
%TO.N,MOTOR1_ENCODER*%
X275996716Y-159024000D02*
X275996716Y-156825810D01*
X275996716Y-156825810D02*
X283522526Y-149300000D01*
X283522526Y-149300000D02*
X283522526Y-144100000D01*
X283522526Y-144100000D02*
X280322526Y-140900000D01*
X280322526Y-140900000D02*
X266522526Y-140900000D01*
X266522526Y-140900000D02*
X262922526Y-144500000D01*
X262922526Y-144500000D02*
X262922526Y-157587810D01*
X262922526Y-157587810D02*
X263984716Y-158650000D01*
D17*
%TO.N,+12V*%
X275996716Y-173716000D02*
X281904716Y-173716000D01*
X272028526Y-133708800D02*
X268837326Y-136900000D01*
X281904716Y-173716000D02*
X288996716Y-166624000D01*
X280868716Y-154253810D02*
X285122526Y-150000000D01*
X285122526Y-134864800D02*
X283966526Y-133708800D01*
X288996716Y-166624000D02*
X288996716Y-164074190D01*
X288996716Y-164074190D02*
X280868716Y-155946190D01*
X280868716Y-155946190D02*
X280868716Y-154253810D01*
X283966526Y-133708800D02*
X272028526Y-133708800D01*
X285122526Y-150000000D02*
X285122526Y-134864800D01*
X268837326Y-136900000D02*
X239629526Y-136900000D01*
%TO.N,+5V*%
X275838526Y-135232800D02*
X275838526Y-136900000D01*
X275838526Y-136900000D02*
X277505726Y-136900000D01*
X277505726Y-136900000D02*
X272022526Y-136900000D01*
X269922526Y-139000000D02*
X264922526Y-139000000D01*
X272022526Y-136900000D02*
X269922526Y-139000000D01*
X264922526Y-139000000D02*
X264822526Y-138900000D01*
X264822526Y-138900000D02*
X264650716Y-138900000D01*
X264650716Y-138900000D02*
X261310716Y-142240000D01*
X261310716Y-142240000D02*
X261310716Y-163068000D01*
X261310716Y-163068000D02*
X261972716Y-163730000D01*
X261972716Y-163730000D02*
X263984716Y-163730000D01*
X280695326Y-125072800D02*
X288422526Y-132800000D01*
X288422526Y-153482190D02*
X286710716Y-155194000D01*
X288422526Y-132800000D02*
X288422526Y-153482190D01*
%TO.N,GND*%
X279761526Y-119230800D02*
X279650726Y-119120000D01*
X279650726Y-119120000D02*
X240248326Y-119120000D01*
X240248326Y-119120000D02*
X239629526Y-119738800D01*
X280269526Y-119120000D02*
X280269526Y-119147000D01*
X280269526Y-119147000D02*
X290774716Y-129652190D01*
X290774716Y-129652190D02*
X290774716Y-169147810D01*
X211185516Y-166282800D02*
X211185516Y-167237010D01*
X211185516Y-167237010D02*
X209512526Y-168910000D01*
X209512526Y-168910000D02*
X205502716Y-168910000D01*
X192649716Y-171216000D02*
X192649716Y-168829000D01*
X192649716Y-168829000D02*
X190190716Y-166370000D01*
X190190716Y-166370000D02*
X190190716Y-163031810D01*
X190190716Y-163031810D02*
X191698526Y-161524000D01*
X191698526Y-161524000D02*
X192649716Y-161524000D01*
%TO.N,+5V*%
X181300716Y-155194000D02*
X180538716Y-155194000D01*
X180538716Y-155194000D02*
X176022526Y-159710190D01*
X176022526Y-159710190D02*
X176022526Y-200528810D01*
X176022526Y-200528810D02*
X181300716Y-205807000D01*
%TO.N,GND*%
X195130716Y-171216000D02*
X195122526Y-171224190D01*
X195122526Y-171224190D02*
X195122526Y-175535190D01*
X195122526Y-175535190D02*
X194889716Y-175768000D01*
X194889716Y-175768000D02*
X189154526Y-175768000D01*
X189154526Y-175768000D02*
X187422526Y-177500000D01*
X185922526Y-191800000D02*
X181524716Y-191800000D01*
X187422526Y-177500000D02*
X187422526Y-190300000D01*
X187422526Y-190300000D02*
X185922526Y-191800000D01*
X181524716Y-191800000D02*
X179014716Y-194310000D01*
X179014716Y-197358000D02*
X183456716Y-201800000D01*
X179014716Y-194310000D02*
X179014716Y-197358000D01*
X183456716Y-201800000D02*
X192622526Y-201800000D01*
X195130716Y-171216000D02*
X195130716Y-171091810D01*
X195130716Y-171091810D02*
X197392526Y-168830000D01*
X197392526Y-168830000D02*
X197516716Y-168830000D01*
D18*
%TO.N,Net-(J3-Pad3)*%
X184450316Y-195647000D02*
X184669526Y-195647000D01*
X184669526Y-195647000D02*
X188322526Y-199300000D01*
X188322526Y-199300000D02*
X192622526Y-199300000D01*
%TO.N,MOTOR2_PWMN*%
X212222526Y-196400000D02*
X212222526Y-196300000D01*
X212222526Y-196300000D02*
X208732716Y-192810190D01*
X208732716Y-192810190D02*
X208732716Y-181610190D01*
X208732716Y-181610190D02*
X206092526Y-178970000D01*
X206092526Y-178970000D02*
X205564716Y-178970000D01*
%TO.N,SPI_MOSI*%
X236747335Y-193257898D02*
X236680424Y-193257898D01*
X236680424Y-193257898D02*
X235683893Y-192261367D01*
X205852526Y-176430000D02*
X205564716Y-176430000D01*
X235683893Y-192261367D02*
X221683893Y-192261367D01*
X221683893Y-192261367D02*
X205852526Y-176430000D01*
D17*
%TO.N,+5V*%
X284678716Y-205807000D02*
X284661526Y-205807000D01*
X284661526Y-205807000D02*
X268868526Y-221600000D01*
X268868526Y-221600000D02*
X200243316Y-221600000D01*
X200243316Y-221600000D02*
X184450316Y-205807000D01*
D18*
%TO.N,+3V3*%
X257822526Y-153800000D02*
X257822526Y-171000000D01*
X257822526Y-171000000D02*
X263252526Y-176430000D01*
X263252526Y-176430000D02*
X263984716Y-176430000D01*
%TO.N,MOTOR1_PWMN*%
X276250716Y-179827000D02*
X275749526Y-179827000D01*
X264422526Y-145100000D02*
X264422526Y-155003810D01*
X275749526Y-179827000D02*
X271822526Y-175900000D01*
X282322526Y-148100000D02*
X282322526Y-145471810D01*
X271822526Y-175900000D02*
X271822526Y-158600000D01*
X271822526Y-158600000D02*
X282322526Y-148100000D01*
X282322526Y-145471810D02*
X278950716Y-142100000D01*
X278950716Y-142100000D02*
X267422526Y-142100000D01*
X267422526Y-142100000D02*
X264422526Y-145100000D01*
X264422526Y-155003810D02*
X266462716Y-157044000D01*
X266462716Y-157044000D02*
X266462716Y-158750000D01*
%TO.N,SWDIO*%
X266524716Y-173890000D02*
X266524716Y-173928000D01*
X266524716Y-173928000D02*
X266883738Y-173928000D01*
X272381526Y-147041000D02*
X272476716Y-147041000D01*
X266883738Y-173928000D02*
X269022526Y-171789212D01*
X269022526Y-171789212D02*
X269022526Y-150400000D01*
X269022526Y-150400000D02*
X272381526Y-147041000D01*
%TO.N,SWCLK*%
X266524716Y-176430000D02*
X267192526Y-176430000D01*
X267192526Y-176430000D02*
X270422526Y-173200000D01*
X270422526Y-173200000D02*
X270422526Y-154500000D01*
X270422526Y-154500000D02*
X277556716Y-147365810D01*
X277556716Y-147365810D02*
X277556716Y-147041000D01*
D17*
%TO.N,GND*%
X267622526Y-155400000D02*
X267622526Y-147200000D01*
X267622526Y-147200000D02*
X269922526Y-144900000D01*
X274077797Y-144900000D02*
X275016716Y-145838919D01*
X269922526Y-144900000D02*
X274077797Y-144900000D01*
X275016716Y-145838919D02*
X275016716Y-147041000D01*
X281376716Y-182118000D02*
X281376716Y-178545810D01*
X275996716Y-171216000D02*
X273638526Y-171216000D01*
X273638526Y-171216000D02*
X273502716Y-171080190D01*
D18*
%TO.N,MOTOR4_PWM*%
X263922716Y-204470000D02*
X263922716Y-204829022D01*
X263922716Y-204829022D02*
X265849694Y-206756000D01*
X265849694Y-206756000D02*
X267710526Y-206756000D01*
X267710526Y-206756000D02*
X268980526Y-205486000D01*
X268980526Y-205486000D02*
X268980526Y-197866000D01*
X268980526Y-197866000D02*
X276296716Y-190549810D01*
X276296716Y-190549810D02*
X276296716Y-190246000D01*
%TO.N,MOTOR3_PWMN*%
X258185526Y-201549000D02*
X259278716Y-200455810D01*
X259278716Y-200455810D02*
X259278716Y-196850000D01*
X259278716Y-196850000D02*
X261918716Y-194210000D01*
X261918716Y-194210000D02*
X263984716Y-194210000D01*
D17*
%TO.N,Vbat*%
X199528716Y-163730000D02*
X198572716Y-162774000D01*
X198572716Y-156718000D02*
X198572716Y-162774000D01*
X198572716Y-162774000D02*
X197516716Y-163830000D01*
X203024716Y-163730000D02*
X199528716Y-163730000D01*
X201025516Y-149606000D02*
X201025516Y-154265200D01*
X201025516Y-154265200D02*
X198572716Y-156718000D01*
X201025516Y-146558000D02*
X201025516Y-149606000D01*
%TO.N,GND*%
X205602716Y-168810000D02*
X205502716Y-168910000D01*
X192649716Y-171216000D02*
X195130716Y-171216000D01*
X211185516Y-149606000D02*
X211185516Y-166282800D01*
X275950716Y-201843000D02*
X279685716Y-201843000D01*
X211185516Y-149606000D02*
X211272716Y-149693200D01*
X279685716Y-201843000D02*
X281376716Y-200152000D01*
%TO.N,Net-(D1-Pad2)*%
X230104526Y-122278800D02*
X230104526Y-126503800D01*
%TO.N,+12V*%
X239629526Y-136900000D02*
X230104526Y-136900000D01*
D18*
%TO.N,MOTOR3_ENCODER*%
X187396716Y-193802000D02*
X189682716Y-191516000D01*
X181300716Y-194564000D02*
X182062716Y-193802000D01*
X182062716Y-193802000D02*
X187396716Y-193802000D01*
X181300716Y-195647000D02*
X181300716Y-194564000D01*
%TO.N,MOTOR4_ENCODER*%
X271978716Y-205232000D02*
X273794716Y-207048000D01*
X273549716Y-199343000D02*
X271978716Y-200914000D01*
X271978716Y-200914000D02*
X271978716Y-205232000D01*
X279676086Y-207048000D02*
X284678716Y-202045370D01*
X273794716Y-207048000D02*
X279676086Y-207048000D01*
X284678716Y-202045370D02*
X284678716Y-195647000D01*
X275950716Y-199343000D02*
X273549716Y-199343000D01*
%TO.N,MOTOR1_PWM*%
X266524716Y-178970000D02*
X266554716Y-179000000D01*
D17*
%TO.N,+5V*%
X184450316Y-155194000D02*
X181300716Y-155194000D01*
X181300716Y-146558000D02*
X181300716Y-155194000D01*
X263984716Y-179008000D02*
X263922716Y-179070000D01*
X184450316Y-205807000D02*
X181300716Y-205807000D01*
X284678716Y-205807000D02*
X287980716Y-205807000D01*
X283408716Y-155194000D02*
X286710716Y-155194000D01*
X263984716Y-178970000D02*
X263984716Y-179008000D01*
X288075716Y-205740000D02*
X288008716Y-205807000D01*
X287612716Y-205740000D02*
X287679716Y-205807000D01*
X277505726Y-136900000D02*
X280269526Y-136900000D01*
D18*
%TO.N,SPI_SCLK*%
X205718716Y-171196000D02*
X205564716Y-171350000D01*
X209240716Y-171196000D02*
X205718716Y-171196000D01*
D17*
%TO.N,Net-(R10-Pad1)*%
X211185516Y-146558000D02*
X211185516Y-134874000D01*
D18*
%TO.N,Net-(J2-Pad3)*%
X275996716Y-164024000D02*
X282078716Y-164024000D01*
X282078716Y-164024000D02*
X283408716Y-165354000D01*
%TD*%
M02*
